<svg width="375" height="812" viewBox="0 0 375 812" fill="none" xmlns="http://www.w3.org/2000/svg">
<g clip-path="url(#clip0_0_5734)">
<circle cx="187" cy="83" r="323" fill="#1A80FD"/>
<path d="M327.883 72.136C326.976 72.136 326.109 72 325.282 71.728C324.455 71.4447 323.803 71.082 323.327 70.64L323.956 69.314C324.409 69.7107 324.987 70.0393 325.69 70.3C326.393 70.5607 327.124 70.691 327.883 70.691C328.574 70.691 329.135 70.6117 329.566 70.453C329.997 70.2943 330.314 70.079 330.518 69.807C330.722 69.5237 330.824 69.2063 330.824 68.855C330.824 68.447 330.688 68.1183 330.416 67.869C330.155 67.6197 329.81 67.4213 329.379 67.274C328.96 67.1153 328.495 66.9793 327.985 66.866C327.475 66.7527 326.959 66.6223 326.438 66.475C325.928 66.3163 325.458 66.118 325.027 65.88C324.608 65.642 324.268 65.3247 324.007 64.928C323.746 64.52 323.616 63.9987 323.616 63.364C323.616 62.752 323.775 62.191 324.092 61.681C324.421 61.1597 324.919 60.746 325.588 60.44C326.268 60.1227 327.129 59.964 328.172 59.964C328.863 59.964 329.549 60.0547 330.229 60.236C330.909 60.4173 331.498 60.678 331.997 61.018L331.436 62.378C330.926 62.038 330.388 61.7943 329.821 61.647C329.254 61.4883 328.705 61.409 328.172 61.409C327.503 61.409 326.954 61.494 326.523 61.664C326.092 61.834 325.775 62.0607 325.571 62.344C325.378 62.6273 325.282 62.9447 325.282 63.296C325.282 63.7153 325.412 64.0497 325.673 64.299C325.945 64.5483 326.291 64.7467 326.71 64.894C327.141 65.0413 327.611 65.1773 328.121 65.302C328.631 65.4153 329.141 65.5457 329.651 65.693C330.172 65.8403 330.643 66.033 331.062 66.271C331.493 66.509 331.838 66.8263 332.099 67.223C332.36 67.6197 332.49 68.1297 332.49 68.753C332.49 69.3537 332.326 69.9147 331.997 70.436C331.668 70.946 331.158 71.3597 330.467 71.677C329.787 71.983 328.926 72.136 327.883 72.136ZM336.061 69.824L336.095 67.733L341.28 62.99H343.252L339.274 66.9L338.39 67.648L336.061 69.824ZM334.735 72V59.386H336.367V72H334.735ZM341.62 72L338.084 67.614L339.138 66.305L343.626 72H341.62ZM345.211 72V62.99H346.843V72H345.211ZM346.027 61.256C345.71 61.256 345.443 61.154 345.228 60.95C345.024 60.746 344.922 60.4967 344.922 60.202C344.922 59.896 345.024 59.641 345.228 59.437C345.443 59.233 345.71 59.131 346.027 59.131C346.344 59.131 346.605 59.233 346.809 59.437C347.024 59.6297 347.132 59.8733 347.132 60.168C347.132 60.474 347.03 60.7347 346.826 60.95C346.622 61.154 346.356 61.256 346.027 61.256ZM354.736 72.102C353.988 72.102 353.302 71.932 352.679 71.592C352.067 71.2407 351.574 70.725 351.2 70.045C350.837 69.365 350.656 68.515 350.656 67.495C350.656 66.475 350.832 65.625 351.183 64.945C351.546 64.265 352.033 63.755 352.645 63.415C353.268 63.075 353.965 62.905 354.736 62.905C355.62 62.905 356.402 63.0977 357.082 63.483C357.762 63.8683 358.3 64.4067 358.697 65.098C359.094 65.778 359.292 66.577 359.292 67.495C359.292 68.413 359.094 69.2177 358.697 69.909C358.3 70.6003 357.762 71.1387 357.082 71.524C356.402 71.9093 355.62 72.102 354.736 72.102ZM349.959 75.298V62.99H351.523V65.421L351.421 67.512L351.591 69.603V75.298H349.959ZM354.6 70.674C355.178 70.674 355.694 70.5437 356.147 70.283C356.612 70.0223 356.974 69.654 357.235 69.178C357.507 68.6907 357.643 68.1297 357.643 67.495C357.643 66.849 357.507 66.2937 357.235 65.829C356.974 65.353 356.612 64.9847 356.147 64.724C355.694 64.4633 355.178 64.333 354.6 64.333C354.033 64.333 353.518 64.4633 353.053 64.724C352.6 64.9847 352.237 65.353 351.965 65.829C351.704 66.2937 351.574 66.849 351.574 67.495C351.574 68.1297 351.704 68.6907 351.965 69.178C352.237 69.654 352.6 70.0223 353.053 70.283C353.518 70.5437 354.033 70.674 354.6 70.674Z" fill="#1677FF"/>
</g>
<defs>
<clipPath id="clip0_0_5734">
<rect width="375" height="812" fill="white"/>
</clipPath>
</defs>
</svg>
