<svg width="375" height="812" viewBox="0 0 375 812" fill="none" xmlns="http://www.w3.org/2000/svg">
<g clip-path="url(#clip0_317_29)">
<rect width="375" height="812" fill="white"/>
<path fill-rule="evenodd" clip-rule="evenodd" d="M0 812V0H375V812H0Z" fill="white"/>
<path opacity="0.01" fill-rule="evenodd" clip-rule="evenodd" d="M0 44V0H375V44H0Z" fill="white"/>
<path opacity="0.35" d="M339.341 16.8364H356.007C357.203 16.8364 358.174 17.8068 358.174 19.0034V24.9966C358.174 26.1932 357.203 27.1636 356.007 27.1636H339.341C338.144 27.1636 337.174 26.1932 337.174 24.9966V19.0034C337.174 17.8068 338.144 16.8364 339.341 16.8364Z" fill="white" stroke="white"/>
<g opacity="0.4">
<path fill-rule="evenodd" clip-rule="evenodd" d="M359.674 20V24C360.477 23.6612 361 22.8731 361 22C361 21.1269 360.477 20.3388 359.674 20Z" fill="white"/>
<path d="M359.674 20V24C360.477 23.6612 361 22.8731 361 22C361 21.1269 360.477 20.3388 359.674 20" stroke="white"/>
</g>
<path fill-rule="evenodd" clip-rule="evenodd" d="M340.007 25.6635C339.271 25.6635 338.674 25.0665 338.674 24.3302V19.6702C338.674 18.9338 339.271 18.3368 340.007 18.3368H355.341C356.077 18.3368 356.674 18.9338 356.674 19.6702V24.3302C356.674 25.0665 356.077 25.6635 355.341 25.6635H340.007Z" fill="white" stroke="white"/>
<path fill-rule="evenodd" clip-rule="evenodd" d="M330.198 21.0889C330.117 21.0889 330.041 21.0575 329.983 21.0007C328.363 19.4621 326.241 18.6148 324.006 18.6148C321.771 18.6148 319.648 19.4621 318.028 21.0007C317.97 21.0575 317.894 21.0889 317.813 21.0889C317.73 21.0889 317.652 21.0563 317.593 20.9971L316.432 19.8271C316.371 19.7649 316.338 19.6834 316.339 19.5976C316.34 19.511 316.374 19.4302 316.435 19.3699C318.482 17.4099 321.171 16.3306 324.006 16.3306C326.841 16.3306 329.53 17.4099 331.576 19.3699C331.637 19.4302 331.671 19.511 331.672 19.5976C331.673 19.6834 331.64 19.7649 331.579 19.8271L330.418 20.9971C330.359 21.0563 330.281 21.0889 330.198 21.0889ZM327.529 23.7817C327.449 23.7817 327.372 23.7513 327.313 23.6962C326.405 22.8749 325.23 22.4227 324.006 22.4227C322.783 22.4236 321.609 22.8758 320.701 23.6962C320.642 23.7513 320.566 23.7817 320.486 23.7817C320.403 23.7817 320.325 23.7494 320.266 23.6908L319.107 22.5199C319.045 22.458 319.012 22.3762 319.013 22.2895C319.014 22.2017 319.049 22.1202 319.112 22.06C320.446 20.8197 322.184 20.1367 324.007 20.1367C325.829 20.1367 327.568 20.8197 328.903 22.06C328.966 22.1211 329.001 22.2026 329.002 22.2895C329.003 22.3762 328.969 22.458 328.907 22.5199L327.748 23.6908C327.69 23.7494 327.612 23.7817 327.529 23.7817ZM324.006 27.3304C323.923 27.3304 323.842 27.2966 323.784 27.2377L321.778 25.2154C321.715 25.155 321.681 25.0707 321.684 24.9841C321.686 24.8977 321.724 24.815 321.787 24.7573C322.407 24.2336 323.195 23.9452 324.006 23.9452C324.817 23.9452 325.605 24.2336 326.224 24.7573C326.288 24.815 326.326 24.8977 326.328 24.9841C326.33 25.071 326.295 25.1553 326.233 25.2154L324.228 27.2377C324.17 27.2966 324.089 27.3304 324.006 27.3304Z" fill="white"/>
<path fill-rule="evenodd" clip-rule="evenodd" d="M296.339 27.3333H295.339C294.787 27.3333 294.339 26.8848 294.339 26.3334V24.3336C294.339 23.7818 294.787 23.3328 295.339 23.3328H296.339C296.89 23.3328 297.339 23.7818 297.339 24.3336V26.3334C297.339 26.8848 296.89 27.3333 296.339 27.3333ZM301.005 27.3333H300.005C299.454 27.3333 299.005 26.8848 299.005 26.3334V22.3329C299.005 21.7816 299.454 21.333 300.005 21.333H301.005C301.557 21.333 302.006 21.7816 302.006 22.3329V26.3334C302.006 26.8848 301.557 27.3333 301.005 27.3333ZM305.673 27.3333H304.672C304.12 27.3333 303.672 26.8848 303.672 26.3334V20.0001C303.672 19.4488 304.12 19.0002 304.672 19.0002H305.673C306.224 19.0002 306.672 19.4488 306.672 20.0001V26.3334C306.672 26.8848 306.224 27.3333 305.673 27.3333ZM310.339 27.3333H309.339C308.788 27.3333 308.339 26.8848 308.339 26.3334V17.6664C308.339 17.1151 308.788 16.6665 309.339 16.6665H310.339C310.89 16.6665 311.339 17.1151 311.339 17.6664V26.3334C311.339 26.8848 310.89 27.3333 310.339 27.3333Z" fill="white"/>
<path d="M39.6443 7.38C40.5943 7.38 41.3943 7.585 42.0443 7.995C42.7043 8.405 43.2043 9 43.5443 9.78C43.8843 10.55 44.0543 11.495 44.0543 12.615C44.0543 13.805 43.8443 14.81 43.4243 15.63C43.0043 16.45 42.4243 17.07 41.6843 17.49C40.9443 17.91 40.0793 18.12 39.0893 18.12C38.5993 18.12 38.1243 18.07 37.6643 17.97C37.2143 17.87 36.8193 17.715 36.4793 17.505L37.0493 16.335C37.3293 16.515 37.6393 16.645 37.9793 16.725C38.3293 16.795 38.6943 16.83 39.0743 16.83C40.1343 16.83 40.9793 16.5 41.6093 15.84C42.2393 15.17 42.5543 14.18 42.5543 12.87C42.5543 12.66 42.5443 12.41 42.5243 12.12C42.5043 11.83 42.4593 11.545 42.3893 11.265L42.8843 11.775C42.7443 12.235 42.5093 12.625 42.1793 12.945C41.8593 13.255 41.4693 13.49 41.0093 13.65C40.5593 13.8 40.0643 13.875 39.5243 13.875C38.8343 13.875 38.2193 13.745 37.6793 13.485C37.1393 13.225 36.7143 12.86 36.4043 12.39C36.0943 11.91 35.9393 11.345 35.9393 10.695C35.9393 10.015 36.0993 9.43 36.4193 8.94C36.7493 8.44 37.1943 8.055 37.7543 7.785C38.3243 7.515 38.9543 7.38 39.6443 7.38ZM39.7043 8.595C39.2543 8.595 38.8543 8.68 38.5043 8.85C38.1543 9.02 37.8793 9.255 37.6793 9.555C37.4893 9.855 37.3943 10.215 37.3943 10.635C37.3943 11.255 37.6093 11.75 38.0393 12.12C38.4693 12.48 39.0493 12.66 39.7793 12.66C40.2593 12.66 40.6793 12.57 41.0393 12.39C41.4093 12.21 41.6943 11.965 41.8943 11.655C42.1043 11.345 42.2093 11 42.2093 10.62C42.2093 10.25 42.1143 9.915 41.9243 9.615C41.7343 9.315 41.4543 9.07 41.0843 8.88C40.7143 8.69 40.2543 8.595 39.7043 8.595ZM46.1871 12.03C45.9071 12.03 45.6671 11.935 45.4671 11.745C45.2671 11.545 45.1671 11.295 45.1671 10.995C45.1671 10.695 45.2671 10.45 45.4671 10.26C45.6671 10.07 45.9071 9.975 46.1871 9.975C46.4571 9.975 46.6871 10.07 46.8771 10.26C47.0771 10.45 47.1771 10.695 47.1771 10.995C47.1771 11.295 47.0771 11.545 46.8771 11.745C46.6871 11.935 46.4571 12.03 46.1871 12.03ZM46.1871 18.09C45.9071 18.09 45.6671 17.995 45.4671 17.805C45.2671 17.605 45.1671 17.355 45.1671 17.055C45.1671 16.755 45.2671 16.51 45.4671 16.32C45.6671 16.13 45.9071 16.035 46.1871 16.035C46.4571 16.035 46.6871 16.13 46.8771 16.32C47.0771 16.51 47.1771 16.755 47.1771 17.055C47.1771 17.355 47.0771 17.605 46.8771 17.805C46.6871 17.995 46.4571 18.09 46.1871 18.09ZM48.1456 15.42V14.37L53.5156 7.5H55.1356L49.8106 14.37L49.0456 14.13H57.4306V15.42H48.1456ZM53.9806 18V15.42L54.0256 14.13V11.85H55.4356V18H53.9806ZM59.4189 18V8.1L60.0639 8.805H57.0489V7.5H60.9039V18H59.4189Z" fill="white"/>
<path fill-rule="evenodd" clip-rule="evenodd" d="M0 0H375V54H0V0Z" fill="#1677FF"/>
<path fill-rule="evenodd" clip-rule="evenodd" d="M359 53.8406H362.841C366.506 53.8406 368.255 54.31 369.884 55.1914C371.514 56.0729 372.793 57.3664 373.664 59.0146C374.536 60.6628 375 62.4311 375 66.1385V68H0V66.1385C0 62.4311 0.46413 60.6628 1.33566 59.0146C2.2072 57.3664 3.48614 56.0729 5.11577 55.1914C6.7454 54.31 8.49381 53.8406 12.1595 53.8406H16C16 48.2548 20.4771 43.7267 26 43.7267H349C354.523 43.7267 359 48.2548 359 53.8406ZM0 0H375V68H0V0Z" fill="#1677FF"/>
</g>
<defs>
<clipPath id="clip0_317_29">
<rect width="375" height="812" fill="white"/>
</clipPath>
</defs>
</svg>
