<svg width="375" height="812" viewBox="0 0 375 812" fill="none" xmlns="http://www.w3.org/2000/svg">
<g clip-path="url(#clip0_0_5697)">
<path fill-rule="evenodd" clip-rule="evenodd" d="M0 778V44H375V778H0Z" fill="black" fill-opacity="0.01"/>
<path fill-rule="evenodd" clip-rule="evenodd" d="M0 778V44H375V778H0Z" fill="#4CD964" fill-opacity="0.4"/>
<path fill-rule="evenodd" clip-rule="evenodd" d="M359 778V44H375V778H359Z" fill="#5AC8FA" fill-opacity="0.4"/>
<path fill-rule="evenodd" clip-rule="evenodd" d="M0 778V44H16V778H0Z" fill="#5AC8FA" fill-opacity="0.4"/>
<path opacity="0.01" fill-rule="evenodd" clip-rule="evenodd" d="M0 44V0H375V44H0Z" fill="white"/>
<path opacity="0.35" d="M339.341 16.8369H356.007C357.203 16.8369 358.174 17.8073 358.174 19.0039V24.9971C358.174 26.1937 357.203 27.1641 356.007 27.1641H339.341C338.144 27.1641 337.174 26.1937 337.174 24.9971V19.0039C337.174 17.8073 338.144 16.8369 339.341 16.8369Z" fill="white" stroke="white"/>
<g opacity="0.4">
<path fill-rule="evenodd" clip-rule="evenodd" d="M359.674 20.001V24.001C360.477 23.6622 361 22.8741 361 22.001C361 21.1278 360.477 20.3398 359.674 20.001Z" fill="white"/>
<path d="M359.674 20.001V24.001C360.477 23.6622 361 22.8741 361 22.001C361 21.1278 360.477 20.3398 359.674 20.001" stroke="white"/>
</g>
<path fill-rule="evenodd" clip-rule="evenodd" d="M340.007 25.664C339.271 25.664 338.674 25.067 338.674 24.3306V19.6706C338.674 18.9343 339.271 18.3373 340.007 18.3373H355.341C356.077 18.3373 356.674 18.9343 356.674 19.6706V24.3306C356.674 25.067 356.077 25.664 355.341 25.664H340.007Z" fill="white" stroke="white"/>
<path fill-rule="evenodd" clip-rule="evenodd" d="M330.198 21.0894C330.117 21.0894 330.041 21.058 329.983 21.0012C328.363 19.4626 326.241 18.6153 324.006 18.6153C321.771 18.6153 319.648 19.4626 318.028 21.0012C317.97 21.058 317.894 21.0894 317.813 21.0894C317.73 21.0894 317.652 21.0568 317.593 20.9976L316.432 19.8276C316.371 19.7654 316.338 19.6839 316.339 19.5981C316.34 19.5115 316.374 19.4306 316.435 19.3704C318.482 17.4104 321.171 16.3311 324.006 16.3311C326.841 16.3311 329.53 17.4104 331.576 19.3704C331.637 19.4306 331.671 19.5115 331.672 19.5981C331.673 19.6839 331.64 19.7654 331.579 19.8276L330.418 20.9976C330.359 21.0568 330.281 21.0894 330.198 21.0894ZM327.529 23.7822C327.449 23.7822 327.372 23.7518 327.313 23.6967C326.405 22.8754 325.23 22.4232 324.006 22.4232C322.783 22.4241 321.609 22.8763 320.701 23.6967C320.642 23.7518 320.566 23.7822 320.486 23.7822C320.403 23.7822 320.325 23.7499 320.266 23.6913L319.107 22.5204C319.045 22.4585 319.012 22.3767 319.013 22.29C319.014 22.2022 319.049 22.1207 319.112 22.0605C320.446 20.8202 322.184 20.1372 324.007 20.1372C325.829 20.1372 327.568 20.8202 328.903 22.0605C328.966 22.1216 329.001 22.2031 329.002 22.29C329.003 22.3767 328.969 22.4585 328.907 22.5204L327.748 23.6913C327.69 23.7499 327.612 23.7822 327.529 23.7822ZM324.006 27.3309C323.923 27.3309 323.842 27.2971 323.784 27.2382L321.778 25.2159C321.715 25.1555 321.681 25.0712 321.684 24.9846C321.686 24.8982 321.724 24.8155 321.787 24.7578C322.407 24.2341 323.195 23.9457 324.006 23.9457C324.817 23.9457 325.605 24.2341 326.224 24.7578C326.288 24.8155 326.326 24.8982 326.328 24.9846C326.33 25.0715 326.295 25.1558 326.233 25.2159L324.228 27.2382C324.17 27.2971 324.089 27.3309 324.006 27.3309Z" fill="white"/>
<path fill-rule="evenodd" clip-rule="evenodd" d="M296.339 27.3338H295.339C294.787 27.3338 294.339 26.8852 294.339 26.3339V24.3341C294.339 23.7823 294.787 23.3333 295.339 23.3333H296.339C296.89 23.3333 297.339 23.7823 297.339 24.3341V26.3339C297.339 26.8852 296.89 27.3338 296.339 27.3338ZM301.005 27.3338H300.005C299.454 27.3338 299.005 26.8852 299.005 26.3339V22.3334C299.005 21.782 299.454 21.3335 300.005 21.3335H301.005C301.557 21.3335 302.006 21.782 302.006 22.3334V26.3339C302.006 26.8852 301.557 27.3338 301.005 27.3338ZM305.673 27.3338H304.672C304.12 27.3338 303.672 26.8852 303.672 26.3339V20.0006C303.672 19.4492 304.12 19.0007 304.672 19.0007H305.673C306.224 19.0007 306.672 19.4492 306.672 20.0006V26.3339C306.672 26.8852 306.224 27.3338 305.673 27.3338ZM310.339 27.3338H309.339C308.788 27.3338 308.339 26.8852 308.339 26.3339V17.6669C308.339 17.1155 308.788 16.667 309.339 16.667H310.339C310.89 16.667 311.339 17.1155 311.339 17.6669V26.3339C311.339 26.8852 310.89 27.3338 310.339 27.3338Z" fill="white"/>
<path fill-rule="evenodd" clip-rule="evenodd" d="M0 812V0H375V812H0Z" fill="white"/>
<path fill-rule="evenodd" clip-rule="evenodd" d="M0 812V0H375V812H0Z" fill="#1677FF"/>
</g>
<defs>
<clipPath id="clip0_0_5697">
<rect width="375" height="812" fill="white"/>
</clipPath>
</defs>
</svg>
