<svg width="375" height="416" viewBox="0 0 375 416" fill="none" xmlns="http://www.w3.org/2000/svg">
<mask id="mask0_18_1019" style="mask-type:luminance" maskUnits="userSpaceOnUse" x="-83" y="0" width="555" height="416">
<rect x="-83" width="555" height="416" fill="white"/>
</mask>
<g mask="url(#mask0_18_1019)">
<path d="M132.441 222.01C115.974 242.598 128.197 268.97 128.197 268.97C140.59 248.723 133.974 234.719 132.441 222.01Z" fill="#1AB995"/>
<mask id="mask1_18_1019" style="mask-type:luminance" maskUnits="userSpaceOnUse" x="123" y="222" width="13" height="47">
<path fill-rule="evenodd" clip-rule="evenodd" d="M132.441 222.01C115.974 242.598 128.197 268.97 128.197 268.97C140.59 248.723 133.974 234.719 132.441 222.01Z" fill="white"/>
</mask>
<g mask="url(#mask1_18_1019)">
<path d="M137.426 218.697L132.441 222.01C132.441 222.01 132.776 257.084 128.197 268.97C123.618 280.856 143.99 248.642 143.99 248.642L146.581 235.485" fill="#0FA379"/>
</g>
<path fill-rule="evenodd" clip-rule="evenodd" d="M132.441 222.01C115.974 242.598 128.197 268.97 128.197 268.97C140.59 248.723 133.974 234.719 132.441 222.01Z" stroke="black" stroke-width="0.6"/>
<path d="M153.04 250.056C131.006 272.625 142.303 290.549 142.303 290.549C154.696 270.302 154.573 262.765 153.04 250.056Z" fill="#1AB995"/>
<mask id="mask2_18_1019" style="mask-type:luminance" maskUnits="userSpaceOnUse" x="139" y="250" width="15" height="41">
<path fill-rule="evenodd" clip-rule="evenodd" d="M153.04 250.056C131.006 272.625 142.303 290.549 142.303 290.549C154.696 270.302 154.573 262.765 153.04 250.056Z" fill="white"/>
</mask>
<g mask="url(#mask2_18_1019)">
<path d="M156.436 243.651L153.04 250.056C153.04 250.056 141.294 274.608 142.303 290.549C143.311 306.491 158.023 268.97 158.023 268.97L160.062 251.818" fill="#0FA379"/>
</g>
<path fill-rule="evenodd" clip-rule="evenodd" d="M153.04 250.056C131.006 272.625 142.303 290.549 142.303 290.549C154.696 270.302 154.573 262.765 153.04 250.056Z" stroke="black" stroke-width="0.6"/>
<path d="M165.943 268.97C146.089 293.119 150.116 309.463 150.116 309.463C169.338 295.841 167.475 281.678 165.943 268.97Z" fill="#1AB995"/>
<mask id="mask3_18_1019" style="mask-type:luminance" maskUnits="userSpaceOnUse" x="149" y="268" width="18" height="42">
<path fill-rule="evenodd" clip-rule="evenodd" d="M165.943 268.97C146.089 293.119 150.116 309.463 150.116 309.463C169.338 295.841 167.475 281.678 165.943 268.97Z" fill="white"/>
</mask>
<g mask="url(#mask3_18_1019)">
<path d="M168.437 264.522L165.943 268.97C165.943 268.97 159.183 299.051 150.115 309.463C141.047 319.875 175.681 293.068 175.681 293.068L175.228 265.884" fill="#0FA379"/>
</g>
<path fill-rule="evenodd" clip-rule="evenodd" d="M165.943 268.97C146.089 293.119 150.116 309.463 150.116 309.463C169.338 295.841 167.475 281.678 165.943 268.97Z" stroke="black" stroke-width="0.6"/>
<path d="M184.407 298.89C158.31 312.742 156.437 332.139 156.437 332.139C179.007 325.429 184.407 309.463 184.407 298.89Z" fill="#1AB995"/>
<mask id="mask4_18_1019" style="mask-type:luminance" maskUnits="userSpaceOnUse" x="156" y="298" width="29" height="35">
<path fill-rule="evenodd" clip-rule="evenodd" d="M184.407 298.89C158.31 312.742 156.437 332.139 156.437 332.139C179.007 325.429 184.407 309.463 184.407 298.89Z" fill="white"/>
</mask>
<g mask="url(#mask4_18_1019)">
<path d="M188.81 287.835L184.407 298.89C184.407 298.89 172.504 321.717 156.437 332.139C140.369 342.561 178.851 332.139 178.851 332.139L191.753 318.911L196.507 297.871" fill="#0FA379"/>
</g>
<path fill-rule="evenodd" clip-rule="evenodd" d="M184.407 298.89C158.31 312.742 156.437 332.139 156.437 332.139C179.007 325.429 184.407 309.463 184.407 298.89Z" stroke="black" stroke-width="0.6"/>
<path d="M87.3174 275.692C111.255 286.313 128.511 269.475 128.511 269.475C105.345 264.455 98.7767 270.037 87.3174 275.692Z" fill="#1AB995"/>
<mask id="mask5_18_1019" style="mask-type:luminance" maskUnits="userSpaceOnUse" x="87" y="267" width="42" height="13">
<path fill-rule="evenodd" clip-rule="evenodd" d="M87.3174 275.692C111.255 286.313 128.511 269.475 128.511 269.475C105.345 264.455 98.7767 270.037 87.3174 275.692Z" fill="white"/>
</mask>
<g mask="url(#mask5_18_1019)">
<path d="M71.668 287.835L87.3169 275.692C87.3169 275.692 114.781 276.253 128.197 268.97C141.614 261.687 131.44 277.34 131.44 277.34L99.1709 289.216L77.4402 286.907" fill="#0FA379"/>
</g>
<path fill-rule="evenodd" clip-rule="evenodd" d="M87.3174 275.692C111.255 286.313 128.511 269.475 128.511 269.475C105.345 264.455 98.7767 270.037 87.3174 275.692Z" stroke="black" stroke-width="0.6"/>
<path d="M100.962 293.436C123.599 306.614 142.586 291.765 142.586 291.765C120.106 284.239 112.969 289.069 100.962 293.436Z" fill="#1AB995"/>
<mask id="mask6_18_1019" style="mask-type:luminance" maskUnits="userSpaceOnUse" x="100" y="287" width="43" height="12">
<path fill-rule="evenodd" clip-rule="evenodd" d="M100.962 293.436C123.599 306.614 142.586 291.765 142.586 291.765C120.106 284.239 112.969 289.069 100.962 293.436Z" fill="white"/>
</mask>
<g mask="url(#mask6_18_1019)">
<path d="M93.0596 298.911L100.962 293.436C100.962 293.436 139.783 295.354 143.643 290.735L126.335 282.444C126.335 282.444 112.923 283.295 111.395 283.635C109.867 283.975 97.4736 286.868 97.4736 286.868" fill="#0FA379"/>
</g>
<path fill-rule="evenodd" clip-rule="evenodd" d="M100.962 293.436C123.599 306.614 142.586 291.765 142.586 291.765C120.106 284.239 112.969 289.069 100.962 293.436Z" stroke="black" stroke-width="0.6"/>
<path d="M112.362 310.306C134.999 323.484 150.518 309.943 150.518 309.943C128.038 302.417 124.369 305.939 112.362 310.306Z" fill="#1AB995"/>
<mask id="mask7_18_1019" style="mask-type:luminance" maskUnits="userSpaceOnUse" x="112" y="305" width="39" height="12">
<path fill-rule="evenodd" clip-rule="evenodd" d="M112.362 310.306C134.999 323.484 150.518 309.943 150.518 309.943C128.038 302.417 124.369 305.939 112.362 310.306Z" fill="white"/>
</mask>
<g mask="url(#mask7_18_1019)">
<path d="M103.02 315.514L112.362 310.306C112.362 310.306 135.994 314.076 150.518 309.943C165.043 305.81 150.518 314.657 150.518 314.657L114.564 321.69" fill="#0FA379"/>
</g>
<path fill-rule="evenodd" clip-rule="evenodd" d="M112.362 310.306C134.999 323.484 150.518 309.943 150.518 309.943C128.038 302.417 124.369 305.939 112.362 310.306Z" stroke="black" stroke-width="0.6"/>
<path d="M120.792 325.626C140.98 342.328 158.024 334.367 158.024 334.367C144.835 322.554 133.349 323.281 120.792 325.626Z" fill="#1AB995"/>
<mask id="mask8_18_1019" style="mask-type:luminance" maskUnits="userSpaceOnUse" x="120" y="324" width="39" height="13">
<path fill-rule="evenodd" clip-rule="evenodd" d="M120.792 325.626C140.98 342.328 158.024 334.367 158.024 334.367C144.835 322.554 133.349 323.281 120.792 325.626Z" fill="white"/>
</mask>
<g mask="url(#mask8_18_1019)">
<path d="M107.362 331.1L120.792 325.626C120.792 325.626 145.61 334.5 158.024 334.367C170.438 334.233 144.896 343.015 144.896 343.015L123.834 339.159" fill="#0FA379"/>
</g>
<path fill-rule="evenodd" clip-rule="evenodd" d="M120.792 325.626C140.98 342.328 158.024 334.367 158.024 334.367C144.835 322.554 133.349 323.281 120.792 325.626Z" stroke="black" stroke-width="0.6"/>
<path d="M119.712 261.287C123.519 264.129 126.947 267.459 130.048 271.063L131.197 272.43C131.58 272.885 131.969 273.336 132.316 273.819L134.461 276.673C135.803 278.637 137.172 280.589 138.383 282.639C140.859 286.708 143.092 290.921 145.071 295.254C147.065 299.577 148.895 303.979 150.507 308.459C153.783 317.399 156.512 326.553 158.472 335.871C159.446 340.531 160.297 345.215 160.953 349.927C161.288 352.282 161.577 354.643 161.846 357.005C162.071 359.373 162.307 361.738 162.411 364.116C162.411 364.116 159.759 366.705 159.855 362.779C160.138 351.238 157.973 341.657 156.707 336.266C154.53 327.067 152.213 317.89 149.143 308.945C147.629 304.467 145.897 300.066 144 295.74C142.12 291.405 139.985 287.186 137.607 283.104C136.457 281.039 135.15 279.072 133.868 277.088L131.812 274.204C131.48 273.714 131.106 273.258 130.737 272.797L129.632 271.412C126.646 267.757 123.324 264.361 119.604 261.431L119.712 261.287Z" fill="#1AB995" stroke="black" stroke-width="0.6"/>
<path d="M119.913 261.694C117.252 236.138 94.8105 229.286 94.8105 229.286C102.912 256.183 109.631 259.324 119.913 261.694Z" fill="#1AB995"/>
<mask id="mask9_18_1019" style="mask-type:luminance" maskUnits="userSpaceOnUse" x="94" y="229" width="26" height="33">
<path fill-rule="evenodd" clip-rule="evenodd" d="M119.913 261.694C117.252 236.138 94.8105 229.286 94.8105 229.286C102.912 256.183 109.631 259.324 119.913 261.694Z" fill="white"/>
</mask>
<g mask="url(#mask9_18_1019)">
<path d="M72.3477 229.286H94.811C94.811 229.286 108.917 250.872 119.914 261.694C130.91 272.516 91.7016 261.694 91.7016 261.694L81.8548 243.992" fill="#0FA379"/>
</g>
<path fill-rule="evenodd" clip-rule="evenodd" d="M119.913 261.694C117.252 236.138 94.8105 229.286 94.8105 229.286C102.912 256.183 109.631 259.324 119.913 261.694Z" stroke="black" stroke-width="0.6"/>
<path d="M111.018 247.632V248.828" stroke="black" stroke-width="0.6"/>
<path d="M146.678 270.973L146.29 272.172" stroke="black" stroke-width="0.6"/>
<path d="M121.163 294.463L125.534 294.907" stroke="black" stroke-width="0.6"/>
<path d="M104.852 272.947H106.045" stroke="black" stroke-width="0.6"/>
<path d="M159.748 291.685V292.084" stroke="black" stroke-width="0.6"/>
<path d="M130.312 310.422H131.107" stroke="black" stroke-width="0.6"/>
<path d="M139.045 330.383L141.437 331.97" stroke="black" stroke-width="0.6"/>
<path d="M172.08 316.402L171.683 316.801" stroke="black" stroke-width="0.6"/>
<path d="M274.71 210.831C266.284 211.938 257.34 214.338 248.559 218.807C245.056 232.798 241.569 248.929 233.867 228.577C211.472 247.482 193.007 284.319 191.483 353.89C226.596 290.625 259.276 283.433 284.873 264.203C275.456 254.868 259.841 248.713 259.841 248.713C259.841 248.713 275.927 250.144 291.343 258.906C296.993 253.85 301.919 248.037 305.981 241.633C299.483 235.442 291.085 231.734 291.085 231.734C291.085 231.734 299.892 232.378 309.666 235.35C312.789 229.552 315.695 222.85 318.366 214.972C318.366 214.972 305.962 210.397 288.908 210.063C280.223 218.601 268.887 225.528 274.71 210.831Z" fill="#1AB995"/>
<mask id="mask10_18_1019" style="mask-type:luminance" maskUnits="userSpaceOnUse" x="191" y="210" width="128" height="144">
<path fill-rule="evenodd" clip-rule="evenodd" d="M274.71 210.831C266.284 211.938 257.34 214.338 248.559 218.807C245.056 232.798 241.569 248.929 233.867 228.577C211.472 247.482 193.007 284.319 191.483 353.89C226.596 290.625 259.276 283.433 284.873 264.203C275.456 254.868 259.841 248.713 259.841 248.713C259.841 248.713 275.927 250.144 291.343 258.906C296.993 253.85 301.919 248.037 305.981 241.633C299.483 235.442 291.085 231.734 291.085 231.734C291.085 231.734 299.892 232.378 309.666 235.35C312.789 229.552 315.695 222.85 318.366 214.972C318.366 214.972 305.962 210.397 288.908 210.063C280.223 218.601 268.887 225.528 274.71 210.831Z" fill="white"/>
</mask>
<g mask="url(#mask10_18_1019)">
<path d="M344.816 225.29L318.366 214.973C318.366 214.973 223.787 220.179 191.483 353.89C159.179 487.602 254.083 372.386 254.083 372.386L279.077 304.897L324.781 229.902" fill="#0FA379"/>
</g>
<path fill-rule="evenodd" clip-rule="evenodd" d="M274.71 210.831C266.284 211.938 257.34 214.338 248.559 218.807C245.056 232.798 241.569 248.929 233.867 228.577C211.472 247.482 193.007 284.319 191.483 353.89C226.596 290.625 259.276 283.433 284.873 264.203C275.456 254.868 259.841 248.713 259.841 248.713C259.841 248.713 275.927 250.144 291.343 258.906C296.993 253.85 301.919 248.037 305.981 241.633C299.483 235.442 291.085 231.734 291.085 231.734C291.085 231.734 299.892 232.378 309.666 235.35C312.789 229.552 315.695 222.85 318.366 214.972C318.366 214.972 305.962 210.397 288.908 210.063C280.223 218.601 268.887 225.528 274.71 210.831Z" stroke="black" stroke-width="0.6"/>
<path d="M210.752 290.639C211.428 286.397 213.244 282.418 216.006 279.129" stroke="black" stroke-width="0.6"/>
<path d="M278.603 233.045L281.517 232.612" stroke="black" stroke-width="0.6"/>
<path d="M219.561 314.134C222.957 313.603 225.588 325.76 236.136 331.199C241.838 328.632 247.787 325.119 253.592 320.951C239.837 318.31 227.567 309.173 229.981 308.251C232.714 307.208 238.104 316.109 257.093 318.344C268.476 309.567 278.977 298.455 285.541 287.331C274.021 292.177 241.36 297.159 249.941 288.836C254.238 284.669 261.288 298.731 287.154 284.449C289.054 280.847 290.514 277.264 291.426 273.781C282.105 276.46 268.574 281.112 269.167 277.069C270.299 269.355 279.489 276.462 292.059 270.876C292.62 267.664 292.676 264.558 292.136 261.625C284.963 257.663 278.051 254.555 271.423 252.186C256.754 260.033 258.168 276.645 253.61 274.569C248.433 272.21 258.633 258.13 268.553 251.199C265.589 250.223 262.685 249.394 259.842 248.713C247.659 256.814 245.77 275.974 239.815 278.687C233.038 281.774 230.174 269.587 257.384 247.881C253.588 247.167 247.287 246.442 243.734 246.206C220.972 254.268 226.436 280.411 223.524 280.71C220.409 281.029 221.531 254.078 241.773 246.1C236.132 245.837 230.48 246.188 224.916 247.145C204.482 260.885 215.062 284.799 211.783 285.894C208.38 287.031 196.627 264.132 219.657 248.27C209.291 250.912 200.715 255.667 194.206 261.392C187.818 276.121 208.689 289.187 202.683 290.928C195.408 293.037 190.064 274.996 190.221 265.29C186.6 269.241 183.873 273.493 182.117 277.737C182.187 289.968 194.245 289.251 194.245 296.02C194.245 297.3 185.02 294.664 179.846 290.249C180.545 299.915 187.648 307.607 202.316 308.619C198.657 335.898 213.957 340.007 232.946 332.546C223.815 325.301 216.441 314.623 219.561 314.134Z" fill="#1AB995"/>
<path d="M238.568 290.928C239.905 290.928 240.988 291.459 240.988 292.114C240.988 292.769 239.905 293.3 238.568 293.3C237.232 293.3 236.148 292.769 236.148 292.114C236.148 291.459 237.232 290.928 238.568 290.928Z" fill="#1AB995"/>
<path d="M220.085 288.459C220.301 287.137 221.235 286.19 222.17 286.343C223.105 286.497 223.687 287.693 223.471 289.015C223.255 290.337 222.322 291.284 221.387 291.13C220.452 290.976 219.869 289.78 220.085 288.459Z" fill="#1AB995"/>
<path d="M215.233 295.197C215.017 296.519 214.231 297.49 213.478 297.366C212.724 297.242 212.288 296.07 212.505 294.749C212.721 293.427 213.507 292.456 214.26 292.579C215.014 292.703 215.449 293.875 215.233 295.197Z" fill="#1AB995"/>
<path d="M173.983 262.354C210.546 239.786 233.412 256.277 210.49 288.446C187.568 320.616 227.539 288.873 239.603 284.012C239.603 284.012 191.491 320.211 240.152 308.073C288.814 295.934 250.17 337.493 250.17 337.493C250.17 337.493 180.714 350.69 176.931 350.147C173.148 349.604 172.357 273.728 172.357 273.728" fill="#0FA379"/>
<path d="M163.353 339.484L187.386 322.882C187.386 322.882 222.11 282.994 290.268 262.341L308.285 259.214L319.29 312.037L272.776 343.558L213.95 348.549L185.682 348.204" fill="#1AB995"/>
<path d="M163.353 339.484L187.386 322.882C187.386 322.882 222.11 282.994 290.268 262.341V262.341L308.285 259.214L319.29 312.037L272.776 343.558L213.95 348.549L185.682 348.204" stroke="black" stroke-width="0.6"/>
<path fill-rule="evenodd" clip-rule="evenodd" d="M219.561 314.134C222.957 313.603 225.588 325.76 236.136 331.199C241.838 328.632 247.787 325.119 253.592 320.951C239.837 318.31 227.567 309.173 229.981 308.251C232.714 307.208 238.104 316.109 257.093 318.344C268.476 309.567 278.977 298.455 285.541 287.331C274.021 292.177 241.36 297.159 249.941 288.836C254.238 284.669 261.288 298.731 287.154 284.449C289.054 280.847 290.514 277.264 291.426 273.781C282.105 276.46 268.574 281.112 269.167 277.069C270.299 269.355 279.489 276.462 292.059 270.876C292.62 267.664 292.676 264.558 292.136 261.625C284.963 257.663 278.051 254.555 271.423 252.186C256.754 260.033 258.168 276.645 253.61 274.569C248.433 272.21 258.633 258.13 268.553 251.199C265.589 250.223 262.685 249.394 259.842 248.713C247.659 256.814 245.77 275.974 239.815 278.687C233.038 281.774 230.174 269.587 257.384 247.881C253.588 247.167 247.287 246.442 243.734 246.206C220.972 254.268 226.436 280.411 223.524 280.71C220.409 281.029 221.531 254.078 241.773 246.1C236.132 245.837 230.48 246.188 224.916 247.145C204.482 260.885 215.062 284.799 211.783 285.894C208.38 287.031 196.627 264.132 219.657 248.27C209.291 250.912 200.715 255.667 194.206 261.392C187.818 276.121 208.689 289.187 202.683 290.928C195.408 293.037 190.064 274.996 190.221 265.29C186.6 269.241 183.873 273.493 182.117 277.737C182.187 289.968 194.245 289.251 194.245 296.02C194.245 297.3 185.02 294.664 179.846 290.249C180.545 299.915 187.648 307.607 202.316 308.619C198.657 335.898 213.957 340.007 232.946 332.546C223.815 325.301 216.441 314.623 219.561 314.134Z" stroke="black" stroke-width="0.6"/>
<path fill-rule="evenodd" clip-rule="evenodd" d="M238.568 290.928C239.905 290.928 240.988 291.459 240.988 292.114C240.988 292.769 239.905 293.3 238.568 293.3C237.232 293.3 236.148 292.769 236.148 292.114C236.148 291.459 237.232 290.928 238.568 290.928Z" stroke="black" stroke-width="0.6"/>
<path fill-rule="evenodd" clip-rule="evenodd" d="M220.085 288.459C220.301 287.137 221.235 286.19 222.17 286.343C223.105 286.497 223.687 287.693 223.471 289.015C223.255 290.337 222.322 291.284 221.387 291.13C220.452 290.976 219.869 289.78 220.085 288.459Z" stroke="black" stroke-width="0.6"/>
<path fill-rule="evenodd" clip-rule="evenodd" d="M215.233 295.197C215.017 296.519 214.231 297.49 213.478 297.366C212.724 297.242 212.288 296.07 212.505 294.749C212.721 293.427 213.507 292.456 214.26 292.579C215.014 292.703 215.449 293.875 215.233 295.197Z" stroke="black" stroke-width="0.6"/>
<path d="M245.765 305.268C246.904 306.174 248.267 306.754 249.709 306.946" stroke="black" stroke-width="0.6"/>
<path d="M270.584 259.898C269.285 260.733 268.213 261.877 267.466 263.228" stroke="black" stroke-width="0.6"/>
<path d="M221.281 262.595C220.651 263.861 220.376 265.275 220.484 266.685" stroke="black" stroke-width="0.6"/>
<path d="M204.82 312.964L204.467 314.027" stroke="black" stroke-width="0.6"/>
<path d="M167.4 324.368L160.419 298.289C152.966 292.894 144.882 287.377 136.297 282.002L142.514 304.173L129.266 277.703C120.156 272.263 110.559 267.049 100.621 262.351L105.593 280.081L95.5494 260.013C83.1604 254.444 70.2951 249.731 57.2311 246.417L64.3801 271.913L50.8725 244.924C35.7318 241.638 20.3892 240.331 5.27337 241.831L9.24495 255.996L2.31947 242.158C-5.31477 243.092 -12.8356 244.793 -20.1289 247.235C-20.1289 247.235 -12.7736 257.848 1.30892 272.077L21.8623 270.057L7.44724 278.086C16.1521 286.347 25.3965 294.019 35.1193 301.052L51.3588 292.492L40.0769 304.543C45.6563 308.378 51.6025 312.141 57.9076 315.734L68.5917 310.103L61.4615 317.719C70.1097 322.466 79.053 326.653 88.2365 330.255L112.167 319.196L95.6328 332.998C105.178 336.349 114.95 339.018 124.874 340.983L143.241 332.495L131.613 342.201C155.489 346.113 181.92 346.196 210.721 340.317C210.721 340.317 193.857 323.344 167.407 303.446L167.4 324.368Z" fill="#1AB995"/>
<mask id="mask11_18_1019" style="mask-type:luminance" maskUnits="userSpaceOnUse" x="-21" y="241" width="232" height="104">
<path fill-rule="evenodd" clip-rule="evenodd" d="M167.4 324.368L160.419 298.289C152.966 292.894 144.882 287.377 136.297 282.002L142.514 304.173L129.266 277.703C120.156 272.263 110.559 267.049 100.621 262.351L105.593 280.081L95.5494 260.013C83.1604 254.444 70.2951 249.731 57.2311 246.417L64.3801 271.913L50.8725 244.924C35.7318 241.638 20.3892 240.331 5.27337 241.831L9.24495 255.996L2.31947 242.158C-5.31477 243.092 -12.8356 244.793 -20.1289 247.235C-20.1289 247.235 -12.7736 257.848 1.30892 272.077L21.8623 270.057L7.44724 278.086C16.1521 286.347 25.3965 294.019 35.1193 301.052L51.3588 292.492L40.0769 304.543C45.6563 308.378 51.6025 312.141 57.9076 315.734L68.5917 310.103L61.4615 317.719C70.1097 322.466 79.053 326.653 88.2365 330.255L112.167 319.196L95.6328 332.998C105.178 336.349 114.95 339.018 124.874 340.983L143.241 332.495L131.613 342.201C155.489 346.113 181.92 346.196 210.721 340.317C210.721 340.317 193.857 323.344 167.407 303.446L167.4 324.368Z" fill="white"/>
</mask>
<g mask="url(#mask11_18_1019)">
<path d="M54.5695 179.602L-20.1289 247.236C-20.1289 247.236 115.423 322.628 210.721 340.318C306.018 358.007 249.192 266.281 249.192 266.281L76.7323 214.653L51.2808 211.688" fill="#1AB995"/>
<mask id="mask12_18_1019" style="mask-type:luminance" maskUnits="userSpaceOnUse" x="-21" y="179" width="288" height="164">
<path fill-rule="evenodd" clip-rule="evenodd" d="M54.5695 179.602L-20.1289 247.236C-20.1289 247.236 115.423 322.628 210.721 340.318C306.018 358.007 249.192 266.281 249.192 266.281L76.7323 214.653L51.2808 211.688" fill="white"/>
</mask>
<g mask="url(#mask12_18_1019)">
<path d="M112.168 319.196C180.984 336.586 85.379 255.856 114.398 265.727C143.416 275.599 226.845 326.067 226.845 326.067L224.831 357.831L128.656 339.236" fill="#0FA379"/>
</g>
<path d="M54.5695 179.602L-20.1289 247.236C-20.1289 247.236 115.423 322.628 210.721 340.318C306.018 358.007 249.192 266.281 249.192 266.281L76.7323 214.653L51.2808 211.688" stroke="black" stroke-width="0.6"/>
<path d="M-47.0743 420.955C-64.6735 352.519 -27.7667 324.561 11.48 376.205C50.7266 427.848 20.416 349.604 18.6564 328.278C18.6564 328.278 51.9948 421.484 56.5908 339.082C61.1867 256.68 107.507 337.597 107.507 337.597C107.507 337.597 94.4846 453.211 91.7998 458.896C89.115 464.582 -30.0558 429.027 -30.0558 429.027" fill="#0FA379"/>
</g>
<path fill-rule="evenodd" clip-rule="evenodd" d="M167.4 324.368L160.419 298.289C152.966 292.894 144.882 287.377 136.297 282.002L142.514 304.173L129.266 277.703C120.156 272.263 110.559 267.049 100.621 262.351L105.593 280.081L95.5494 260.013C83.1604 254.444 70.2951 249.731 57.2311 246.417L64.3801 271.913L50.8725 244.924C35.7318 241.638 20.3892 240.331 5.27337 241.831L9.24495 255.996L2.31947 242.158C-5.31477 243.092 -12.8356 244.793 -20.1289 247.235C-20.1289 247.235 -12.7736 257.848 1.30892 272.077L21.8623 270.057L7.44724 278.086C16.1521 286.347 25.3965 294.019 35.1193 301.052L51.3588 292.492L40.0769 304.543C45.6563 308.378 51.6025 312.141 57.9076 315.734L68.5917 310.103L61.4615 317.719C70.1097 322.466 79.053 326.653 88.2365 330.255L112.167 319.196L95.6328 332.998C105.178 336.349 114.95 339.018 124.874 340.983L143.241 332.495L131.613 342.201C155.489 346.113 181.92 346.196 210.721 340.317C210.721 340.317 193.857 323.344 167.407 303.446L167.4 324.368Z" stroke="black" stroke-width="0.6"/>
<path d="M123.53 299.5C123.294 296.203 122.603 292.954 121.479 289.846" stroke="black" stroke-width="0.6"/>
<path d="M60.2236 301.184L62.2621 300.771" stroke="black" stroke-width="0.6"/>
<path d="M36.2293 262.638C35.889 259.819 34.6848 257.175 32.7822 255.068" stroke="black" stroke-width="0.6"/>
<path d="M212.588 339.93L232.52 348.42C239.62 346.364 247.109 343.967 254.757 341.184L237.672 334.145L260.955 338.852C268.903 335.767 276.951 332.261 284.842 328.284L271.179 322.655L288.831 326.224C298.485 321.122 307.835 315.294 316.4 308.648L296.753 300.554L320.493 305.353C330.068 297.375 338.494 288.288 345.033 277.955L334.119 273.458L346.29 275.919C349.482 270.613 352.133 264.999 354.203 259.162C354.203 259.162 343.855 258.571 327.892 260.457L318.987 274.498L321.056 261.376C311.524 262.806 302.099 264.871 292.841 267.556L290.204 282.099L288.18 268.972C282.994 270.612 277.672 272.52 272.279 274.741L270.544 284.309L269.265 276.012C261.981 279.148 254.906 282.748 248.083 286.79L243.214 307.45L242.687 290.124C235.84 294.52 229.314 299.398 223.158 304.72L219.422 320.577L219.051 308.392C204.752 321.602 191.607 338.33 181.055 359.514C181.055 359.514 200.13 357.223 225.801 350.298L212.588 339.93Z" fill="#1AB995"/>
<mask id="mask13_18_1019" style="mask-type:luminance" maskUnits="userSpaceOnUse" x="181" y="259" width="174" height="101">
<path fill-rule="evenodd" clip-rule="evenodd" d="M212.588 339.93L232.52 348.42C239.62 346.364 247.109 343.967 254.757 341.184L237.672 334.145L260.955 338.852C268.903 335.767 276.951 332.261 284.842 328.284L271.179 322.655L288.831 326.224C298.485 321.122 307.835 315.294 316.4 308.648L296.753 300.554L320.493 305.353C330.068 297.375 338.494 288.288 345.033 277.955L334.119 273.458L346.29 275.919C349.482 270.613 352.133 264.999 354.203 259.162C354.203 259.162 343.855 258.571 327.892 260.457L318.987 274.498L321.056 261.376C311.524 262.806 302.099 264.871 292.841 267.556L290.204 282.099L288.18 268.972C282.994 270.612 277.672 272.52 272.279 274.741L270.544 284.309L269.265 276.012C261.981 279.148 254.906 282.748 248.083 286.79L243.214 307.45L242.687 290.124C235.84 294.52 229.314 299.398 223.158 304.72L219.422 320.577L219.051 308.392C204.752 321.602 191.607 338.33 181.055 359.514C181.055 359.514 200.13 357.223 225.801 350.298L212.588 339.93Z" fill="white"/>
</mask>
<g mask="url(#mask13_18_1019)">
<path d="M359.924 340.056L354.203 259.162C354.203 259.162 239.434 307.816 181.055 359.514C122.675 411.212 208.764 420.596 208.764 420.596L326.805 336.754L341.284 322.075" fill="#1AB995"/>
<mask id="mask14_18_1019" style="mask-type:luminance" maskUnits="userSpaceOnUse" x="160" y="259" width="200" height="162">
<path fill-rule="evenodd" clip-rule="evenodd" d="M359.924 340.056L354.203 259.162C354.203 259.162 239.434 307.816 181.055 359.514C122.675 411.212 208.764 420.596 208.764 420.596L326.805 336.754L341.284 322.075" fill="white"/>
</mask>
<g mask="url(#mask14_18_1019)">
<path d="M243.215 307.45C198.142 342.496 296.495 321.83 275.885 335.351C255.275 348.871 182.069 376.802 182.069 376.802L163.003 359.791L222.389 307.985" fill="#0FA379"/>
</g>
<path d="M359.924 340.056L354.203 259.162C354.203 259.162 239.434 307.816 181.055 359.514C122.675 411.212 208.764 420.596 208.764 420.596L326.805 336.754L341.284 322.075" stroke="black" stroke-width="0.6"/>
<path d="M257.816 156.015C309.764 178.749 309.142 216.013 257.079 215.331C205.017 214.649 269.456 234.177 283.799 243.625C283.799 243.625 208.408 218.606 258.183 262.34C307.958 306.073 233.9 295.379 233.9 295.379C233.9 295.379 167.32 229.848 165.059 225.328C162.798 220.809 244.287 162.813 244.287 162.813" fill="#0FA379"/>
</g>
<path fill-rule="evenodd" clip-rule="evenodd" d="M212.588 339.93L232.52 348.42C239.62 346.364 247.109 343.967 254.757 341.184L237.672 334.145L260.955 338.852C268.903 335.767 276.951 332.261 284.842 328.284L271.179 322.655L288.831 326.224C298.485 321.122 307.835 315.294 316.4 308.648L296.753 300.554L320.493 305.353C330.068 297.375 338.494 288.288 345.033 277.955L334.119 273.458L346.29 275.919C349.482 270.613 352.133 264.999 354.203 259.162C354.203 259.162 343.856 258.571 327.892 260.457L318.987 274.498L321.056 261.376C311.524 262.806 302.099 264.871 292.841 267.556L290.204 282.099L288.18 268.972C282.994 270.612 277.672 272.52 272.279 274.741L270.544 284.309L269.265 276.012C261.981 279.148 254.906 282.748 248.083 286.79L243.214 307.45L242.687 290.124C235.84 294.52 229.314 299.398 223.158 304.72L219.422 320.577L219.051 308.392C204.752 321.602 191.607 338.33 181.055 359.514C181.055 359.514 200.13 357.223 225.801 350.298L212.588 339.93Z" stroke="black" stroke-width="0.6"/>
<path d="M250.027 324.417C252.227 325.9 254.621 327.071 257.142 327.898" stroke="black" stroke-width="0.6"/>
<path d="M280.323 283.418L279.574 284.916" stroke="black" stroke-width="0.6"/>
<path d="M316.557 287.289C318.506 288.469 320.773 289.015 323.046 288.852" stroke="black" stroke-width="0.6"/>
<rect x="12.8447" y="341.558" width="370.955" height="22.6293" fill="url(#paint0_linear_18_1019)"/>
<rect x="162.437" y="336.709" width="71.7718" height="29.903" fill="#7A24EA" stroke="black" stroke-width="0.6"/>
<path d="M30.2845 348.404L6.4502 332.599L46.0546 285.545C92.648 291.292 120.17 249.282 199.738 295.259L198.44 345.666L73.6523 333.645L30.2845 348.404Z" fill="white" stroke="black" stroke-width="0.6"/>
<path d="M-8.22559 364.652L-1.23658 346.693H1.63071L6.82767 332.684C60.0517 333.729 146.49 279.659 198.818 345.751C198.818 345.751 174.385 354.954 172.593 364.652C110.946 351.003 46.7905 368.604 -8.22559 364.652Z" fill="white"/>
<mask id="mask15_18_1019" style="mask-type:luminance" maskUnits="userSpaceOnUse" x="-9" y="312" width="208" height="54">
<path fill-rule="evenodd" clip-rule="evenodd" d="M-8.22559 364.652L-1.23658 346.693H1.63071L6.82767 332.684C60.0517 333.729 146.49 279.659 198.818 345.751C198.818 345.751 174.385 354.954 172.593 364.652C110.946 351.003 46.7905 368.604 -8.22559 364.652Z" fill="white"/>
</mask>
<g mask="url(#mask15_18_1019)">
<path d="M-8.22541 351.66C-8.78192 360.976 119.117 357.795 116.253 359.385C113.39 360.976 40.9911 373.123 39.9159 373.907C38.8406 374.691 -2.01823 369.597 -2.01823 369.597L-11.3369 348.404" fill="#D6DCF2"/>
</g>
<path fill-rule="evenodd" clip-rule="evenodd" d="M-8.22559 364.652L-1.23658 346.693H1.63071L6.82767 332.684C60.0517 333.729 146.49 279.659 198.818 345.751C198.818 345.751 174.385 354.954 172.593 364.652C110.946 351.003 46.7905 368.604 -8.22559 364.652Z" stroke="black" stroke-width="0.6"/>
<path d="M51.7889 292.011L29.9258 322.542C137.091 292.37 177.95 307.456 194.436 329.726L195.87 300.99C132.79 266.149 94.8878 293.447 51.7889 292.011Z" fill="#D6DCF2"/>
<path d="M43.9043 338.425C82.9711 323.698 154.295 308.33 185.477 338.425C185.477 338.425 147.664 304.289 43.9043 338.425Z" fill="#D6DCF2"/>
<path d="M32.8828 351.446C71.9496 345.217 143.273 338.718 174.455 351.446C174.455 351.446 136.643 337.009 32.8828 351.446Z" fill="#D6DCF2"/>
<path d="M366.361 348.404L390.196 332.599L350.591 285.545C303.998 291.292 276.475 249.282 196.908 295.259L198.206 345.666L322.994 333.645L366.361 348.404Z" fill="white"/>
<mask id="mask16_18_1019" style="mask-type:luminance" maskUnits="userSpaceOnUse" x="196" y="273" width="195" height="76">
<path fill-rule="evenodd" clip-rule="evenodd" d="M366.361 348.404L390.196 332.6L350.591 285.545C303.998 291.292 276.475 249.283 196.908 295.26L198.206 345.666L322.994 333.645L366.361 348.404Z" fill="white"/>
</mask>
<g mask="url(#mask16_18_1019)">
<path d="M243.464 315.71C248.943 307.971 210.048 351.446 210.048 351.446H174.456L189.429 323.988" fill="white"/>
<path d="M243.464 315.71C248.943 307.971 210.048 351.446 210.048 351.446H174.456L189.429 323.988" stroke="black" stroke-width="0.6"/>
</g>
<path fill-rule="evenodd" clip-rule="evenodd" d="M366.361 348.404L390.196 332.599L350.591 285.545C303.998 291.292 276.475 249.282 196.908 295.259L198.206 345.666L322.994 333.645L366.361 348.404Z" stroke="black" stroke-width="0.6"/>
<path d="M404.871 364.652L397.882 346.693H395.015L389.818 332.684C336.594 333.729 250.156 279.659 197.828 345.751C197.828 345.751 222.261 354.954 224.053 364.652C285.7 351.003 349.855 368.604 404.871 364.652Z" fill="white" stroke="black" stroke-width="0.6"/>
<path d="M344.857 292.011L366.72 322.542C259.555 292.37 218.696 307.456 202.209 329.726L200.775 300.99C263.856 266.149 301.758 293.447 344.857 292.011Z" fill="#D6DCF2"/>
<path d="M352.741 338.425C313.674 323.698 242.351 308.33 211.169 338.425C211.169 338.425 248.981 304.289 352.741 338.425Z" fill="#D6DCF2"/>
<path d="M363.763 351.446C324.696 345.217 253.372 338.718 222.19 351.446C222.19 351.446 260.003 337.009 363.763 351.446Z" fill="#D6DCF2"/>
<path d="M154.998 194.186L117.365 221.125C117.365 221.125 197.994 283.21 197.456 348.404L198.008 300.328C198.008 300.328 208.76 236.211 154.998 194.186Z" fill="white" stroke="black" stroke-width="0.6"/>
<path d="M156.342 205.77L129.043 225.627C129.043 225.627 180.804 273.388 194.782 311.642L196.663 283.625C196.663 283.625 176.772 221.664 156.342 205.77Z" fill="#D6DCF2"/>
<path d="M405.428 360.976H226.491C224.998 360.979 223.614 361.759 222.838 363.036H173.807C173.031 361.759 171.647 360.979 170.154 360.976H-8.78255C-11.1583 360.98 -13.082 362.909 -13.082 365.286C-13.082 367.664 -11.1583 369.593 -8.78255 369.597H168.7C169.376 372.136 171.672 373.904 174.298 373.907H222.347C224.973 373.904 227.269 372.136 227.945 369.597H405.428C407.803 369.593 409.727 367.664 409.727 365.286C409.727 362.909 407.803 360.98 405.428 360.976V360.976Z" fill="#E43334" stroke="black" stroke-width="0.6"/>
<path d="M223.688 371.54C222.295 371.537 221.13 370.482 220.988 369.096C219.9 358.583 210.13 350.654 198.263 350.654C186.873 350.654 177.149 358.227 175.642 368.267C175.5 369.23 174.855 370.044 173.949 370.4C173.044 370.757 172.018 370.602 171.258 369.995C170.498 369.388 170.12 368.42 170.267 367.458C172.17 354.772 184.205 345.205 198.263 345.205C212.925 345.205 225.019 355.235 226.395 368.534C226.551 370.029 225.466 371.368 223.972 371.525C223.878 371.535 223.783 371.54 223.688 371.54Z" fill="#E43334" stroke="black" stroke-width="0.6"/>
<path d="M92.755 298.555L91.8672 299.444" stroke="black" stroke-width="0.6"/>
<path d="M269.369 338.313L276.526 336.788" stroke="black" stroke-width="0.6"/>
<path d="M259.62 294.812C268.165 292.801 277.088 293.075 285.494 295.607" stroke="black" stroke-width="0.6"/>
<ellipse cx="150.368" cy="81.2283" rx="6.50796" ry="6.5222" fill="#485065" stroke="black" stroke-width="0.6"/>
<ellipse cx="140.306" cy="90.984" rx="12.9996" ry="9.5367" fill="#485065" stroke="black" stroke-width="0.6"/>
<path d="M88.4311 64.6264C87.0004 65.1106 85.8907 72.0904 86.2996 73.417C86.7386 74.8411 102.727 95.9469 102.727 95.9469C102.727 95.9469 122.263 116.503 122.206 116.054C122.15 115.604 125.593 105.127 125.593 105.127L107.491 90.0705L90.5265 72.1857C90.5265 72.1857 93.0683 59.7215 91.9352 58.8594C90.802 57.9974 89.6802 66.5392 89.0716 66.8896C88.463 67.2399 89.4315 64.3029 88.4311 64.6264Z" fill="#F9C1BB"/>
<mask id="mask17_18_1019" style="mask-type:luminance" maskUnits="userSpaceOnUse" x="86" y="58" width="40" height="59">
<path fill-rule="evenodd" clip-rule="evenodd" d="M88.4311 64.6264C87.0004 65.1106 85.8907 72.0904 86.2996 73.417C86.7386 74.8411 102.727 95.9469 102.727 95.9469C102.727 95.9469 122.263 116.503 122.206 116.054C122.15 115.604 125.593 105.127 125.593 105.127L107.491 90.0705L90.5265 72.1857C90.5265 72.1857 93.0683 59.7215 91.9352 58.8594C90.802 57.9974 89.6802 66.5392 89.0716 66.8896C88.463 67.2399 89.4315 64.3029 88.4311 64.6264Z" fill="white"/>
</mask>
<g mask="url(#mask17_18_1019)">
<path d="M105.066 106.721C104.418 102.492 111.271 93.7505 111.271 93.7505L116.32 98.6779L112.677 104.618L106.604 106.721" fill="#ED707B"/>
</g>
<path fill-rule="evenodd" clip-rule="evenodd" d="M88.4311 64.6264C87.0004 65.1106 85.8907 72.0904 86.2996 73.417C86.7386 74.8411 102.727 95.9469 102.727 95.9469C102.727 95.9469 122.263 116.503 122.206 116.054C122.15 115.604 125.593 105.127 125.593 105.127L107.491 90.0705L90.5265 72.1857C90.5265 72.1857 93.0683 59.7215 91.9352 58.8594C90.802 57.9974 89.6802 66.5392 89.0716 66.8896C88.463 67.2399 89.4315 64.3029 88.4311 64.6264Z" stroke="black" stroke-width="0.6"/>
<path d="M111.966 93.3418C107.852 94.9164 108.109 108.531 108.109 108.531C108.109 108.531 122.648 120.74 128.466 123.628L136.95 111.124C136.95 111.124 121.247 103.284 111.966 93.3418Z" fill="#1A80FD"/>
<mask id="mask18_18_1019" style="mask-type:luminance" maskUnits="userSpaceOnUse" x="108" y="93" width="29" height="31">
<path fill-rule="evenodd" clip-rule="evenodd" d="M111.966 93.3418C107.852 94.9164 108.109 108.531 108.109 108.531C108.109 108.531 122.648 120.74 128.466 123.628L136.95 111.124C136.95 111.124 121.247 103.284 111.966 93.3418Z" fill="white"/>
</mask>
<g mask="url(#mask18_18_1019)">
<path d="M126.199 114.757C121.852 118.776 113.811 113.041 113.811 113.041L124.271 122.539L126.199 114.757Z" fill="#1D62FC"/>
<path d="M117.956 92.657C107.492 90.0707 110.507 116.065 110.507 116.065L98.1992 104.691L107.492 90.0707L113.422 87.8901" fill="white"/>
<path d="M117.956 92.657C107.492 90.0707 110.507 116.065 110.507 116.065L98.1992 104.691L107.492 90.0707L113.422 87.8901" stroke="black" stroke-width="0.6"/>
<path d="M120.709 96.5161C111.641 96.8089 116.823 122.346 116.823 122.346" stroke="white" stroke-width="0.6"/>
</g>
<path fill-rule="evenodd" clip-rule="evenodd" d="M111.966 93.3418C107.852 94.9164 108.109 108.531 108.109 108.531C108.109 108.531 122.648 120.74 128.466 123.628L136.95 111.124C136.95 111.124 121.247 103.284 111.966 93.3418Z" stroke="black" stroke-width="0.6"/>
<path d="M120.441 179.193L149.204 178.981L151.941 187.167L121.687 188.829L120.441 179.193Z" fill="#F9C1BB"/>
<mask id="mask19_18_1019" style="mask-type:luminance" maskUnits="userSpaceOnUse" x="120" y="178" width="32" height="11">
<path fill-rule="evenodd" clip-rule="evenodd" d="M120.441 179.193L149.204 178.981L151.941 187.167L121.687 188.829L120.441 179.193Z" fill="white"/>
</mask>
<g mask="url(#mask19_18_1019)">
<path d="M149.989 189.814C135.235 190.497 143.787 182.714 140.255 179.332C136.722 175.949 134.164 189.754 134.164 189.754L134.819 192.539L145.825 191.328" fill="#ED707B"/>
</g>
<path fill-rule="evenodd" clip-rule="evenodd" d="M120.441 179.193L149.204 178.981L151.941 187.167L121.687 188.829L120.441 179.193V179.193Z" stroke="black" stroke-width="0.6"/>
<path d="M171.269 198.11C171.269 198.11 161.795 200.476 159.799 194.515C157.804 188.554 150.132 188.182 150.132 188.182L143.103 178.743L151.876 177.657C152.97 177.617 154.021 178.082 154.726 178.92L171.269 198.11Z" fill="#485065" stroke="black" stroke-width="0.6"/>
<path d="M140.132 177.981C141.219 186.321 136.147 194.303 136.147 194.303L86.6292 196.531C80.6034 196.802 75.2581 192.692 73.9685 186.795C73.1124 182.881 74.1981 178.795 76.8835 175.823L108.689 140.633L129.626 150.06L115.496 178.706L140.132 177.981Z" fill="#2F387E"/>
<mask id="mask20_18_1019" style="mask-type:luminance" maskUnits="userSpaceOnUse" x="73" y="140" width="68" height="57">
<path fill-rule="evenodd" clip-rule="evenodd" d="M140.132 177.981C141.219 186.321 136.147 194.303 136.147 194.303L86.6292 196.531C80.6034 196.802 75.2581 192.692 73.9685 186.795C73.1124 182.881 74.1981 178.795 76.8835 175.823L108.689 140.633L129.626 150.06L115.496 178.706L140.132 177.981Z" fill="white"/>
</mask>
<g mask="url(#mask20_18_1019)">
<path d="M131.444 171.524C140.721 177.718 124.925 198.574 124.925 198.574" stroke="white" stroke-width="0.6"/>
<path d="M131.07 186.182L93.564 186.354C89.8421 186.371 87.901 181.922 90.4405 179.195L113.961 153.94" stroke="white" stroke-width="0.6"/>
</g>
<path fill-rule="evenodd" clip-rule="evenodd" d="M140.132 177.981C141.219 186.321 136.147 194.303 136.147 194.303L86.6292 196.531C80.6034 196.802 75.2581 192.692 73.9685 186.795V186.795C73.1124 182.881 74.1981 178.795 76.8835 175.823L108.689 140.633L129.626 150.06L115.496 178.706L140.132 177.981Z" stroke="black" stroke-width="0.6"/>
<path d="M97.5412 233.464L95.642 262.189L87.2842 264.32L87.8481 234.001L97.5412 233.464Z" fill="#F9C1BB"/>
<mask id="mask21_18_1019" style="mask-type:luminance" maskUnits="userSpaceOnUse" x="87" y="233" width="11" height="32">
<path fill-rule="evenodd" clip-rule="evenodd" d="M97.5412 233.464L95.642 262.189L87.2842 264.32L87.8481 234.001L97.5412 233.464Z" fill="white"/>
</mask>
<g mask="url(#mask21_18_1019)">
<path d="M79.2666 254.42C91.984 255.147 89.0678 244.533 96.5346 242.15C104.001 239.767 82.2272 240.009 82.2272 240.009L81.1564 247.033" fill="#ED707B"/>
</g>
<path fill-rule="evenodd" clip-rule="evenodd" d="M97.5412 233.464L95.642 262.189L87.2842 264.32L87.8481 234.001L97.5412 233.464V233.464Z" stroke="black" stroke-width="0.6"/>
<path d="M207.386 79.1486C208.788 79.9783 208.41 87.5895 207.684 88.8979C206.905 90.3026 183.763 111.266 183.763 111.266C183.763 111.266 160.053 124.038 160.212 123.576C160.371 123.114 159.192 113.596 159.192 113.596L181.632 101.745L203.498 86.657C203.498 86.657 203.582 72.9403 204.969 72.2833C206.356 71.6264 205.644 80.8883 206.208 81.3937C206.773 81.899 206.403 78.5842 207.386 79.1486Z" fill="#F9C1BB"/>
<mask id="mask22_18_1019" style="mask-type:luminance" maskUnits="userSpaceOnUse" x="159" y="72" width="50" height="52">
<path fill-rule="evenodd" clip-rule="evenodd" d="M207.386 79.1486C208.788 79.9783 208.41 87.5895 207.684 88.8979C206.905 90.3026 183.763 111.266 183.763 111.266C183.763 111.266 160.053 124.038 160.212 123.576C160.371 123.114 159.192 113.596 159.192 113.596L181.632 101.745L203.498 86.657C203.498 86.657 203.582 72.9403 204.969 72.2833C206.356 71.6264 205.644 80.8883 206.208 81.3937C206.773 81.899 206.403 78.5842 207.386 79.1486Z" fill="white"/>
</mask>
<g mask="url(#mask22_18_1019)">
<path d="M179.154 100.521C183.891 108.05 180.328 113.081 180.328 113.081L173.486 109.957L174.782 102.897" fill="#ED707B"/>
</g>
<path fill-rule="evenodd" clip-rule="evenodd" d="M207.386 79.1486C208.788 79.9783 208.41 87.5895 207.684 88.8979C206.905 90.3026 183.763 111.266 183.763 111.266C183.763 111.266 160.053 124.038 160.212 123.576C160.371 123.114 159.192 113.596 159.192 113.596L181.632 101.745L203.498 86.657C203.498 86.657 203.582 72.9403 204.969 72.2833C206.356 71.6264 205.644 80.8883 206.208 81.3937C206.773 81.899 206.403 78.5842 207.386 79.1486Z" stroke="black" stroke-width="0.6"/>
<path d="M106.983 158.254L87.6772 188.206C85.7294 190.848 84.5327 193.969 84.214 197.237L79.2666 247.963C90.86 248.326 99.9174 239.419 99.9174 239.419L104.733 196.544C104.733 196.544 137.305 169.516 135.521 150.063C134.404 137.887 118.341 140.633 118.341 140.633" fill="#2F387E"/>
<mask id="mask23_18_1019" style="mask-type:luminance" maskUnits="userSpaceOnUse" x="79" y="140" width="57" height="108">
<path fill-rule="evenodd" clip-rule="evenodd" d="M106.983 158.254L87.6772 188.206C85.7294 190.848 84.5327 193.969 84.214 197.237L79.2666 247.963C90.86 248.326 99.9174 239.419 99.9174 239.419L104.733 196.544C104.733 196.544 137.305 169.516 135.521 150.063C134.404 137.887 118.341 140.633 118.341 140.633" fill="white"/>
</mask>
<g mask="url(#mask23_18_1019)">
<path d="M118.341 140.633C87.4175 143.249 140.406 148.233 124.821 175.654C109.236 203.075 142.949 168.588 142.949 168.588L140.007 143.858L118.341 140.633Z" fill="#111944"/>
<ellipse cx="88.9672" cy="191.574" rx="4.29142" ry="1.99133" fill="#F9C1BB" stroke="black" stroke-width="0.6"/>
<path d="M73.6816 236.277C96.5344 242.15 103.23 227.513 103.23 227.513" stroke="white" stroke-width="0.6"/>
<path d="M92.4131 236.315L96.5442 193.882C96.6753 192.535 97.1232 191.238 97.8514 190.098L118.005 158.54" stroke="white" stroke-width="0.6"/>
<path d="M116.174 152.046C115.04 160.161 125.593 163.732 125.593 163.732L116.174 152.046Z" fill="#2F387E"/>
<path d="M116.174 152.046C115.04 160.161 125.593 163.732 125.593 163.732" stroke="black" stroke-width="0.6"/>
</g>
<path d="M106.983 158.254L87.6772 188.206C85.7294 190.848 84.5327 193.969 84.214 197.237L79.2666 247.963C90.86 248.326 99.9174 239.419 99.9174 239.419L104.733 196.544C104.733 196.544 137.305 169.516 135.521 150.063C134.404 137.887 118.341 140.633 118.341 140.633" stroke="black" stroke-width="0.6"/>
<path d="M75.1528 282.323C75.1528 282.323 74.1412 271.422 80.2274 269.867C86.3135 268.313 85.8361 262.88 85.8361 262.88L96.5344 256.062L96.1895 265.566C96.1538 266.552 95.6662 267.466 94.8679 268.044L75.1528 282.323Z" fill="#485065" stroke="black" stroke-width="0.6"/>
<path d="M126.203 114.761C123.943 117.952 121.824 122.349 121.844 127.603L103.229 141.705C115.499 150.536 137.434 155.141 137.434 155.141L159.956 113.739C159.956 113.739 143.547 107.565 131.522 109.066" fill="#1A80FD"/>
<mask id="mask24_18_1019" style="mask-type:luminance" maskUnits="userSpaceOnUse" x="103" y="108" width="57" height="48">
<path fill-rule="evenodd" clip-rule="evenodd" d="M126.203 114.761C123.943 117.952 121.824 122.349 121.844 127.603L103.229 141.705C115.499 150.536 137.434 155.141 137.434 155.141L159.956 113.739C159.956 113.739 143.547 107.565 131.522 109.066" fill="white"/>
</mask>
<g mask="url(#mask24_18_1019)">
<path d="M143.527 127.703C154.713 135.494 131.552 157.398 120.414 150.191C109.276 142.984 126.628 167.576 126.628 167.576L157.372 157.591L157.696 140.55L156.401 122.048" fill="#1D62FC"/>
<path d="M135.12 107.199C123.623 116.007 132.5 124.854 147.454 110.211L135.12 107.199Z" fill="white"/>
<path d="M135.12 107.199C123.623 116.007 132.5 124.854 147.454 110.211" stroke="black" stroke-width="0.6"/>
<path d="M104.46 134.681C88.9135 137.277 135.487 153.593 141.134 153.333" stroke="black" stroke-width="0.6"/>
</g>
<path d="M126.203 114.761C123.943 117.952 121.824 122.349 121.844 127.603L103.229 141.705C115.499 150.536 137.434 155.141 137.434 155.141L159.956 113.739C159.956 113.739 143.547 107.565 131.522 109.066" stroke="black" stroke-width="0.6"/>
<path d="M150.596 110.925C150.596 110.925 162.302 111.732 178.73 102.304C182.489 108.941 180.909 114.906 180.909 114.906C180.909 114.906 156.86 129.756 147.025 128.339C146.003 128.209 145 127.958 144.036 127.593" fill="#1A80FD"/>
<mask id="mask25_18_1019" style="mask-type:luminance" maskUnits="userSpaceOnUse" x="144" y="102" width="38" height="27">
<path fill-rule="evenodd" clip-rule="evenodd" d="M150.596 110.925C150.596 110.925 162.302 111.732 178.73 102.304C182.489 108.941 180.909 114.906 180.909 114.906C180.909 114.906 156.86 129.756 147.025 128.339C146.003 128.209 145 127.958 144.036 127.593" fill="white"/>
</mask>
<g mask="url(#mask25_18_1019)">
<path d="M172.368 99.6246C179.296 100.753 179.817 114.069 178.684 118.775C177.55 123.482 184.352 116.065 184.352 116.065L182.894 96.5156" fill="white"/>
<path d="M172.368 99.6246C179.296 100.753 179.817 114.069 178.684 118.775C177.55 123.482 184.352 116.065 184.352 116.065L182.894 96.5156" stroke="black" stroke-width="0.6"/>
<path d="M166.376 98.3467C174.28 105.627 170.586 127.052 170.586 127.052" stroke="white" stroke-width="0.6"/>
</g>
<path d="M150.596 110.925C150.596 110.925 162.302 111.732 178.73 102.304C182.489 108.941 180.909 114.906 180.909 114.906C180.909 114.906 156.86 129.756 147.025 128.339C146.003 128.209 145 127.958 144.036 127.593" stroke="black" stroke-width="0.6"/>
<path d="M136.342 101.486L135.471 108.822C135.471 108.822 128.736 114.828 133.046 115.94C137.509 117.091 145.371 109.949 145.371 109.949V97.1333L136.342 101.486Z" fill="#F9C1BB"/>
<mask id="mask26_18_1019" style="mask-type:luminance" maskUnits="userSpaceOnUse" x="131" y="97" width="15" height="20">
<path fill-rule="evenodd" clip-rule="evenodd" d="M136.342 101.486L135.471 108.822C135.471 108.822 128.736 114.828 133.046 115.94C137.509 117.091 145.371 109.949 145.371 109.949V97.1333L136.342 101.486Z" fill="white"/>
</mask>
<g mask="url(#mask26_18_1019)">
<path d="M134.385 109.547C140.713 108.565 139.818 104.18 139.818 104.18L134.744 102.805L134.385 109.547Z" fill="#ED707B"/>
</g>
<path fill-rule="evenodd" clip-rule="evenodd" d="M136.342 101.486L135.471 108.822C135.471 108.822 128.736 114.828 133.046 115.94C137.509 117.091 145.371 109.949 145.371 109.949V97.1333L136.342 101.486Z" stroke="black" stroke-width="0.6"/>
<path d="M144.928 93.6136L145.208 87.8901L133.598 89.642C131.879 89.9015 130.601 91.4715 130.601 93.3242V99.8172C130.601 103.277 133.646 105.817 136.792 104.982L139.819 104.18" fill="#F9C1BB"/>
<mask id="mask27_18_1019" style="mask-type:luminance" maskUnits="userSpaceOnUse" x="130" y="87" width="16" height="19">
<path fill-rule="evenodd" clip-rule="evenodd" d="M144.928 93.6136L145.208 87.8901L133.598 89.642C131.879 89.9015 130.601 91.4715 130.601 93.3242V99.8172C130.601 103.277 133.646 105.817 136.792 104.982L139.819 104.18" fill="white"/>
</mask>
<g mask="url(#mask27_18_1019)">
<ellipse opacity="0.27" cx="137.528" cy="97.991" rx="1.55251" ry="0.79592" transform="rotate(-13.8321 137.528 97.991)" fill="#ED707B"/>
<ellipse opacity="0.27" cx="132.121" cy="99.2049" rx="1.55251" ry="0.79592" transform="rotate(-13.8321 132.121 99.2049)" fill="#ED707B"/>
<path d="M131.57 96.11C131.53 95.8087 131.742 95.5319 132.043 95.4917L132.212 95.469C132.514 95.4288 132.791 95.6405 132.831 95.9418L132.996 97.1812C133.036 97.4824 132.825 97.7593 132.524 97.7995L132.354 97.8222C132.052 97.8624 131.776 97.6507 131.735 97.3494L131.57 96.11Z" fill="black"/>
<path d="M135.89 95.1657C135.85 94.8644 136.062 94.5876 136.363 94.5473L136.533 94.5247C136.834 94.4844 137.111 94.6961 137.151 94.9975L137.317 96.2368C137.357 96.5381 137.145 96.8149 136.844 96.8552L136.674 96.8778C136.373 96.9181 136.096 96.7064 136.056 96.405L135.89 95.1657Z" fill="black"/>
<path d="M131.773 94.0123C130.536 94.5603 130.984 95.2157 131.779 94.9237C132.575 94.6318 132.581 93.6544 131.773 94.0123Z" fill="black"/>
<path d="M136.206 93.0021C137.543 93.2063 137.372 93.8895 136.528 93.8164C135.685 93.7434 135.333 92.8687 136.206 93.0021Z" fill="black"/>
<path d="M135.374 97.2645C135.496 97.7501 134.998 97.6707 134.443 97.8102C133.887 97.9498 133.485 98.2554 133.364 97.7698C133.242 97.2842 133.594 96.7774 134.149 96.6379C134.704 96.4983 135.253 96.7789 135.374 97.2645Z" fill="#ED707B"/>
<path d="M133.808 100.493C135.061 103.392 137.622 101.475 137.245 99.5817C137.224 99.4841 137.144 99.4101 137.045 99.3964C136.628 99.3342 135.441 99.2732 133.907 100.19C133.803 100.252 133.761 100.381 133.808 100.493Z" fill="#C1525F"/>
<mask id="mask28_18_1019" style="mask-type:luminance" maskUnits="userSpaceOnUse" x="133" y="99" width="5" height="3">
<path fill-rule="evenodd" clip-rule="evenodd" d="M133.808 100.493C135.061 103.392 137.622 101.475 137.245 99.5817C137.224 99.4841 137.144 99.4101 137.045 99.3964C136.628 99.3342 135.441 99.2732 133.907 100.19C133.803 100.252 133.761 100.381 133.808 100.493Z" fill="white"/>
</mask>
<g mask="url(#mask28_18_1019)">
<ellipse cx="136.35" cy="101.669" rx="1.58147" ry="1.41286" transform="rotate(-32.3495 136.35 101.669)" fill="#993443"/>
<path d="M134.228 99.8837C134.278 100.083 134.365 100.349 134.43 100.385C134.826 100.608 136.341 100.082 136.51 99.8556C136.557 99.7924 136.403 99.1479 136.403 99.1479L134.436 99.716" fill="white"/>
</g>
</g>
<path d="M144.928 93.6136L145.208 87.8901L133.598 89.642C131.879 89.9015 130.601 91.4715 130.601 93.3242V99.8172C130.601 103.277 133.646 105.817 136.792 104.982L139.819 104.18" stroke="black" stroke-width="0.6"/>
<path d="M142.33 97.8849C147.076 97.8849 150.923 94.3751 150.923 90.0459C150.923 85.7164 147.076 82.2067 142.33 82.2067C140.233 82.1942 138.197 82.9129 136.572 84.2392C136.444 84.2295 136.321 84.2018 136.191 84.2018C133.918 84.1834 131.923 85.7116 131.347 87.9119" fill="#485065"/>
<path d="M131.347 87.4287C130.706 90.0519 132.225 92.7189 134.807 93.503C136.28 96.1079 139.201 97.8848 142.569 97.8848" fill="#485065"/>
<path d="M131.347 87.4287C130.706 90.0519 132.225 92.7189 134.807 93.503C136.28 96.1079 139.201 97.8848 142.569 97.8848" stroke="black" stroke-width="0.6"/>
<path d="M139.694 97.8849C146.982 91.4034 147.783 99.1057 143.249 101.349L139.694 97.8849Z" fill="#F9C1BB"/>
<path d="M139.694 97.8849C146.982 91.4034 147.783 99.1057 143.249 101.349" stroke="black" stroke-width="0.6"/>
<path d="M126.368 121.814L123.941 136.751L138.625 131.301L126.368 121.814Z" fill="white" stroke="black" stroke-width="0.6"/>
<ellipse cx="125.454" cy="135.403" rx="5.82174" ry="5.59109" fill="#FDD504" stroke="black" stroke-width="0.6"/>
<path d="M141.572 135.705L133.442 137.981L131.071 130.173L139.201 127.897L141.572 135.705Z" fill="#1A80FD" stroke="black" stroke-width="0.6"/>
<path d="M139.098 86.2041C138.778 87.4524 139.782 88.8656 141.063 88.9721" stroke="black" stroke-width="0.6"/>
<path d="M143.03 98.082C143.269 98.1173 143.491 98.2262 143.666 98.3937C143.736 98.4524 143.784 98.5334 143.802 98.6232C143.798 98.7665 143.724 98.8987 143.605 98.9775C143.399 99.1406 143.179 99.2843 142.947 99.4067" stroke="black" stroke-width="0.6"/>
<path d="M104.276 92.0615L104.065 92.7125" stroke="black" stroke-width="0.6"/>
<path d="M189.503 101.369L190.13 102.892" stroke="black" stroke-width="0.6"/>
<path d="M101.69 195.027C102.392 195.956 103.518 196.464 104.679 196.374" stroke="black" stroke-width="0.6"/>
<path d="M81.3711 263.829L85.2304 265.204" stroke="black" stroke-width="0.6"/>
<path d="M85.7303 264.678C84.6089 263.499 83.6293 262.192 82.8115 260.785" stroke="black" stroke-width="0.6"/>
<path d="M152.585 187.901L151.115 191.142" stroke="black" stroke-width="0.6"/>
<path d="M153.301 187.562C153.905 188.546 154.22 189.68 154.208 190.835" stroke="black" stroke-width="0.6"/>
<path d="M270.655 129.007C258.205 117.555 280.249 106.111 260.188 101.182C245.913 97.6745 246.497 116.011 240.968 117.197C235.438 118.382 224.05 124.868 230.552 137.767C237.053 150.667 241.575 150.427 241.575 150.427C271.424 184.224 288.852 145.746 270.655 129.007Z" fill="#1A80FD" stroke="black" stroke-width="0.6"/>
<path d="M263.862 261.859L266.445 278.83L261.579 288.145L260.148 283.535L256.005 264.587L263.862 261.859Z" fill="#F9C1BB"/>
<mask id="mask29_18_1019" style="mask-type:luminance" maskUnits="userSpaceOnUse" x="256" y="261" width="11" height="28">
<path fill-rule="evenodd" clip-rule="evenodd" d="M263.862 261.859L266.445 278.83L261.579 288.145L260.148 283.535L256.005 264.587L263.862 261.859Z" fill="white"/>
</mask>
<g mask="url(#mask29_18_1019)">
<path d="M253.384 277.407C261.834 277.236 266.31 269.813 266.041 269.13C265.771 268.448 256.005 268.277 256.005 268.277L254.04 269.983" fill="#ED707B"/>
</g>
<path fill-rule="evenodd" clip-rule="evenodd" d="M263.862 261.859L266.445 278.83L261.579 288.145L260.148 283.535L256.005 264.587L263.862 261.859V261.859Z" stroke="black" stroke-width="0.6"/>
<path d="M259.536 281.637C259.536 281.637 265.226 283.278 265.762 274.346L269.248 282.508C269.566 283.251 269.538 284.098 269.17 284.818L259.415 303.967C257.364 303.15 256.255 300.783 256.894 298.557C257.986 294.756 260.946 286.762 259.536 281.637Z" fill="#485065" stroke="black" stroke-width="0.6"/>
<path d="M280.302 221.799L296.239 224.751L302.903 232.678H298.04L280.314 229.847L280.302 221.799Z" fill="#F9C1BB"/>
<mask id="mask30_18_1019" style="mask-type:luminance" maskUnits="userSpaceOnUse" x="280" y="221" width="23" height="12">
<path fill-rule="evenodd" clip-rule="evenodd" d="M280.302 221.799L296.239 224.751L302.903 232.678H298.04L280.314 229.847L280.302 221.799Z" fill="white"/>
</mask>
<g mask="url(#mask30_18_1019)">
<path d="M290.628 236.962C290.792 227.406 289.346 220.325 286.869 220.964C284.393 221.603 281.275 233.549 281.275 233.549L287.672 235.713" fill="#ED707B"/>
</g>
<path fill-rule="evenodd" clip-rule="evenodd" d="M280.302 221.799L296.239 224.751L302.903 232.678H298.04L280.314 229.847L280.302 221.799V221.799Z" stroke="black" stroke-width="0.6"/>
<path d="M296.442 232.602C296.442 232.602 299.353 227.141 291.594 223.685L298.223 222.352C298.867 222.222 299.533 222.432 299.987 222.907L316.245 240.018C314.839 241.81 312.368 242.148 310.602 240.78C307.586 238.443 301.464 232.86 296.442 232.602Z" fill="#485065" stroke="black" stroke-width="0.6"/>
<path d="M253.827 272.96C258.333 275.257 271.012 264.336 271.012 264.336L257.612 224.535L258.449 159.297L236.163 165.009L238.631 222.3C238.668 223.148 238.812 223.989 239.061 224.801L253.827 272.96Z" fill="#1A80FD"/>
<mask id="mask31_18_1019" style="mask-type:luminance" maskUnits="userSpaceOnUse" x="236" y="159" width="36" height="115">
<path fill-rule="evenodd" clip-rule="evenodd" d="M253.827 272.96C258.333 275.257 271.012 264.336 271.012 264.336L257.612 224.535L258.449 159.297L236.163 165.009L238.631 222.3C238.668 223.148 238.812 223.989 239.061 224.801L253.827 272.96Z" fill="white"/>
</mask>
<g mask="url(#mask31_18_1019)">
<path d="M238.426 265.519C257.521 271.523 271.012 254.396 271.012 254.396" stroke="white" stroke-width="0.6"/>
<path d="M248.32 208.486L247.163 225.288L258.498 263.389" stroke="white" stroke-width="0.6"/>
</g>
<path fill-rule="evenodd" clip-rule="evenodd" d="M253.827 272.96C258.333 275.257 271.012 264.336 271.012 264.336L257.612 224.535L258.449 159.297L236.163 165.009L238.631 222.3C238.668 223.148 238.812 223.989 239.061 224.801L253.827 272.96Z" stroke="black" stroke-width="0.6"/>
<path d="M242.967 165.101L256.028 158.538C262.28 160.667 269.608 168.235 268.628 181.31L261.392 217.582L288.554 217.932C288.554 217.932 290.367 229.312 287.672 235.713L249.926 233.943C244.933 233.754 241.13 229.357 241.617 224.336L242.372 191.193" fill="#1A80FD"/>
<mask id="mask32_18_1019" style="mask-type:luminance" maskUnits="userSpaceOnUse" x="241" y="158" width="49" height="78">
<path fill-rule="evenodd" clip-rule="evenodd" d="M242.967 165.101L256.028 158.538C262.28 160.667 269.608 168.235 268.628 181.31L261.392 217.582L288.554 217.932C288.554 217.932 290.367 229.312 287.672 235.713L249.926 233.943C244.933 233.754 241.13 229.357 241.617 224.336L242.372 191.193" fill="white"/>
</mask>
<g mask="url(#mask32_18_1019)">
<path d="M238.7 170.555C289.554 174.783 251.16 208.015 269.092 214.619C272.771 215.974 280.302 179.193 280.302 179.193L266.446 150.505L243.061 162.159" fill="#1D62FC"/>
<path d="M281.011 212.273C289.146 225.579 278.071 243.333 278.071 243.333" stroke="white" stroke-width="0.6"/>
<path d="M283.115 225.585L257.032 224.711C255.4 224.655 253.862 223.929 252.779 222.705C251.697 221.481 251.165 219.865 251.308 218.236L254.391 182.955" stroke="white" stroke-width="0.6"/>
<path d="M250.175 175.533C251.769 186.005 261.225 184.408 261.225 184.408" stroke="white" stroke-width="0.6"/>
</g>
<path d="M242.967 165.101L256.028 158.538C262.28 160.667 269.608 168.235 268.628 181.31L261.392 217.582L288.554 217.932C288.554 217.932 290.367 229.312 287.672 235.713L249.926 233.943C244.933 233.754 241.13 229.357 241.617 224.336L242.372 191.193" stroke="black" stroke-width="0.6"/>
<path d="M233.291 96.9876C233.291 96.9876 239.086 88.8474 239.959 88.4484C240.832 88.0493 247.441 83.4867 248.043 83.3956C248.645 83.3045 247.021 81.4876 243.106 84.1216C243.106 84.1216 239.854 82.7074 247.031 77.09C249.297 75.3164 243.482 73.4757 236.745 82.3286C231.996 88.5697 226.426 92.7496 226.426 92.7496L233.291 96.9876Z" fill="#F9C1BB"/>
<mask id="mask33_18_1019" style="mask-type:luminance" maskUnits="userSpaceOnUse" x="226" y="75" width="23" height="22">
<path fill-rule="evenodd" clip-rule="evenodd" d="M233.291 96.9876C233.291 96.9876 239.086 88.8474 239.959 88.4484C240.832 88.0493 247.441 83.4867 248.043 83.3956C248.645 83.3045 247.021 81.4876 243.106 84.1216C243.106 84.1216 239.854 82.7074 247.031 77.09C249.297 75.3164 243.482 73.4757 236.745 82.3286C231.996 88.5697 226.426 92.7496 226.426 92.7496L233.291 96.9876Z" fill="white"/>
</mask>
<g mask="url(#mask33_18_1019)">
<path d="M232.566 85.8059C235.048 84.9426 237.345 90.0812 239.027 89.7934C240.709 89.5056 238.822 91.7666 238.822 91.7666L233.756 91.0472L233.633 89.3412" fill="#ED707B"/>
</g>
<path fill-rule="evenodd" clip-rule="evenodd" d="M233.291 96.9876C233.291 96.9876 239.086 88.8474 239.959 88.4484C240.832 88.0493 247.441 83.4867 248.043 83.3956C248.645 83.3045 247.021 81.4876 243.106 84.1216C243.106 84.1216 239.854 82.7074 247.031 77.09C249.297 75.3164 243.482 73.4757 236.745 82.3286C231.996 88.5697 226.426 92.7496 226.426 92.7496L233.291 96.9876Z" stroke="black" stroke-width="0.6"/>
<path d="M297.187 126.145C297.187 126.145 306.368 120.015 306.695 119.265C307.022 118.516 311.043 112.694 311.084 112.195C311.125 111.695 313.083 112.844 310.77 116.286C310.77 116.286 314.656 116.686 318.04 109.731C319.152 107.445 321.416 114.956 313.103 121.294C307.242 125.763 303.517 130.702 303.517 130.702L297.187 126.145Z" fill="#F9C1BB"/>
<mask id="mask34_18_1019" style="mask-type:luminance" maskUnits="userSpaceOnUse" x="297" y="109" width="23" height="22">
<path fill-rule="evenodd" clip-rule="evenodd" d="M297.187 126.145C297.187 126.145 306.368 120.015 306.695 119.265C307.022 118.516 311.043 112.694 311.084 112.195C311.125 111.695 313.083 112.844 310.77 116.286C310.77 116.286 314.656 116.686 318.04 109.731C319.152 107.445 321.416 114.956 313.103 121.294C307.242 125.763 303.517 130.702 303.517 130.702L297.187 126.145Z" fill="white"/>
</mask>
<g mask="url(#mask34_18_1019)">
<path d="M308.675 132.758C310.453 122.36 302.441 121.377 302.441 121.377L301.21 129.607L305.148 131.498L309.496 131.333" fill="#ED707B"/>
</g>
<path fill-rule="evenodd" clip-rule="evenodd" d="M297.187 126.145C297.187 126.145 306.368 120.015 306.695 119.265C307.022 118.516 311.043 112.694 311.084 112.195C311.125 111.695 313.083 112.844 310.77 116.286C310.77 116.286 314.656 116.686 318.04 109.731C319.152 107.445 321.416 114.956 313.103 121.294C307.242 125.763 303.517 130.702 303.517 130.702L297.187 126.145Z" stroke="black" stroke-width="0.6"/>
<path d="M232.746 85.0039C234.668 85.0039 238.863 94.3283 238.863 94.3283L229.54 108.865L244.376 126.778L235.576 141.554L215.946 112.163C214.209 109.861 214.3 106.858 216.173 104.639L232.746 85.0039Z" fill="#1AB995"/>
<mask id="mask35_18_1019" style="mask-type:luminance" maskUnits="userSpaceOnUse" x="214" y="85" width="31" height="57">
<path fill-rule="evenodd" clip-rule="evenodd" d="M232.746 85.0039C234.668 85.0039 238.863 94.3283 238.863 94.3283L229.54 108.865L244.376 126.778L235.576 141.554L215.946 112.163C214.209 109.861 214.3 106.858 216.173 104.639L232.746 85.0039Z" fill="white"/>
</mask>
<g mask="url(#mask35_18_1019)">
<path opacity="0.1" d="M236.685 130.498C227.55 138.477 222.46 144.632 222.46 144.632L235.576 141.554L236.685 130.498Z" fill="#1E216E"/>
<path d="M238.462 126.941C232.713 133.308 222.099 121.376 222.099 121.376L223.865 137.906L236.441 144.139L238.462 126.941Z" fill="#0FA379"/>
</g>
<path fill-rule="evenodd" clip-rule="evenodd" d="M232.746 85.0039C234.668 85.0039 238.863 94.3283 238.863 94.3283L229.54 108.865L244.376 126.778L235.576 141.554L215.946 112.163C214.209 109.861 214.3 106.858 216.173 104.639L232.746 85.0039Z" stroke="black" stroke-width="0.6"/>
<path d="M237.251 127.893L231.796 132.184C226.96 135.866 227.686 143.244 233.283 145.749C233.41 145.806 233.537 145.859 233.665 145.908C242.779 149.421 228.167 167.62 229.539 168.051C252.225 175.168 265.108 164.888 265.108 164.888C265.108 164.888 258.529 145.906 266.416 138.33L268.057 132.079C267.728 130.118 266.164 128.557 264.13 128.162L242.124 124.06" fill="#1AB995"/>
<mask id="mask36_18_1019" style="mask-type:luminance" maskUnits="userSpaceOnUse" x="228" y="124" width="41" height="47">
<path fill-rule="evenodd" clip-rule="evenodd" d="M237.251 127.893L231.796 132.184C226.96 135.866 227.686 143.244 233.283 145.749C233.41 145.806 233.537 145.859 233.665 145.908C242.779 149.421 228.167 167.62 229.539 168.051C252.225 175.168 265.108 164.888 265.108 164.888C265.108 164.888 258.529 145.906 266.416 138.33L268.057 132.079C267.728 130.118 266.164 128.557 264.13 128.162L242.124 124.06" fill="white"/>
</mask>
<g mask="url(#mask36_18_1019)">
<path d="M254.466 140.213C272.328 157.412 245.579 175.088 229.539 168.05C213.499 161.013 217.291 181.095 217.291 181.095L272.152 180.37L265.003 145.285L263.176 137.059L258.299 137.422" fill="#0FA379"/>
<path d="M244.243 122.65C236.552 130.587 240.496 132.944 259.184 127.353L260.013 125.312" fill="#F9C1BB"/>
<path d="M244.243 122.65C236.552 130.587 240.496 132.944 259.184 127.353V127.353L260.013 125.312" stroke="black" stroke-width="0.6"/>
</g>
<path d="M237.251 127.893L231.796 132.184C226.96 135.866 227.686 143.244 233.283 145.749C233.41 145.806 233.537 145.859 233.665 145.908C242.779 149.421 228.167 167.62 229.539 168.051C252.225 175.168 265.108 164.888 265.108 164.888C265.108 164.888 258.529 145.906 266.416 138.33L268.057 132.079C267.728 130.118 266.164 128.557 264.13 128.162L242.124 124.06" stroke="black" stroke-width="0.6"/>
<path d="M264.874 128.365L284.691 131.005L303.335 121.376C303.335 121.376 305.941 122.508 307.555 130.879L291.023 142.497C289.147 143.804 286.851 144.362 284.585 144.061L254.467 140.213" fill="#1AB995"/>
<mask id="mask37_18_1019" style="mask-type:luminance" maskUnits="userSpaceOnUse" x="254" y="121" width="54" height="24">
<path fill-rule="evenodd" clip-rule="evenodd" d="M264.874 128.365L284.691 131.005L303.335 121.376C303.335 121.376 305.941 122.508 307.555 130.879L291.023 142.497C289.147 143.804 286.851 144.362 284.585 144.061L254.467 140.213" fill="white"/>
</mask>
<g mask="url(#mask37_18_1019)">
<path d="M288.413 109.684L289.538 111.969C289.731 112.361 290.105 112.634 290.538 112.697L293.054 113.063C293.555 113.137 293.97 113.488 294.126 113.969C294.282 114.451 294.152 114.979 293.79 115.333L291.969 117.112C291.656 117.418 291.513 117.858 291.587 118.289L292.017 120.801C292.103 121.3 291.899 121.804 291.49 122.102C291.081 122.4 290.538 122.439 290.091 122.204L287.84 121.018C287.453 120.814 286.991 120.814 286.604 121.018L284.353 122.204C283.906 122.439 283.363 122.4 282.954 122.102C282.545 121.804 282.341 121.3 282.427 120.801L282.857 118.289C282.931 117.858 282.788 117.418 282.475 117.112L280.654 115.333C280.292 114.979 280.162 114.451 280.318 113.969C280.474 113.488 280.889 113.137 281.39 113.063L283.906 112.697C284.339 112.634 284.713 112.361 284.906 111.969L286.031 109.684C286.255 109.23 286.716 108.942 287.222 108.942C287.728 108.942 288.189 109.23 288.413 109.684Z" fill="#1A80FD" stroke="black" stroke-width="0.6"/>
</g>
<path d="M264.874 128.365L284.691 131.005L303.335 121.376C303.335 121.376 305.941 122.508 307.555 130.879L291.023 142.497C289.147 143.804 286.851 144.362 284.585 144.061L254.467 140.213" stroke="black" stroke-width="0.6"/>
<path d="M243.85 125.335L253.782 112.419L259.317 117.648L255.026 127.265" fill="#F9C1BB"/>
<mask id="mask38_18_1019" style="mask-type:luminance" maskUnits="userSpaceOnUse" x="243" y="112" width="17" height="16">
<path fill-rule="evenodd" clip-rule="evenodd" d="M243.85 125.335L253.782 112.419L259.317 117.648L255.026 127.265" fill="white"/>
</mask>
<g mask="url(#mask38_18_1019)">
<path d="M253.974 120.53C253.974 120.53 246.555 121.401 242.999 125.82C240.316 129.155 247.808 111.345 247.808 111.345L253.974 120.53Z" fill="#ED707B"/>
</g>
<path d="M243.85 125.335L253.782 112.419L259.317 117.648L255.026 127.265" stroke="black" stroke-width="0.6"/>
<path d="M259.36 117.682L260.145 116.684C257.747 112.469 256.206 105.702 257.002 102.507C254.648 102.562 250.393 104.008 246.954 112.579C244.928 117.63 250.412 119.721 253.974 120.53" fill="#F9C1BB"/>
<mask id="mask39_18_1019" style="mask-type:luminance" maskUnits="userSpaceOnUse" x="246" y="102" width="15" height="19">
<path fill-rule="evenodd" clip-rule="evenodd" d="M259.36 117.682L260.145 116.684C257.747 112.469 256.206 105.702 257.002 102.507C254.648 102.562 250.393 104.008 246.954 112.579C244.928 117.63 250.412 119.721 253.974 120.53" fill="white"/>
</mask>
<g mask="url(#mask39_18_1019)">
<ellipse opacity="0.27" cx="256.21" cy="113.758" rx="1.12684" ry="1.76451" transform="rotate(-78.6453 256.21 113.758)" fill="#ED707B"/>
<ellipse opacity="0.27" cx="247.841" cy="111.261" rx="1.12684" ry="1.76451" transform="rotate(-78.6453 247.841 111.261)" fill="#ED707B"/>
<path d="M251.308 107.491C251.69 107.636 251.881 108.064 251.736 108.446L251.29 109.617C251.144 109.999 250.717 110.19 250.335 110.045C249.953 109.899 249.762 109.471 249.907 109.089L250.354 107.918C250.499 107.536 250.927 107.345 251.308 107.491V107.491Z" fill="black"/>
<path d="M256.591 109.061C256.973 109.207 257.165 109.635 257.019 110.017L256.573 111.188C256.427 111.57 256 111.761 255.618 111.615C255.237 111.47 255.045 111.042 255.191 110.66L255.637 109.489C255.707 109.306 255.846 109.158 256.026 109.077C256.205 108.997 256.408 108.991 256.591 109.061V109.061Z" fill="black"/>
<path d="M251.754 105.792C250.187 105.666 250.283 106.585 251.258 106.728C252.232 106.87 252.778 105.874 251.754 105.792Z" fill="black"/>
<path d="M257.189 107.358C258.443 108.309 257.891 108.913 257.068 108.37C256.246 107.827 256.37 106.737 257.189 107.358Z" fill="black"/>
<path d="M253.41 111.105C253.286 111.591 252.921 111.292 252.409 111.161C251.897 111.029 251.433 111.115 251.557 110.63C251.71 110.144 252.216 109.862 252.709 109.989C253.202 110.115 253.51 110.606 253.41 111.105Z" fill="#ED707B"/>
<path d="M249.822 112.924C249.502 116.583 253.18 116.044 253.84 113.899C253.872 113.788 253.832 113.668 253.738 113.599C253.346 113.303 252.166 112.583 250.091 112.669C249.951 112.675 249.836 112.784 249.822 112.924Z" fill="#C1525F"/>
<mask id="mask40_18_1019" style="mask-type:luminance" maskUnits="userSpaceOnUse" x="249" y="112" width="5" height="4">
<path fill-rule="evenodd" clip-rule="evenodd" d="M249.822 112.924C249.502 116.583 253.18 116.044 253.84 113.899C253.872 113.788 253.832 113.668 253.738 113.599C253.346 113.303 252.166 112.583 250.091 112.669C249.951 112.675 249.836 112.784 249.822 112.924Z" fill="white"/>
</mask>
<g mask="url(#mask40_18_1019)">
<ellipse cx="251.772" cy="115.536" rx="1.8378" ry="1.64387" transform="rotate(-3.6278 251.772 115.536)" fill="#993443"/>
<path d="M250.588 112.533C250.529 112.765 250.472 113.085 250.517 113.158C250.799 113.605 252.639 113.909 252.937 113.771C253.02 113.732 253.219 112.988 253.219 112.988L250.894 112.478" fill="white"/>
</g>
</g>
<path d="M259.36 117.682L260.145 116.684C257.747 112.469 256.206 105.702 257.002 102.507C254.648 102.562 250.393 104.008 246.954 112.579C244.928 117.63 250.412 119.721 253.974 120.53" stroke="black" stroke-width="0.6"/>
<path d="M257.677 119.245C258.503 119.915 259.701 120.21 260.915 119.941C262.859 119.511 264.108 117.801 263.706 116.121C263.304 114.441 261.403 113.427 259.46 113.857C258.993 113.959 258.549 114.142 258.147 114.399" fill="#F9C1BB"/>
<path d="M257.677 119.245C258.503 119.915 259.701 120.21 260.915 119.941C262.859 119.511 264.108 117.801 263.706 116.121C263.304 114.441 261.403 113.427 259.46 113.857C258.993 113.959 258.549 114.142 258.147 114.399" stroke="black" stroke-width="0.6"/>
<path d="M269.877 145.369C269.497 147.209 268.879 148.992 268.038 150.673" stroke="black" stroke-width="0.6"/>
<path d="M260.411 115.795C260.71 115.707 261.032 115.809 261.227 116.053" stroke="black" stroke-width="0.6"/>
<path d="M261.851 105.785L262.204 106.85" stroke="black" stroke-width="0.6"/>
<path d="M226.436 109.004C227.429 109.236 228.463 109.221 229.449 108.96" stroke="black" stroke-width="0.6"/>
<path d="M284.682 131.344L285.08 133.465" stroke="black" stroke-width="0.6"/>
<path d="M261.342 217.622L259.572 218.336" stroke="black" stroke-width="0.6"/>
<path d="M256.729 282.571C257.456 282.414 258.216 282.526 258.866 282.887" stroke="black" stroke-width="0.6"/>
<path d="M255.999 285.718L258.485 284.309" stroke="black" stroke-width="0.6"/>
<path d="M298.522 233.571V236.234" stroke="black" stroke-width="0.6"/>
<path d="M298.166 233.391L293.574 237.488" stroke="black" stroke-width="0.6"/>
<path d="M71.0348 182.656C70.8572 177.737 69.6451 172.911 67.4777 168.492C66.6547 166.815 65.6973 165.208 64.6151 163.685C56.539 152.304 42.0574 146.444 27.7296 150.058C13.4021 153.672 3.41396 165.704 1.67567 179.561C1.44156 181.415 1.35763 183.285 1.42469 185.153C1.60225 190.072 2.81431 194.899 4.98177 199.317C13.4821 199.043 24.8984 197.557 38.779 194.055C52.6595 190.554 63.418 186.448 71.0348 182.656Z" fill="#1B80FD"/>
<mask id="mask41_18_1019" style="mask-type:luminance" maskUnits="userSpaceOnUse" x="1" y="148" width="71" height="52">
<path fill-rule="evenodd" clip-rule="evenodd" d="M71.0348 182.656C70.8572 177.737 69.6451 172.911 67.4777 168.492C66.6547 166.815 65.6973 165.208 64.6151 163.685C56.539 152.304 42.0574 146.444 27.7296 150.058C13.4021 153.672 3.41396 165.704 1.67567 179.561C1.44156 181.415 1.35763 183.285 1.42469 185.153C1.60225 190.072 2.81431 194.899 4.98177 199.317C13.4821 199.043 24.8984 197.557 38.779 194.055C52.6595 190.554 63.418 186.448 71.0348 182.656Z" fill="white"/>
</mask>
<g mask="url(#mask41_18_1019)">
<path d="M13.8125 144.304C87.9344 148.703 72.7162 189.446 19.8633 197.896C-32.9896 206.347 89.7141 192.319 89.7141 192.319L87.7105 151.88L31.5032 140.94L16.4997 148.536" fill="#1D62FC"/>
</g>
<path fill-rule="evenodd" clip-rule="evenodd" d="M71.0348 182.656C70.8572 177.737 69.6451 172.911 67.4777 168.492C66.6547 166.815 65.6973 165.208 64.6151 163.685C56.539 152.304 42.0574 146.444 27.7296 150.058C13.4021 153.672 3.41396 165.704 1.67567 179.561C1.44156 181.415 1.35763 183.285 1.42469 185.153C1.60225 190.072 2.81431 194.899 4.98177 199.317C13.4821 199.043 24.8984 197.557 38.779 194.055C52.6595 190.554 63.418 186.448 71.0348 182.656Z" stroke="black" stroke-width="0.6"/>
<path d="M7.84375 204.125C15.9201 215.506 30.4018 221.366 44.7293 217.751C59.057 214.138 69.0452 202.105 70.7835 188.249C62.2055 192.231 51.4899 195.922 39.9765 198.826C28.4631 201.73 17.2802 203.563 7.84375 204.125Z" fill="#1B80FD"/>
<path fill-rule="evenodd" clip-rule="evenodd" d="M7.84375 204.125C15.9201 215.506 30.4018 221.366 44.7293 217.751C59.057 214.138 69.0452 202.105 70.7835 188.249C62.2055 192.231 51.4899 195.922 39.9765 198.826C28.4631 201.73 17.2802 203.563 7.84375 204.125Z" stroke="black" stroke-width="0.6"/>
<path d="M89.5364 170.459C88.3596 165.773 81.7867 163.43 70.0005 163.498C68.2836 163.508 66.4804 163.574 64.6153 163.685C65.6975 165.208 66.6548 166.815 67.4778 168.492C78.2133 168.147 84.2938 169.737 84.7767 171.66C85.2596 173.583 80.6545 177.867 71.0349 182.656C63.4182 186.448 52.6598 190.554 38.7792 194.056C24.8987 197.557 13.4823 199.043 4.98199 199.317C-5.75322 199.663 -11.8337 198.073 -12.3169 196.15C-12.7996 194.227 -8.19465 189.942 1.42492 185.154C1.35785 183.286 1.44178 181.415 1.67589 179.561C-0.0192337 180.348 -1.63912 181.145 -3.15593 181.951C-13.5702 187.483 -18.2535 192.664 -17.0765 197.351C-15.8995 202.037 -9.32653 204.38 2.45961 204.312C4.17655 204.302 5.97977 204.236 7.84456 204.124C17.2811 203.563 28.4639 201.73 39.9773 198.826C51.4907 195.922 62.2063 192.231 70.7843 188.249C72.4794 187.462 74.099 186.665 75.6161 185.859C86.0301 180.327 90.7134 175.145 89.5364 170.459Z" fill="#FACCC4"/>
<mask id="mask42_18_1019" style="mask-type:luminance" maskUnits="userSpaceOnUse" x="-18" y="163" width="108" height="42">
<path fill-rule="evenodd" clip-rule="evenodd" d="M89.5364 170.459C88.3596 165.773 81.7867 163.43 70.0005 163.498C68.2836 163.508 66.4804 163.574 64.6153 163.685C65.6975 165.208 66.6548 166.815 67.4778 168.492C78.2133 168.147 84.2938 169.737 84.7767 171.66C85.2596 173.583 80.6545 177.867 71.0349 182.656C63.4182 186.448 52.6598 190.554 38.7792 194.056C24.8987 197.557 13.4823 199.043 4.98199 199.317C-5.75322 199.663 -11.8337 198.073 -12.3169 196.15C-12.7996 194.227 -8.19465 189.942 1.42492 185.154C1.35785 183.286 1.44178 181.415 1.67589 179.561C-0.0192337 180.348 -1.63912 181.145 -3.15593 181.951C-13.5702 187.483 -18.2535 192.664 -17.0765 197.351C-15.8995 202.037 -9.32653 204.38 2.45961 204.312C4.17655 204.302 5.97977 204.236 7.84456 204.124C17.2811 203.563 28.4639 201.73 39.9773 198.826C51.4907 195.922 62.2063 192.231 70.7843 188.249C72.4794 187.462 74.099 186.665 75.6161 185.859C86.0301 180.327 90.7134 175.145 89.5364 170.459Z" fill="white"/>
</mask>
<g mask="url(#mask42_18_1019)">
<path d="M-25.1523 183.905C7.54199 178.743 4.4069 193.46 4.4069 193.46L12.4686 175.183L-0.519674 172.486" fill="#ED707B"/>
<path d="M55.6878 158.553C72.035 160.789 73.8264 172.486 73.8264 172.486L59.9426 175.183L55.4639 170.888" fill="#ED707B"/>
</g>
<path fill-rule="evenodd" clip-rule="evenodd" d="M89.5364 170.459C88.3596 165.773 81.7867 163.43 70.0005 163.498C68.2836 163.508 66.4804 163.574 64.6153 163.685C65.6975 165.208 66.6548 166.815 67.4778 168.492C78.2133 168.147 84.2938 169.737 84.7767 171.66C85.2596 173.583 80.6545 177.867 71.0349 182.656C63.4182 186.448 52.6598 190.554 38.7792 194.056C24.8987 197.557 13.4823 199.043 4.98199 199.317C-5.75322 199.663 -11.8337 198.073 -12.3169 196.15C-12.7996 194.227 -8.19465 189.942 1.42492 185.154C1.35785 183.286 1.44178 181.415 1.67589 179.561C-0.0192345 180.348 -1.63912 181.145 -3.15593 181.951C-13.5702 187.483 -18.2535 192.664 -17.0765 197.351C-15.8995 202.037 -9.32653 204.38 2.45961 204.312C4.17655 204.302 5.97977 204.236 7.84456 204.124C17.281 203.563 28.4639 201.73 39.9773 198.826C51.4907 195.922 62.2063 192.231 70.7843 188.249C72.4794 187.462 74.099 186.665 75.6161 185.859C86.0301 180.327 90.7134 175.145 89.5364 170.459Z" stroke="black" stroke-width="0.6"/>
<path d="M32.1146 165.947C31.8424 167.944 31.1236 169.853 30.0117 171.533" stroke="black" stroke-width="0.6"/>
<path d="M52.4446 203.217L48.5996 205.854" stroke="black" stroke-width="0.6"/>
<path d="M323.675 210.946H337.828V220.8C337.828 224.384 334.924 227.289 331.343 227.289H330.16C328.44 227.289 326.79 226.605 325.574 225.388C324.358 224.171 323.675 222.521 323.675 220.8V210.946L323.675 210.946Z" fill="#E43334" stroke="black" stroke-width="0.6"/>
<path d="M336.454 224.001H325.05C322.487 224.001 320.41 221.922 320.41 219.358V207.657H341.093V219.358C341.093 221.922 339.016 224.001 336.454 224.001Z" fill="#E43334"/>
<mask id="mask43_18_1019" style="mask-type:luminance" maskUnits="userSpaceOnUse" x="320" y="207" width="22" height="18">
<path fill-rule="evenodd" clip-rule="evenodd" d="M336.454 224.001H325.05C322.487 224.001 320.41 221.922 320.41 219.358V207.657H341.093V219.358C341.093 221.922 339.016 224.001 336.454 224.001Z" fill="white"/>
</mask>
<g mask="url(#mask43_18_1019)">
<path d="M322.307 224.765C316.884 208.46 331.635 211.584 344 210.946C356.365 210.308 336.407 206.286 336.407 206.286L320.41 207.657L318.728 214.873L319.624 223.46" fill="#C11F27"/>
</g>
<path fill-rule="evenodd" clip-rule="evenodd" d="M336.454 224.001H325.05C322.487 224.001 320.41 221.922 320.41 219.358V207.657H341.093V219.358C341.093 221.922 339.016 224.001 336.454 224.001V224.001Z" stroke="black" stroke-width="0.6"/>
<path d="M351.037 180.252C351.037 169.137 342.135 160.104 331.086 159.926C323.756 159.818 316.935 163.671 313.239 170.007C309.542 176.344 309.543 184.181 313.24 190.517C316.575 196.219 318.422 202.672 318.422 209.281C318.422 209.459 318.492 209.628 318.617 209.754C318.742 209.879 318.911 209.949 319.088 209.949H342.416C342.593 209.949 342.762 209.879 342.887 209.754C343.012 209.628 343.082 209.458 343.082 209.281C343.082 202.751 344.786 196.313 348.146 190.717C350.044 187.557 351.043 183.939 351.037 180.252Z" fill="#FDD504"/>
<mask id="mask44_18_1019" style="mask-type:luminance" maskUnits="userSpaceOnUse" x="310" y="159" width="42" height="51">
<path fill-rule="evenodd" clip-rule="evenodd" d="M351.037 180.252C351.037 169.137 342.135 160.104 331.086 159.926C323.756 159.818 316.935 163.671 313.239 170.007C309.542 176.344 309.543 184.181 313.24 190.517C316.575 196.219 318.422 202.672 318.422 209.281C318.422 209.459 318.492 209.628 318.617 209.754C318.742 209.879 318.911 209.949 319.088 209.949H342.416C342.593 209.949 342.762 209.879 342.887 209.754C343.012 209.628 343.082 209.458 343.082 209.281C343.082 202.751 344.786 196.313 348.146 190.717C350.044 187.557 351.043 183.939 351.037 180.252Z" fill="white"/>
</mask>
<g mask="url(#mask44_18_1019)">
<path d="M317.101 163.023C295.625 186.502 330.117 211.901 347.905 209.746C365.693 207.591 322.307 224.765 322.307 224.765L303.894 215.829L296.927 182.572" fill="#FCB006"/>
</g>
<path fill-rule="evenodd" clip-rule="evenodd" d="M351.037 180.252C351.037 169.137 342.135 160.104 331.086 159.926C323.756 159.818 316.935 163.671 313.239 170.007C309.542 176.344 309.543 184.181 313.24 190.517C316.575 196.219 318.422 202.672 318.422 209.281V209.281C318.422 209.459 318.492 209.628 318.617 209.754C318.742 209.879 318.911 209.949 319.088 209.949H342.416C342.593 209.949 342.762 209.879 342.887 209.754C343.012 209.628 343.082 209.458 343.082 209.281V209.281C343.082 202.751 344.786 196.313 348.146 190.717C350.044 187.557 351.043 183.939 351.037 180.252Z" stroke="black" stroke-width="0.6"/>
<rect x="319.624" y="212.64" width="22.2558" height="3.18895" rx="1.26178" fill="white" stroke="black" stroke-width="0.6"/>
<rect x="319.624" y="217.523" width="22.2558" height="3.18895" rx="1.26178" fill="white" stroke="black" stroke-width="0.6"/>
<rect x="328.493" y="133.094" width="4.51731" height="18.8961" rx="1.79128" fill="#FCB006" stroke="black" stroke-width="0.6"/>
<path d="M286.829 181.17C285.84 181.17 285.038 180.368 285.038 179.379V178.434C285.038 177.445 285.84 176.643 286.829 176.643H302.102C303.091 176.643 303.893 177.445 303.893 178.434V179.379C303.893 180.368 303.091 181.17 302.102 181.17H286.829Z" fill="#FCB006" stroke="black" stroke-width="0.6"/>
<path d="M359.402 181.17C358.412 181.17 357.61 180.368 357.61 179.379V178.434C357.61 177.445 358.412 176.643 359.402 176.643H374.674C375.663 176.643 376.465 177.445 376.465 178.434V179.379C376.465 180.368 375.663 181.17 374.674 181.17H359.402Z" fill="#FCB006" stroke="black" stroke-width="0.6"/>
<path d="M311.895 159.739L311.626 160.008C311.238 160.397 310.712 160.616 310.163 160.616C309.614 160.616 309.088 160.397 308.701 160.008L298.293 149.578C297.486 148.768 297.486 147.457 298.293 146.647L298.562 146.377C298.95 145.988 299.476 145.77 300.025 145.77C300.574 145.77 301.1 145.988 301.488 146.377L311.895 156.807C312.703 157.617 312.703 158.929 311.895 159.739Z" fill="#FCB006" stroke="black" stroke-width="0.6"/>
<path d="M362.941 146.377L363.21 146.647C364.018 147.457 364.018 148.768 363.21 149.578L352.803 160.008C352.415 160.397 351.889 160.616 351.34 160.616C350.792 160.616 350.265 160.397 349.878 160.008L349.609 159.739C348.801 158.929 348.801 157.617 349.609 156.807L360.016 146.377C360.404 145.988 360.93 145.77 361.479 145.77C362.027 145.77 362.553 145.988 362.941 146.377Z" fill="#FCB006" stroke="black" stroke-width="0.6"/>
<path d="M342.57 179.723C340.445 182.091 338.106 184.258 335.585 186.197" stroke="black" stroke-width="0.6"/>
<path d="M73.4896 118.046L70.1306 122.222L61.001 114.847L64.3601 110.671L73.4896 118.046Z" fill="#1AB995"/>
<mask id="mask45_18_1019" style="mask-type:luminance" maskUnits="userSpaceOnUse" x="61" y="110" width="13" height="13">
<path fill-rule="evenodd" clip-rule="evenodd" d="M73.4896 118.046L70.1306 122.222L61.001 114.847L64.3601 110.671L73.4896 118.046Z" fill="white"/>
</mask>
<g mask="url(#mask45_18_1019)">
<path d="M66.4359 110.938C68.741 114.609 63.4074 116.041 65.5801 117.953C67.7527 119.866 70.8491 116.825 71.9601 114.635C73.071 112.445 74.5484 118.901 74.5484 118.901L66.5773 124.421L61.0605 117.134L63.6953 114.15" fill="#0FA379"/>
</g>
<path fill-rule="evenodd" clip-rule="evenodd" d="M73.4896 118.046L70.1306 122.222L61.001 114.847L64.3601 110.671L73.4896 118.046V118.046Z" stroke="black" stroke-width="0.6"/>
<path d="M83.9497 129.941C83.1572 130.927 82.0003 131.551 80.7414 131.672C79.4825 131.793 78.2282 131.399 77.263 130.582L66.4795 121.448L71.9594 114.635L83.1549 123.256C84.1576 124.029 84.807 125.173 84.9565 126.431C85.1061 127.689 84.7432 128.954 83.9497 129.941Z" fill="#FCB006"/>
<mask id="mask46_18_1019" style="mask-type:luminance" maskUnits="userSpaceOnUse" x="66" y="114" width="19" height="18">
<path fill-rule="evenodd" clip-rule="evenodd" d="M83.9497 129.941C83.1572 130.927 82.0003 131.551 80.7414 131.672C79.4825 131.793 78.2282 131.399 77.263 130.582L66.4795 121.448L71.9594 114.635L83.1549 123.256C84.1576 124.029 84.807 125.173 84.9565 126.431C85.1061 127.689 84.7432 128.954 83.9497 129.941Z" fill="white"/>
</mask>
<g mask="url(#mask46_18_1019)">
<path d="M70.165 113.715C87.5053 126.868 80.5567 129.266 78.382 132.857C76.2073 136.448 87.6609 132.939 87.6609 132.939L94.3342 126.398L81.7955 114.475L73.4362 114.077" fill="#FDD504"/>
</g>
<path fill-rule="evenodd" clip-rule="evenodd" d="M83.9497 129.941V129.941C83.1572 130.927 82.0003 131.551 80.7414 131.672C79.4825 131.793 78.2282 131.399 77.263 130.582L66.4795 121.448L71.9594 114.635L83.1549 123.256C84.1576 124.029 84.807 125.173 84.9565 126.431C85.1061 127.689 84.7432 128.954 83.9497 129.941V129.941Z" stroke="black" stroke-width="0.6"/>
<ellipse cx="54.2283" cy="106.069" rx="14.6929" ry="14.725" transform="rotate(-0.1001 54.2283 106.069)" fill="#1AB995"/>
<ellipse cx="54.228" cy="106.069" rx="10.7699" ry="10.7935" fill="#1AB995"/>
<ellipse cx="54.2283" cy="106.069" rx="14.6929" ry="14.725" transform="rotate(-0.1001 54.2283 106.069)" stroke="black" stroke-width="0.6"/>
<ellipse cx="54.228" cy="106.069" rx="10.7699" ry="10.7935" stroke="black" stroke-width="0.6"/>
<path d="M41.6784 103.934C41.8054 104.85 41.7761 105.781 41.5918 106.688" stroke="black" stroke-width="0.6"/>
<path d="M77.1924 122.71L77.4181 123.6" stroke="black" stroke-width="0.6"/>
<ellipse cx="195.871" cy="186.198" rx="12.0152" ry="12.0414" fill="#FDD504" stroke="black" stroke-width="0.6"/>
<ellipse cx="295.87" cy="67.3877" rx="26.2078" ry="26.2651" fill="#E43334" stroke="black" stroke-width="0.6"/>
</g>
<defs>
<linearGradient id="paint0_linear_18_1019" x1="183.823" y1="483.349" x2="183.84" y2="475.574" gradientUnits="userSpaceOnUse">
<stop offset="0.1011" stop-color="#CB541D"/>
<stop offset="0.8855" stop-color="#CB1F11"/>
</linearGradient>
</defs>
</svg>
