<svg width="375" height="375" viewBox="0 0 375 375" fill="none" xmlns="http://www.w3.org/2000/svg">
<mask id="mask0_18_1410" style="mask-type:luminance" maskUnits="userSpaceOnUse" x="-40" y="0" width="500" height="375">
<rect x="-40" width="500" height="375" fill="white"/>
</mask>
<g mask="url(#mask0_18_1410)">
<path d="M273.585 281.677L275.536 281.414C275.536 281.414 280.188 269.285 277.637 262.001L272.835 265.23L273.385 276.893" fill="#1A80FD"/>
<path d="M273.585 281.677L275.536 281.414C275.536 281.414 280.188 269.285 277.637 262.001L272.835 265.23L273.385 276.893" stroke="black" stroke-width="0.625" stroke-linecap="round" stroke-linejoin="round"/>
<path d="M185.404 339.703L183.703 343.407L184.253 347.556L275.535 281.414V277.922L270.734 273.566L185.404 339.703Z" fill="#E43334" stroke="black" stroke-width="0.625" stroke-linecap="round" stroke-linejoin="round"/>
<path d="M22.2463 252.289L16.2441 252.689V256.894L184.253 347.556L183.703 343.407V334.596" fill="#E43334"/>
<path d="M22.2463 252.289L16.2441 252.689V256.894L184.253 347.556L183.703 343.407V334.596" stroke="black" stroke-width="0.625" stroke-linecap="round" stroke-linejoin="round"/>
<path d="M16.2441 252.689C16.2441 252.689 63.0607 199.82 126.083 206.429L275.536 277.922L183.703 343.407L16.2441 252.689Z" fill="#E43334"/>
<mask id="mask1_18_1410" style="mask-type:luminance" maskUnits="userSpaceOnUse" x="16" y="205" width="260" height="139">
<path fill-rule="evenodd" clip-rule="evenodd" d="M16.2441 252.689C16.2441 252.689 63.0607 199.82 126.083 206.429L275.536 277.922L183.703 343.407L16.2441 252.689Z" fill="white"/>
</mask>
<g mask="url(#mask1_18_1410)">
<path d="M41.4483 249.069C29.8488 247.482 186.147 332.027 182.248 337.234C178.349 342.441 214.86 319.935 201.105 310.561C187.35 301.187 145.89 287.366 145.89 287.366" fill="#E43334"/>
<path d="M41.4483 249.069C29.8488 247.482 186.147 332.027 182.248 337.234C178.349 342.441 214.86 319.935 201.105 310.561C187.35 301.187 145.89 287.366 145.89 287.366" stroke="black" stroke-width="0.625" stroke-linecap="round" stroke-linejoin="round"/>
</g>
<path fill-rule="evenodd" clip-rule="evenodd" d="M16.2441 252.689C16.2441 252.689 63.0607 199.82 126.083 206.429L275.536 277.922L183.703 343.407L16.2441 252.689Z" stroke="black" stroke-width="0.625" stroke-linecap="round" stroke-linejoin="round"/>
<path d="M250.327 274.632L275.536 277.922L277.636 262.001L233.221 243.077L250.327 274.632Z" fill="#1A80FD" stroke="black" stroke-width="0.625" stroke-linecap="round" stroke-linejoin="round"/>
<path d="M275.618 265.005L278.401 263.803C278.401 263.803 324.753 212.737 403.181 218.444L403.756 216.191L359.565 211.235L286.039 225.053L271.334 256.293L275.618 265.005Z" fill="#E43334" stroke="black" stroke-width="0.625" stroke-linecap="round" stroke-linejoin="round"/>
<path d="M268.334 261.701L277.637 262.001C277.637 262.001 323.028 209.583 403.756 216.192L331.356 183.299L233.221 213.438L214.314 237.87L268.334 261.701Z" fill="#E43334" stroke="black" stroke-width="0.625" stroke-linecap="round" stroke-linejoin="round"/>
<path d="M45.4541 222.65L31.8493 228.257C31.8493 228.257 33.85 240.673 29.8486 247.482L184.473 333.015L183.479 306.849L45.4541 222.65Z" fill="white"/>
<mask id="mask2_18_1410" style="mask-type:luminance" maskUnits="userSpaceOnUse" x="29" y="222" width="156" height="112">
<path fill-rule="evenodd" clip-rule="evenodd" d="M45.4541 222.65L31.8493 228.257C31.8493 228.257 33.85 240.673 29.8486 247.482L184.473 333.015L183.479 306.849L45.4541 222.65Z" fill="white"/>
</mask>
<g mask="url(#mask2_18_1410)">
<path d="M22.1416 231.414L84.8637 265.005L21.2412 234.05L22.1416 231.414Z" fill="#D6DCF2"/>
</g>
<path fill-rule="evenodd" clip-rule="evenodd" d="M45.4541 222.65L31.8493 228.257C31.8493 228.257 33.85 240.673 29.8486 247.482L184.473 333.015L183.479 306.849L45.4541 222.65Z" stroke="black" stroke-width="0.625" stroke-linecap="round" stroke-linejoin="round"/>
<path d="M367.215 198.093L389.771 212.872C389.771 212.872 325.301 205.857 278.401 263.803L272.089 276.273L254.328 257.911L255.429 243.301L285.939 205.857L319.951 201.222" fill="white"/>
<path d="M367.215 198.093L389.771 212.872C389.771 212.872 325.301 205.857 278.401 263.803L272.089 276.273L254.328 257.911L255.429 243.301L285.939 205.857L319.951 201.222" stroke="black" stroke-width="0.625" stroke-linecap="round" stroke-linejoin="round"/>
<path d="M189.906 279.524L182.873 307.753L184.474 333.015L272.09 276.273L267.429 265.005L205.611 262.001L189.906 279.524Z" fill="white" stroke="black" stroke-width="0.625" stroke-linecap="round" stroke-linejoin="round"/>
<path d="M141.488 193.813C141.488 193.813 80.2667 163.373 31.8496 228.257L183.479 306.849C183.479 306.849 215.41 265.506 267.428 265.005L141.488 193.813Z" fill="white" stroke="black" stroke-width="0.625" stroke-linecap="round" stroke-linejoin="round"/>
<path d="M231.52 119.315C217.915 138.14 153.893 136.538 141.488 193.812L267.428 265.005C267.428 265.005 325.039 195.57 368.254 198.774L231.52 119.315Z" fill="white"/>
<mask id="mask3_18_1410" style="mask-type:luminance" maskUnits="userSpaceOnUse" x="141" y="119" width="228" height="147">
<path fill-rule="evenodd" clip-rule="evenodd" d="M231.52 119.315C217.915 138.14 153.893 136.538 141.488 193.812L267.428 265.005C267.428 265.005 325.039 195.57 368.254 198.774L231.52 119.315Z" fill="white"/>
</mask>
<g mask="url(#mask3_18_1410)">
<path d="M150.092 166.762C141.489 193.812 240.319 231.956 237.918 248.323C235.517 264.69 119.035 205.939 119.035 205.939V145.134" fill="#D6DCF2"/>
</g>
<path fill-rule="evenodd" clip-rule="evenodd" d="M231.52 119.315C217.915 138.14 153.893 136.538 141.488 193.812L267.428 265.005C267.428 265.005 325.039 195.57 368.254 198.774V198.774L231.52 119.315Z" stroke="black" stroke-width="0.625" stroke-linecap="round" stroke-linejoin="round"/>
<path d="M31.8496 199.806C31.8496 199.806 81.0716 166.192 141.488 193.813L267.428 265.005C267.428 265.005 203.906 246.266 173.495 279.91L31.8496 199.806Z" fill="white"/>
<mask id="mask4_18_1410" style="mask-type:luminance" maskUnits="userSpaceOnUse" x="31" y="182" width="237" height="98">
<path fill-rule="evenodd" clip-rule="evenodd" d="M31.8496 199.806C31.8496 199.806 81.0716 166.192 141.488 193.813L267.428 265.005C267.428 265.005 203.906 246.266 173.495 279.91L31.8496 199.806Z" fill="white"/>
</mask>
<g mask="url(#mask4_18_1410)">
<path d="M58.7979 200.372L109.249 228.628C109.249 228.628 128.779 214.818 168.429 214.412L137.22 195.875C137.22 195.875 99.643 181.565 58.7979 200.372Z" fill="#D6DCF2"/>
</g>
<path fill-rule="evenodd" clip-rule="evenodd" d="M31.8496 199.806C31.8496 199.806 81.0716 166.192 141.488 193.813L267.428 265.005C267.428 265.005 203.906 246.266 173.495 279.91L31.8496 199.806Z" stroke="black" stroke-width="0.625" stroke-linecap="round" stroke-linejoin="round"/>
<path d="M118.837 237.89L122.24 239.717C122.24 239.717 148.923 220.208 172.859 219.965L169.85 217.922C169.85 217.922 140.409 221.419 118.837 237.89Z" fill="#D6DCF2"/>
<path d="M131.769 245.693L135.172 247.519C135.172 247.519 161.855 228.011 185.791 227.768L182.782 225.725C182.782 225.725 153.341 229.222 131.769 245.693Z" fill="#D6DCF2"/>
<path d="M143.903 253.313L147.307 255.14C147.307 255.14 173.99 235.631 197.925 235.388L194.916 233.345C194.916 233.345 165.476 236.842 143.903 253.313Z" fill="#D6DCF2"/>
<path d="M119.467 212.792L115.844 213.698" stroke="black" stroke-width="0.625"/>
<path d="M253.349 191.798L257.04 187.321" stroke="black" stroke-width="0.625"/>
<path d="M228.858 288.064C227.481 289.225 225.841 290.031 224.081 290.412" stroke="black" stroke-width="0.625"/>
<path d="M158.662 55.1794C158.528 51.4586 157.61 47.8079 155.968 44.466C155.345 43.1974 154.62 41.9814 153.8 40.8298C147.684 32.2213 136.716 27.7889 125.865 30.5224C115.014 33.256 107.45 42.3571 106.134 52.8383C105.956 54.241 105.893 55.6556 105.944 57.0685C106.078 60.7894 106.996 64.44 108.638 67.782C115.075 67.5749 123.721 66.4504 134.234 63.8021C144.746 61.1538 152.894 58.0474 158.662 55.1794Z" fill="#1B80FD"/>
<mask id="mask5_18_1410" style="mask-type:luminance" maskUnits="userSpaceOnUse" x="105" y="29" width="54" height="39">
<path fill-rule="evenodd" clip-rule="evenodd" d="M158.662 55.1794C158.528 51.4586 157.61 47.8079 155.968 44.466C155.345 43.1974 154.62 41.9814 153.8 40.8298C147.684 32.2213 136.716 27.7889 125.865 30.5224C115.014 33.256 107.45 42.3571 106.134 52.8383C105.956 54.241 105.893 55.6556 105.944 57.0685C106.078 60.7894 106.996 64.44 108.638 67.782C115.075 67.5749 123.721 66.4504 134.234 63.8021C144.746 61.1538 152.894 58.0474 158.662 55.1794Z" fill="white"/>
</mask>
<g mask="url(#mask5_18_1410)">
<path d="M115.325 26.1702C171.461 29.4972 159.935 60.3155 119.908 66.7076C79.8798 73.0996 172.809 62.4891 172.809 62.4891L171.291 31.9006L128.723 23.6255L117.36 29.371" fill="#1D62FC"/>
</g>
<path fill-rule="evenodd" clip-rule="evenodd" d="M158.662 55.1794C158.528 51.4586 157.61 47.8079 155.968 44.466C155.345 43.1974 154.62 41.9814 153.8 40.8298C147.684 32.2213 136.716 27.7889 125.865 30.5224C115.014 33.256 107.45 42.3571 106.134 52.8383C105.956 54.241 105.893 55.6556 105.944 57.0685C106.078 60.7894 106.996 64.44 108.638 67.782C115.075 67.5749 123.721 66.4504 134.234 63.8021C144.746 61.1538 152.894 58.0474 158.662 55.1794Z" stroke="black" stroke-width="0.625" stroke-linecap="round" stroke-linejoin="round"/>
<path d="M110.806 71.4181C116.922 80.0268 127.89 84.4592 138.741 81.7255C149.592 78.9918 157.156 69.8907 158.473 59.4097C151.976 62.4215 143.861 65.2136 135.141 67.4103C126.422 69.6069 117.952 70.9932 110.806 71.4181Z" fill="#1B80FD"/>
<path fill-rule="evenodd" clip-rule="evenodd" d="M110.806 71.4181C116.922 80.0268 127.89 84.4592 138.741 81.7255C149.592 78.9918 157.156 69.8907 158.473 59.4097C151.976 62.4215 143.861 65.2136 135.141 67.4103C126.422 69.6069 117.952 70.9932 110.806 71.4181Z" stroke="black" stroke-width="0.625" stroke-linecap="round" stroke-linejoin="round"/>
<path d="M172.674 45.9534C171.783 42.4086 166.805 40.6365 157.878 40.6881C156.578 40.6956 155.212 40.7457 153.8 40.8296C154.62 41.9812 155.345 43.1973 155.968 44.4659C164.098 44.2045 168.703 45.407 169.069 46.8615C169.435 48.316 165.947 51.5572 158.662 55.1793C152.893 58.0473 144.746 61.1537 134.233 63.802C123.721 66.4503 115.075 67.5748 108.637 67.7819C100.507 68.0435 95.9019 66.8408 95.536 65.3865C95.1704 63.9319 98.6579 60.6906 105.943 57.0685C105.892 55.6556 105.956 54.2409 106.133 52.8383C104.849 53.4335 103.623 54.0364 102.474 54.6462C94.5867 58.8302 91.0398 62.7498 91.9312 66.2945C92.8226 69.8394 97.8006 71.6113 106.727 71.5597C108.027 71.5523 109.393 71.5023 110.805 71.4182C117.952 70.9933 126.421 69.6071 135.141 67.4104C143.86 65.2137 151.975 62.4216 158.472 59.4098C159.756 58.8144 160.982 58.2114 162.131 57.6019C170.018 53.4176 173.565 49.4981 172.674 45.9534Z" fill="#FACCC4"/>
<mask id="mask6_18_1410" style="mask-type:luminance" maskUnits="userSpaceOnUse" x="91" y="40" width="82" height="32">
<path fill-rule="evenodd" clip-rule="evenodd" d="M172.674 45.9534C171.783 42.4086 166.805 40.6365 157.878 40.6881C156.578 40.6956 155.212 40.7457 153.8 40.8296C154.62 41.9812 155.345 43.1973 155.968 44.4659C164.098 44.2045 168.703 45.407 169.069 46.8615C169.435 48.316 165.947 51.5572 158.662 55.1793C152.893 58.0473 144.746 61.1537 134.233 63.802C123.721 66.4503 115.075 67.5748 108.637 67.7819C100.507 68.0435 95.9019 66.8408 95.536 65.3865C95.1704 63.9319 98.6579 60.6906 105.943 57.0685C105.892 55.6556 105.956 54.2409 106.133 52.8383C104.849 53.4335 103.623 54.0364 102.474 54.6462C94.5867 58.8302 91.0398 62.7498 91.9312 66.2945C92.8226 69.8394 97.8006 71.6113 106.727 71.5597C108.027 71.5523 109.393 71.5023 110.805 71.4182C117.952 70.9933 126.421 69.6071 135.141 67.4104C143.86 65.2137 151.975 62.4216 158.472 59.4098C159.756 58.8144 160.982 58.2114 162.131 57.6019C170.018 53.4176 173.565 49.4981 172.674 45.9534Z" fill="white"/>
</mask>
<g mask="url(#mask6_18_1410)">
<path d="M85.8154 56.1238C110.576 52.2195 108.202 63.3517 108.202 63.3517L114.307 49.5266L104.471 47.4868" fill="#ED707B"/>
<path d="M147.039 36.9478C159.419 38.6392 160.776 47.4869 160.776 47.4869L150.261 49.5267L146.869 46.2782" fill="#ED707B"/>
</g>
<path fill-rule="evenodd" clip-rule="evenodd" d="M172.674 45.9534C171.783 42.4086 166.805 40.6365 157.878 40.6881C156.578 40.6956 155.212 40.7457 153.8 40.8296C154.62 41.9812 155.345 43.1973 155.968 44.4659C164.098 44.2045 168.703 45.407 169.069 46.8615C169.435 48.316 165.947 51.5572 158.662 55.1793C152.893 58.0473 144.746 61.1537 134.233 63.802C123.721 66.4503 115.075 67.5748 108.637 67.7819C100.507 68.0435 95.9019 66.8408 95.536 65.3865C95.1704 63.9319 98.6579 60.6906 105.943 57.0685C105.892 55.6556 105.956 54.2409 106.133 52.8383C104.849 53.4335 103.623 54.0364 102.474 54.6462C94.5867 58.8302 91.0398 62.7498 91.9312 66.2945C92.8226 69.8394 97.8006 71.6113 106.727 71.5597C108.027 71.5523 109.393 71.5023 110.805 71.4182C117.952 70.9933 126.421 69.6071 135.141 67.4104C143.86 65.2137 151.975 62.4216 158.472 59.4098C159.756 58.8144 160.982 58.2114 162.131 57.6019C170.018 53.4176 173.565 49.4981 172.674 45.9534Z" stroke="black" stroke-width="0.625" stroke-linecap="round" stroke-linejoin="round"/>
<path d="M129.186 42.5405C128.98 44.051 128.436 45.4954 127.594 46.7662" stroke="black" stroke-width="0.625"/>
<path d="M144.584 70.7319L141.672 72.7267" stroke="black" stroke-width="0.625"/>
<path d="M275.549 189.574H300.146V206.675C300.146 212.898 295.101 217.943 288.878 217.943H286.816C280.593 217.943 275.549 212.898 275.549 206.675V189.574H275.549Z" fill="#E43334" stroke="black" stroke-width="0.625" stroke-linecap="round" stroke-linejoin="round"/>
<path d="M269.875 183.866H305.82V204.173C305.82 208.625 302.211 212.234 297.759 212.234H277.936C275.798 212.234 273.748 211.385 272.236 209.873C270.724 208.361 269.875 206.311 269.875 204.173V183.866H269.875Z" fill="#E43334"/>
<mask id="mask7_18_1410" style="mask-type:luminance" maskUnits="userSpaceOnUse" x="269" y="183" width="37" height="30">
<path fill-rule="evenodd" clip-rule="evenodd" d="M269.875 183.866H305.82V204.173C305.82 208.625 302.211 212.234 297.759 212.234H277.936C275.798 212.234 273.748 211.385 272.236 209.873C270.724 208.361 269.875 206.311 269.875 204.173V183.866H269.875Z" fill="white"/>
</mask>
<g mask="url(#mask7_18_1410)">
<path d="M273.171 213.561C263.746 185.259 289.382 190.682 310.871 189.574C332.36 188.467 297.676 181.485 297.676 181.485L269.875 183.866L266.95 196.391L268.508 211.297" fill="#C11F27"/>
</g>
<path fill-rule="evenodd" clip-rule="evenodd" d="M269.875 183.866H305.82V204.173C305.82 208.625 302.211 212.234 297.759 212.234H277.936C275.798 212.234 273.748 211.385 272.236 209.873C270.724 208.361 269.875 206.311 269.875 204.173V183.866H269.875Z" stroke="black" stroke-width="0.625" stroke-linecap="round" stroke-linejoin="round"/>
<path d="M323.102 136.297C323.102 117.002 307.631 101.324 288.429 101.014C275.691 100.821 263.838 107.505 257.413 118.505C250.987 129.505 250.987 143.114 257.413 154.114C263.21 164.011 266.419 175.212 266.419 186.685C266.419 187.325 266.937 187.844 267.577 187.844H308.118C308.426 187.844 308.721 187.722 308.938 187.504C309.155 187.287 309.277 186.992 309.277 186.685C309.277 175.348 312.238 164.174 318.077 154.46C321.375 148.976 323.112 142.696 323.102 136.297Z" fill="#FDD504"/>
<mask id="mask8_18_1410" style="mask-type:luminance" maskUnits="userSpaceOnUse" x="252" y="101" width="72" height="87">
<path fill-rule="evenodd" clip-rule="evenodd" d="M323.102 136.297C323.102 117.002 307.631 101.324 288.429 101.014C275.691 100.821 263.838 107.505 257.413 118.505C250.987 129.505 250.987 143.114 257.413 154.114C263.21 164.011 266.419 175.212 266.419 186.685C266.419 187.325 266.937 187.844 267.577 187.844H308.118C308.426 187.844 308.721 187.722 308.938 187.504C309.155 187.287 309.277 186.992 309.277 186.685C309.277 175.348 312.238 164.174 318.077 154.46C321.375 148.976 323.112 142.696 323.102 136.297Z" fill="white"/>
</mask>
<g mask="url(#mask8_18_1410)">
<path d="M264.124 106.39C226.8 147.145 286.744 191.232 317.658 187.491C348.573 183.749 273.172 213.561 273.172 213.561L241.171 198.05L229.062 140.322" fill="#FCB006"/>
</g>
<path fill-rule="evenodd" clip-rule="evenodd" d="M323.102 136.297C323.102 117.002 307.631 101.324 288.429 101.014C275.691 100.821 263.838 107.505 257.413 118.505C250.987 129.505 250.987 143.114 257.413 154.114C263.21 164.011 266.419 175.212 266.419 186.685V186.685C266.419 187.325 266.937 187.844 267.577 187.844H308.118C308.426 187.844 308.721 187.722 308.938 187.504C309.155 187.287 309.277 186.992 309.277 186.685V186.685C309.277 175.348 312.238 164.174 318.077 154.46C321.375 148.976 323.112 142.696 323.102 136.297V136.297Z" stroke="black" stroke-width="0.625" stroke-linecap="round" stroke-linejoin="round"/>
<rect x="268.508" y="192.515" width="38.6787" height="5.5353" rx="2.53323" fill="white" stroke="black" stroke-width="0.625" stroke-linecap="round" stroke-linejoin="round"/>
<rect x="268.508" y="200.991" width="38.6787" height="5.5353" rx="2.53323" fill="white" stroke="black" stroke-width="0.625" stroke-linecap="round" stroke-linejoin="round"/>
<rect x="283.922" y="54.4404" width="7.85071" height="32.7993" rx="3.59629" fill="#FCB006" stroke="black" stroke-width="0.625" stroke-linecap="round" stroke-linejoin="round"/>
<rect x="208.401" y="137.891" width="7.85816" height="32.7682" rx="3.59629" transform="rotate(-90 208.401 137.891)" fill="#FCB006" stroke="black" stroke-width="0.625" stroke-linecap="round" stroke-linejoin="round"/>
<rect x="334.525" y="137.891" width="7.85816" height="32.7682" rx="3.59629" transform="rotate(-90 334.525 137.891)" fill="#FCB006" stroke="black" stroke-width="0.625" stroke-linecap="round" stroke-linejoin="round"/>
<rect x="228.884" y="80.5205" width="7.85444" height="32.7837" rx="3.59629" transform="rotate(-45.0272 228.884 80.5205)" fill="#FCB006" stroke="black" stroke-width="0.625" stroke-linecap="round" stroke-linejoin="round"/>
<rect x="323.618" y="103.691" width="7.85444" height="32.7837" rx="3.59629" transform="rotate(-134.973 323.618 103.691)" fill="#FCB006" stroke="black" stroke-width="0.625" stroke-linecap="round" stroke-linejoin="round"/>
<path d="M308.388 135.378C304.694 139.488 300.63 143.25 296.248 146.616" stroke="black" stroke-width="0.625"/>
<rect x="221.383" y="246.381" width="13.2452" height="29.0105" transform="rotate(-51.1563 221.383 246.381)" fill="#1AB995"/>
<mask id="mask9_18_1410" style="mask-type:luminance" maskUnits="userSpaceOnUse" x="221" y="236" width="32" height="29">
<rect x="221.383" y="246.381" width="13.2452" height="29.0105" transform="rotate(-51.1563 221.383 246.381)" fill="white"/>
</mask>
<g mask="url(#mask9_18_1410)">
<path d="M234.832 236.715C240.533 245.782 227.342 249.32 232.715 254.044C238.089 258.767 245.746 251.256 248.494 245.846C251.241 240.437 254.895 256.383 254.895 256.383L235.182 270.019L221.538 252.019L228.054 244.65" fill="#0FA379"/>
</g>
<rect x="221.383" y="246.381" width="13.2452" height="29.0105" transform="rotate(-51.1563 221.383 246.381)" stroke="black" stroke-width="0.625" stroke-linecap="round" stroke-linejoin="round"/>
<path d="M278.146 283.653C276.185 286.089 273.324 287.631 270.211 287.929C267.098 288.227 263.997 287.256 261.609 285.236L234.94 262.676L248.493 245.846L276.18 267.141C278.66 269.05 280.266 271.876 280.636 274.983C281.006 278.09 280.108 281.215 278.146 283.653Z" fill="#FCB006"/>
<mask id="mask10_18_1410" style="mask-type:luminance" maskUnits="userSpaceOnUse" x="234" y="245" width="47" height="43">
<path fill-rule="evenodd" clip-rule="evenodd" d="M278.146 283.653C276.185 286.089 273.324 287.631 270.211 287.929C267.098 288.227 263.997 287.256 261.609 285.236L234.94 262.676L248.493 245.846L276.18 267.141C278.66 269.05 280.266 271.876 280.636 274.983C281.006 278.09 280.108 281.215 278.146 283.653Z" fill="white"/>
</mask>
<g mask="url(#mask10_18_1410)">
<path d="M244.056 243.575C286.94 276.063 269.755 281.986 264.377 290.856C258.998 299.725 287.325 291.058 287.325 291.058L303.828 274.901L272.819 245.451L252.145 244.469" fill="#FDD504"/>
</g>
<path fill-rule="evenodd" clip-rule="evenodd" d="M278.146 283.653V283.653C276.185 286.089 273.324 287.631 270.211 287.929C267.098 288.227 263.997 287.256 261.609 285.236L234.94 262.676L248.493 245.846L276.18 267.141C278.66 269.05 280.266 271.876 280.636 274.983C281.006 278.09 280.108 281.215 278.146 283.653Z" stroke="black" stroke-width="0.625" stroke-linecap="round" stroke-linejoin="round"/>
<path fill-rule="evenodd" clip-rule="evenodd" d="M181.838 253.005C166.214 240.399 163.757 217.502 176.351 201.862C188.945 186.223 211.821 183.764 227.445 196.37C243.07 208.976 245.527 231.874 232.933 247.513C220.339 263.153 197.463 265.611 181.838 253.005ZM187.927 245.445C199.38 254.685 216.148 252.882 225.379 241.419C234.611 229.955 232.81 213.171 221.357 203.931C209.904 194.69 193.136 196.493 183.905 207.957C174.673 219.42 176.474 236.204 187.927 245.445Z" fill="#1AB995"/>
<path d="M176.351 201.862L176.108 201.666H176.108L176.351 201.862ZM181.838 253.005L181.642 253.249V253.249L181.838 253.005ZM225.379 241.419L225.623 241.615V241.615L225.379 241.419ZM176.108 201.666C163.405 217.44 165.883 240.534 181.642 253.249L182.035 252.762C166.544 240.264 164.108 217.564 176.595 202.058L176.108 201.666ZM181.642 253.249C197.401 265.963 220.474 263.483 233.176 247.709L232.689 247.317C220.204 262.822 197.525 265.26 182.035 252.762L181.642 253.249ZM233.176 247.709C245.879 231.935 243.401 208.841 227.642 196.127L227.249 196.613C242.74 209.111 245.175 231.812 232.689 247.317L233.176 247.709ZM227.642 196.127C211.883 183.412 188.81 185.892 176.108 201.666L176.595 202.058C189.08 186.553 211.759 184.116 227.249 196.613L227.642 196.127ZM225.136 241.223C216.013 252.552 199.441 254.333 188.123 245.201L187.731 245.688C199.318 255.037 216.283 253.213 225.623 241.615L225.136 241.223ZM188.123 245.201C176.804 236.07 175.025 219.482 184.148 208.153L183.661 207.761C174.321 219.359 176.143 236.339 187.731 245.688L188.123 245.201ZM184.148 208.153C193.271 196.823 209.842 195.042 221.161 204.174L221.553 203.687C209.966 194.339 193.001 196.162 183.661 207.761L184.148 208.153ZM221.161 204.174C232.479 213.306 234.259 229.893 225.136 241.223L225.623 241.615C234.962 230.017 233.14 213.036 221.553 203.687L221.161 204.174Z" fill="black"/>
<path d="M173.605 219.414C173.919 221.677 173.846 223.978 173.391 226.217" stroke="black" stroke-width="0.625"/>
<path d="M261.434 265.792L261.992 267.991" stroke="black" stroke-width="0.625"/>
<ellipse cx="45.434" cy="107.407" rx="21.8519" ry="21.8727" fill="#FDD504" stroke="black" stroke-width="0.625" stroke-linecap="round" stroke-linejoin="round"/>
<ellipse cx="326.711" cy="283.512" rx="9.93614" ry="9.94556" fill="#1AB995" stroke="black" stroke-width="0.625" stroke-linecap="round" stroke-linejoin="round"/>
<ellipse cx="235.559" cy="44.4948" rx="17.0347" ry="17.0509" fill="#E43334" stroke="black" stroke-width="0.625" stroke-linecap="round" stroke-linejoin="round"/>
<path d="M208.167 66.7366C206.892 65.7803 205.292 65.2622 203.647 65.1647L189.453 64.3241C183.437 63.9679 178.917 69.266 180.756 74.5188L185.299 87.4996L185.336 88.3094L185.495 88.0606L186.814 91.829C186.814 91.829 195.954 95.5838 207.427 83.2099C215.552 74.4451 211.325 69.1057 208.167 66.7366Z" fill="#485065" stroke="black" stroke-width="0.625" stroke-linecap="round" stroke-linejoin="round"/>
<path d="M188.125 125.754L209.38 151.543C211.7 154.359 215.235 155.036 217.943 153.183L241.744 136.9C241.744 136.9 250.182 135 247.767 130.704C247.767 130.704 249.607 127.467 245.77 125.896C245.77 125.896 245.952 120.864 241.745 122.359C241.745 122.359 240.512 120.63 238.877 123.475C238.215 124.669 237.817 125.991 237.709 127.353L237.625 128.262L217.657 139.221L203.964 119.626L188.125 125.754Z" fill="#F9C1BB"/>
<mask id="mask11_18_1410" style="mask-type:luminance" maskUnits="userSpaceOnUse" x="188" y="119" width="61" height="36">
<path fill-rule="evenodd" clip-rule="evenodd" d="M188.125 125.754L209.38 151.543C211.7 154.359 215.235 155.036 217.943 153.183L241.744 136.9C241.744 136.9 250.182 135 247.767 130.704C247.767 130.704 249.607 127.467 245.77 125.896C245.77 125.896 245.952 120.864 241.745 122.359C241.745 122.359 240.512 120.63 238.877 123.475C238.215 124.669 237.817 125.991 237.709 127.353L237.625 128.262L217.657 139.221L203.964 119.626L188.125 125.754Z" fill="white"/>
</mask>
<g mask="url(#mask11_18_1410)">
<path d="M211.01 129.481C218.249 144.672 195.542 151.533 196.586 158.124C197.63 164.716 192.117 144.807 192.117 144.807L199.065 132.162" fill="#ED707B"/>
</g>
<path fill-rule="evenodd" clip-rule="evenodd" d="M188.125 125.754L209.38 151.543C211.7 154.359 215.235 155.036 217.943 153.183L241.744 136.9C241.744 136.9 250.182 135 247.767 130.704C247.767 130.704 249.607 127.467 245.77 125.896C245.77 125.896 245.952 120.864 241.745 122.359C241.745 122.359 240.512 120.63 238.877 123.475C238.215 124.669 237.817 125.991 237.709 127.353L237.625 128.262L217.657 139.221L203.964 119.626L188.125 125.754Z" stroke="black" stroke-width="0.625" stroke-linecap="round" stroke-linejoin="round"/>
<path d="M198.614 147.095C198.614 147.095 214.365 139.584 211.782 130.813L199.667 111.395L178.679 119.899L198.614 147.095Z" fill="#1AB995"/>
<mask id="mask12_18_1410" style="mask-type:luminance" maskUnits="userSpaceOnUse" x="178" y="111" width="35" height="37">
<path fill-rule="evenodd" clip-rule="evenodd" d="M198.614 147.095C198.614 147.095 214.365 139.584 211.782 130.813L199.667 111.395L178.679 119.899L198.614 147.095Z" fill="white"/>
</mask>
<g mask="url(#mask12_18_1410)">
<path d="M193.165 119.626C188.742 133.628 196.902 139.1 198.614 147.095C200.326 155.091 174.805 138.922 174.805 138.922L176.707 125.204L193.805 116.238" fill="#0FA379"/>
<path d="M189.566 145.438C207.76 143.324 210.78 126.518 210.78 126.518L213.772 129.245L212.82 140.674" fill="white"/>
<path d="M189.566 145.438C207.76 143.324 210.78 126.518 210.78 126.518L213.772 129.245L212.82 140.674" stroke="black" stroke-width="0.625" stroke-linecap="round" stroke-linejoin="round"/>
</g>
<path fill-rule="evenodd" clip-rule="evenodd" d="M198.614 147.095C198.614 147.095 214.365 139.584 211.782 130.813L199.667 111.395L178.679 119.899L198.614 147.095Z" stroke="black" stroke-width="0.625" stroke-linecap="round" stroke-linejoin="round"/>
<path d="M77.9228 167.353C77.3062 167.009 58.1012 160.111 58.1012 160.111L51.7363 170.897L55.8022 172.603L73.6886 179.847L77.9228 167.353Z" fill="#F9C1BB"/>
<mask id="mask13_18_1410" style="mask-type:luminance" maskUnits="userSpaceOnUse" x="51" y="160" width="27" height="20">
<path fill-rule="evenodd" clip-rule="evenodd" d="M77.9228 167.353C77.3062 167.009 58.1012 160.111 58.1012 160.111L51.7363 170.897L55.8022 172.603L73.6886 179.847L77.9228 167.353Z" fill="white"/>
</mask>
<g mask="url(#mask13_18_1410)">
<path d="M74.8625 163.349C65.1848 162.193 70.8617 171.575 58.2492 176.031C45.6367 180.487 63.4417 179.848 63.4417 179.848L64.8291 179.129L68.6918 169.356" fill="#ED707B"/>
</g>
<path fill-rule="evenodd" clip-rule="evenodd" d="M77.9228 167.353C77.3062 167.009 58.1012 160.111 58.1012 160.111L51.7363 170.897L55.8022 172.603L73.6886 179.847L77.9228 167.353Z" stroke="black" stroke-width="0.625" stroke-linecap="round" stroke-linejoin="round"/>
<path d="M35.8086 194.012C43.9845 195.754 50.7683 173.748 56.8953 173.249C56.8953 173.249 60.2381 163.146 63.8178 161.963L58.2722 158.666C55.5662 157.057 52.1395 158.26 50.7478 161.307L35.8086 194.012Z" fill="#485065" stroke="black" stroke-width="0.625" stroke-linecap="round" stroke-linejoin="round"/>
<path d="M70.4528 164.067C67.1854 164.067 62.7881 182.401 62.7881 182.401L105.6 205.17C109.948 207.483 115.096 206.95 118.981 203.785L174.01 158.958L147.961 134.506L108.611 179.257C108.611 179.257 73.7203 164.067 70.4528 164.067Z" fill="#1A80FD"/>
<mask id="mask14_18_1410" style="mask-type:luminance" maskUnits="userSpaceOnUse" x="62" y="134" width="113" height="73">
<path fill-rule="evenodd" clip-rule="evenodd" d="M70.4528 164.067C67.1854 164.067 62.7881 182.401 62.7881 182.401L105.6 205.17C109.948 207.483 115.096 206.95 118.981 203.785L174.01 158.958L147.961 134.506L108.611 179.257C108.611 179.257 73.7203 164.067 70.4528 164.067Z" fill="white"/>
</mask>
<g mask="url(#mask14_18_1410)">
<path d="M67.9951 188.586C69.355 180.964 73.8457 163.541 77.9237 165.31" stroke="white" stroke-width="0.625" stroke-linecap="round" stroke-linejoin="round"/>
<path d="M73.7061 171.572C73.7061 171.572 107.975 185.32 109.063 185.592C110.15 185.864 143.467 149.793 143.467 149.793" stroke="white" stroke-width="0.625" stroke-linecap="round" stroke-linejoin="round"/>
<ellipse cx="115.847" cy="209.255" rx="15.6233" ry="9.14102" fill="#FDD504" stroke="black" stroke-width="0.625" stroke-linecap="round" stroke-linejoin="round"/>
</g>
<path fill-rule="evenodd" clip-rule="evenodd" d="M70.4528 164.067C67.1854 164.067 62.7881 182.401 62.7881 182.401L105.6 205.17C109.948 207.483 115.096 206.95 118.981 203.785L174.01 158.958L147.961 134.506L108.611 179.257C108.611 179.257 73.7203 164.067 70.4528 164.067Z" stroke="black" stroke-width="0.625" stroke-linecap="round" stroke-linejoin="round"/>
<path d="M259.461 197.332C259.984 197.837 277.253 209.837 277.253 209.837L286.29 201.098L282.696 198.319L266.82 186.344L259.461 197.332Z" fill="#F9C1BB"/>
<mask id="mask15_18_1410" style="mask-type:luminance" maskUnits="userSpaceOnUse" x="259" y="186" width="28" height="24">
<path fill-rule="evenodd" clip-rule="evenodd" d="M259.461 197.332C259.984 197.837 277.253 209.837 277.253 209.837L286.29 201.098L282.696 198.319L266.82 186.344L259.461 197.332Z" fill="white"/>
</mask>
<g mask="url(#mask15_18_1410)">
<path d="M262.24 208.333C272.416 203.786 272.875 189.051 272.875 189.051L259.461 195.054" fill="#ED707B"/>
</g>
<path fill-rule="evenodd" clip-rule="evenodd" d="M259.461 197.332C259.984 197.837 277.253 209.837 277.253 209.837L286.29 201.098L282.696 198.319L266.82 186.344L259.461 197.332Z" stroke="black" stroke-width="0.625" stroke-linecap="round" stroke-linejoin="round"/>
<path d="M307.921 183C300.266 179.054 287.971 198.592 281.778 197.389C281.778 197.389 275.907 206.296 272.062 206.461L276.718 211.195C278.99 213.506 282.688 213.28 284.839 210.699L307.921 183Z" fill="#485065" stroke="black" stroke-width="0.625" stroke-linecap="round" stroke-linejoin="round"/>
<path d="M256.692 208.334C257.596 208.578 275.945 195.31 273.164 187.828L221.605 148.834C219.624 147.326 217.326 146.291 214.885 145.805L140.654 119.956L132.316 142.187C130.983 146.309 131.202 150.888 133.134 154.722C136.247 160.902 142.254 165.094 149.147 165.238L205.365 170.727L256.692 208.334Z" fill="#1A80FD"/>
<mask id="mask16_18_1410" style="mask-type:luminance" maskUnits="userSpaceOnUse" x="131" y="119" width="143" height="90">
<path fill-rule="evenodd" clip-rule="evenodd" d="M256.692 208.334C257.596 208.578 275.945 195.31 273.164 187.828L221.605 148.834C219.624 147.326 217.326 146.291 214.885 145.805L140.654 119.956L132.316 142.187C130.983 146.309 131.202 150.888 133.134 154.722C136.247 160.902 142.254 165.094 149.147 165.238L205.365 170.727L256.692 208.334Z" fill="white"/>
</mask>
<g mask="url(#mask16_18_1410)">
<path d="M174.559 138.435C140.515 137.234 128.509 141.433 143.543 166.812C158.577 192.192 128.621 163.964 128.621 163.964L131.347 110.272L154.53 130.15" fill="#1D62FC"/>
<path d="M242.602 206.595C259.461 197.332 267.895 184.301 268.711 176.031" stroke="white" stroke-width="0.625" stroke-linecap="round" stroke-linejoin="round"/>
<path d="M142.872 130.997C135.121 160.529 151.49 164.146 204.661 160.111L255.689 197.317" stroke="white" stroke-width="0.625" stroke-linecap="round" stroke-linejoin="round"/>
<path d="M143.569 147.096C156.726 148.569 154.38 137.531 154.38 137.531" stroke="white" stroke-width="0.625" stroke-linecap="round" stroke-linejoin="round"/>
<ellipse cx="226.938" cy="143.647" rx="15.6233" ry="9.14102" fill="#FDD504" stroke="black" stroke-width="0.625" stroke-linecap="round" stroke-linejoin="round"/>
</g>
<path fill-rule="evenodd" clip-rule="evenodd" d="M256.692 208.334C257.596 208.578 275.945 195.31 273.164 187.828L221.605 148.834C219.624 147.326 217.326 146.291 214.885 145.805L140.654 119.956L132.316 142.187C130.983 146.309 131.202 150.888 133.134 154.722C136.247 160.902 142.254 165.094 149.147 165.238L205.365 170.727L256.692 208.334Z" stroke="black" stroke-width="0.625" stroke-linecap="round" stroke-linejoin="round"/>
<path d="M200.059 112.164C200.059 112.164 187.24 86.9911 174.516 83.5005C174.516 83.5005 159.952 98.8328 134.231 124.748C153.148 141.664 174.95 136.917 174.95 136.917C174.95 136.917 185.856 128.381 193.294 121.065" fill="#1AB995"/>
<mask id="mask17_18_1410" style="mask-type:luminance" maskUnits="userSpaceOnUse" x="134" y="83" width="67" height="55">
<path fill-rule="evenodd" clip-rule="evenodd" d="M200.059 112.164C200.059 112.164 187.24 86.9911 174.516 83.5005C174.516 83.5005 159.952 98.8328 134.231 124.748C153.148 141.664 174.95 136.917 174.95 136.917C174.95 136.917 185.856 128.381 193.294 121.065" fill="white"/>
</mask>
<g mask="url(#mask17_18_1410)">
<ellipse cx="186.696" cy="95.3118" rx="12.484" ry="7.53057" transform="rotate(-82.5462 186.696 95.3118)" fill="white" stroke="black" stroke-width="0.625" stroke-linecap="round" stroke-linejoin="round"/>
<ellipse cx="188.125" cy="93.5235" rx="12.484" ry="7.15149" transform="rotate(-82.5451 188.125 93.5235)" fill="#F9C1BB" stroke="black" stroke-width="0.625" stroke-linecap="round" stroke-linejoin="round"/>
<path d="M168.504 107.444C152.29 107.184 122.622 137.101 173.635 137.137C224.647 137.173 174.95 136.916 174.95 136.916L150.663 143.648L124.752 125.593L141.811 104.799L153.101 102.394L168.504 107.444Z" fill="#0FA379"/>
<path d="M174.139 101.706L164.545 115.395L188.18 120.334L174.139 101.706Z" fill="white"/>
<mask id="mask18_18_1410" style="mask-type:luminance" maskUnits="userSpaceOnUse" x="164" y="101" width="25" height="20">
<path fill-rule="evenodd" clip-rule="evenodd" d="M174.139 101.706L164.545 115.395L188.18 120.334L174.139 101.706Z" fill="white"/>
</mask>
<g mask="url(#mask18_18_1410)">
<rect x="175.154" y="95.1851" width="6.07215" height="27.6297" transform="rotate(35.0765 175.154 95.1851)" fill="#2F387E" stroke="black" stroke-width="0.625" stroke-linecap="round" stroke-linejoin="round"/>
</g>
<path fill-rule="evenodd" clip-rule="evenodd" d="M174.139 101.706L164.545 115.395L188.18 120.334L174.139 101.706V101.706Z" stroke="black" stroke-width="0.625" stroke-linecap="round" stroke-linejoin="round"/>
</g>
<path d="M200.059 112.164C200.059 112.164 187.24 86.9911 174.516 83.5005C174.516 83.5005 159.952 98.8328 134.231 124.748C153.148 141.664 174.95 136.917 174.95 136.917C174.95 136.917 185.856 128.381 193.294 121.065" stroke="black" stroke-width="0.625" stroke-linecap="round" stroke-linejoin="round"/>
<path d="M168.396 83.4497L129.179 82.5097C124.898 82.407 121.097 85.1151 119.97 89.07L110.069 123.838C110.069 123.838 102.197 133.933 106.685 135.617C106.685 135.617 107.409 139.874 112.166 137.597C112.166 137.597 115.785 141.755 118.578 136.706C118.578 136.706 122.325 135.271 121.908 130.753C121.761 129.36 121.244 128.032 120.41 126.906L130.752 99.882L158.261 102.852L168.396 83.4497Z" fill="#F9C1BB"/>
<mask id="mask19_18_1410" style="mask-type:luminance" maskUnits="userSpaceOnUse" x="105" y="82" width="64" height="58">
<path fill-rule="evenodd" clip-rule="evenodd" d="M168.396 83.4497L129.179 82.5097C124.898 82.407 121.097 85.1151 119.97 89.07L110.069 123.838C110.069 123.838 102.197 133.933 106.685 135.617C106.685 135.617 107.409 139.874 112.166 137.597C112.166 137.597 115.785 141.755 118.578 136.706C118.578 136.706 122.325 135.271 121.908 130.753C121.761 129.36 121.244 128.032 120.41 126.906L130.752 99.882L158.261 102.852L168.396 83.4497Z" fill="white"/>
</mask>
<g mask="url(#mask19_18_1410)">
<path d="M141.301 82.5653C136.491 81.121 137.328 96.3045 133.252 100.152C129.177 103.998 140.687 106.668 140.687 106.668L143.757 93.2657" fill="#ED707B"/>
</g>
<path fill-rule="evenodd" clip-rule="evenodd" d="M168.396 83.4497L129.179 82.5097C124.898 82.407 121.097 85.1151 119.97 89.07L110.069 123.838C110.069 123.838 102.197 133.933 106.685 135.617C106.685 135.617 107.409 139.874 112.166 137.597C112.166 137.597 115.785 141.755 118.578 136.706C118.578 136.706 122.325 135.271 121.908 130.753C121.761 129.36 121.244 128.032 120.41 126.906V126.906L130.752 99.882L158.261 102.852L168.396 83.4497Z" stroke="black" stroke-width="0.625" stroke-linecap="round" stroke-linejoin="round"/>
<path d="M174.884 83.6075L139.404 82.5068C139.404 82.5068 133.226 100.802 141.306 104.912L168.396 107.203" fill="#1AB995"/>
<mask id="mask20_18_1410" style="mask-type:luminance" maskUnits="userSpaceOnUse" x="137" y="82" width="38" height="26">
<path fill-rule="evenodd" clip-rule="evenodd" d="M174.884 83.6075L139.404 82.5068C139.404 82.5068 133.226 100.802 141.306 104.912L168.396 107.203" fill="white"/>
</mask>
<g mask="url(#mask20_18_1410)">
<path d="M146.323 80.5106C138.056 87.6139 140.891 105.46 146.735 105.372C152.578 105.284 136.848 109.095 136.848 109.095L133.676 84.594L143.467 78.7544" fill="white"/>
<path d="M146.323 80.5106C138.056 87.6139 140.891 105.46 146.735 105.372C152.578 105.284 136.848 109.095 136.848 109.095L133.676 84.594L143.467 78.7544" stroke="black" stroke-width="0.625" stroke-linecap="round" stroke-linejoin="round"/>
</g>
<path d="M174.884 83.6075L139.404 82.5068C139.404 82.5068 133.226 100.802 141.306 104.912L168.396 107.203" stroke="black" stroke-width="0.625" stroke-linecap="round" stroke-linejoin="round"/>
<path d="M191.612 101.326L202.484 87.5375L190.401 81.9463L183.442 89.8537" fill="#F9C1BB"/>
<mask id="mask21_18_1410" style="mask-type:luminance" maskUnits="userSpaceOnUse" x="183" y="81" width="20" height="21">
<path fill-rule="evenodd" clip-rule="evenodd" d="M191.612 101.326L202.484 87.5375L190.401 81.9463L183.442 89.8537" fill="white"/>
</mask>
<g mask="url(#mask21_18_1410)">
<path d="M191.482 85.2529C194.169 90.3322 195.963 95.0603 194.728 98.1759C193.494 101.291 200.456 96.736 200.456 96.736L202.732 90.7033L191.482 85.2529" fill="#ED707B"/>
</g>
<path d="M191.612 101.326L202.484 87.5375L190.401 81.9463L183.442 89.8537" stroke="black" stroke-width="0.625" stroke-linecap="round" stroke-linejoin="round"/>
<path d="M193.633 89.7824C197.284 90.8073 204.409 91.5689 205.863 89.5146C209.153 84.8631 206.804 71.6939 202.38 68.9346C203.48 77.6877 195.168 80.7324 190.773 81.7228L190.926 84.9732" fill="#F9C1BB"/>
<path d="M193.633 89.7824C197.284 90.8073 204.409 91.5689 205.863 89.5146C209.153 84.8631 206.804 71.6939 202.38 68.9346C203.48 77.6877 195.168 80.7324 190.773 81.7228L190.926 84.9732" stroke="black" stroke-width="0.625" stroke-linecap="round" stroke-linejoin="round"/>
<path d="M194.2 81.258C187.997 74.4872 183.518 83.4048 191.702 85.1388L194.2 81.258Z" fill="#F9C1BB"/>
<path d="M194.2 81.258C187.997 74.4872 183.518 83.4048 191.702 85.1388" stroke="black" stroke-width="0.625" stroke-linecap="round" stroke-linejoin="round"/>
<path d="M202.544 76.487C203.055 76.3997 203.54 76.7429 203.627 77.2534L203.894 78.8176C203.982 79.3281 203.638 79.8127 203.128 79.9C202.617 79.9872 202.133 79.6441 202.046 79.1336L201.778 77.5694C201.691 77.0589 202.034 76.5743 202.544 76.487L202.544 76.487Z" fill="black"/>
<path d="M202.839 73.2508C200.026 73.6041 199.602 74.8689 201.375 74.7628C203.148 74.6568 204.678 73.02 202.839 73.2508Z" fill="black"/>
<path d="M205.345 77.8564C209.119 79.4573 208.473 83.2584 205.968 82.8099L205.345 77.8564Z" fill="#F9C1BB"/>
<path d="M205.345 77.8564C209.119 79.4573 208.473 83.2584 205.968 82.8099" stroke="black" stroke-width="0.625" stroke-linecap="round" stroke-linejoin="round"/>
<ellipse opacity="0.27" cx="199.858" cy="80.9941" rx="2.13541" ry="1.57617" fill="#ED707B"/>
<path d="M201.138 83.083C201.951 84.0316 203.216 84.4619 204.439 84.2056L201.138 83.083Z" fill="#F9C1BB"/>
<path d="M201.138 83.083C201.951 84.0316 203.216 84.4619 204.439 84.2056" stroke="#BA424D" stroke-width="0.625" stroke-linecap="round" stroke-linejoin="round"/>
<path d="M191.602 81.42C191.417 81.1044 191.06 80.9318 190.698 80.9831C190.335 81.0344 190.04 81.2994 189.95 81.654C189.86 82.0086 189.993 82.3825 190.286 82.6006" stroke="black" stroke-width="0.625"/>
<path d="M192.368 67.4355C192.939 68.4976 192.615 69.9559 191.648 70.6757" stroke="black" stroke-width="0.625"/>
<path d="M154.381 121.497C154.698 123.483 155.721 125.288 157.263 126.58" stroke="black" stroke-width="0.625"/>
<path d="M201.24 125.559L200.434 128.556" stroke="black" stroke-width="0.625"/>
<path d="M205.363 170.215L206.148 166.125" stroke="black" stroke-width="0.625"/>
<path d="M108.841 179.445L109.636 181.36" stroke="black" stroke-width="0.625"/>
<path d="M169.804 149.909C167.204 151.982 164.207 153.503 160.998 154.379" stroke="black" stroke-width="0.625"/>
<path d="M56.9825 181.235C57.2918 178.514 56.2783 175.811 54.2571 173.964C52.6671 179.743 51.2849 185.575 50.1104 191.458" stroke="black" stroke-width="0.625"/>
<path d="M282.873 192.05L283.935 197.67C286.537 194.735 288.915 191.609 291.05 188.319" stroke="black" stroke-width="0.625"/>
</g>
</svg>
