<svg width="370" height="316" viewBox="0 0 370 316" fill="none" xmlns="http://www.w3.org/2000/svg">
<path d="M295.825 177.686C295.825 177.686 289.055 177.067 278.863 178.097C277.249 191.523 277.884 202.581 277.884 202.581C273.722 193.825 271.678 185.287 270.675 179.21C260.161 181 247.556 184.584 235.283 191.609C233.176 208.202 233.868 222.181 233.868 222.181C229.851 213.111 227.653 204.228 226.451 197.352C210.715 208.914 196.585 227.116 189.609 255.735C182.96 283.011 184.049 298.262 188.622 306.391C252.37 272.165 295.825 177.686 295.825 177.686Z" fill="#1AB995" stroke="black" stroke-width="0.6"/>
<path d="M295.824 177.686C295.824 177.686 252.37 272.165 188.622 306.391C198.444 323.848 224.356 308.418 224.356 308.418C239.998 310.062 258.304 302.523 272.922 286.749C269.903 284.149 267.128 281.279 264.631 278.174C264.631 278.174 270.594 279.793 278.783 279.692C282.65 274.489 285.977 268.904 288.71 263.025C287.425 262.361 286.114 261.625 284.777 260.795C284.777 260.795 286.897 260.521 290.217 259.629C294.04 250.618 296.866 240.436 298.314 229.128C292.155 229.15 286.044 228.058 280.274 225.906C280.274 225.906 289.071 224.085 299.217 219.033C299.872 206.452 298.887 192.649 295.824 177.686Z" fill="#1AB995"/>
<mask id="mask0_18_1592" style="mask-type:luminance" maskUnits="userSpaceOnUse" x="188" y="177" width="112" height="138">
<path fill-rule="evenodd" clip-rule="evenodd" d="M295.824 177.686C295.824 177.686 252.37 272.165 188.622 306.391C198.444 323.848 224.356 308.418 224.356 308.418C239.998 310.062 258.304 302.523 272.922 286.749C269.903 284.149 267.128 281.279 264.631 278.174C264.631 278.174 270.594 279.793 278.783 279.692C282.65 274.489 285.977 268.904 288.71 263.025C287.425 262.361 286.114 261.625 284.777 260.795C284.777 260.795 286.897 260.521 290.217 259.629C294.04 250.618 296.866 240.436 298.314 229.128C292.155 229.15 286.044 228.058 280.274 225.906C280.274 225.906 289.071 224.085 299.217 219.033C299.872 206.452 298.887 192.649 295.824 177.686Z" fill="white"/>
</mask>
<g mask="url(#mask0_18_1592)">
<path d="M288.961 191.264C238.936 315.562 259.217 303.798 295.824 296.607C332.431 289.416 267.337 325.723 264.647 326.861C261.958 328 198.591 325.267 201.552 320.414C204.513 315.562 225.833 219.598 225.833 219.598L272.618 200.521" fill="#0FA379"/>
</g>
<path fill-rule="evenodd" clip-rule="evenodd" d="M295.824 177.686C295.824 177.686 252.37 272.165 188.622 306.391C198.444 323.848 224.356 308.418 224.356 308.418C239.998 310.062 258.304 302.523 272.922 286.749C269.903 284.149 267.128 281.279 264.631 278.174C264.631 278.174 270.594 279.793 278.783 279.692C282.65 274.489 285.977 268.904 288.71 263.025C287.425 262.361 286.114 261.625 284.777 260.795C284.777 260.795 286.897 260.521 290.217 259.629C294.04 250.618 296.866 240.436 298.314 229.128C292.155 229.15 286.044 228.058 280.274 225.906C280.274 225.906 289.071 224.085 299.217 219.033C299.872 206.452 298.887 192.649 295.824 177.686Z" stroke="black" stroke-width="0.6"/>
<path d="M3.12793 242.044C3.12793 242.044 8.46743 241.717 16.506 242.261C17.7786 249.355 17.2783 255.198 17.2783 255.198C19.9283 251.473 21.8567 247.284 22.9637 242.849C31.2565 243.795 41.1985 245.688 50.8782 249.4C52.5404 258.168 51.9941 265.555 51.9941 265.555C54.6489 261.531 56.6251 257.099 57.8438 252.435C70.2554 258.545 81.4001 268.162 86.9022 283.285C92.1461 297.697 91.2874 305.756 87.6803 310.051C37.4011 291.966 3.12793 242.044 3.12793 242.044Z" fill="#1AB995"/>
<mask id="mask1_18_1592" style="mask-type:luminance" maskUnits="userSpaceOnUse" x="3" y="241" width="88" height="70">
<path fill-rule="evenodd" clip-rule="evenodd" d="M3.12793 242.044C3.12793 242.044 8.46743 241.717 16.506 242.261C17.7786 249.355 17.2783 255.198 17.2783 255.198C19.9283 251.473 21.8567 247.284 22.9637 242.849C31.2565 243.795 41.1985 245.688 50.8782 249.4C52.5404 258.168 51.9941 265.555 51.9941 265.555C54.6489 261.531 56.6251 257.099 57.8438 252.435C70.2554 258.545 81.4001 268.162 86.9022 283.285C92.1461 297.697 91.2874 305.756 87.6803 310.051C37.4011 291.966 3.12793 242.044 3.12793 242.044Z" fill="white"/>
</mask>
<g mask="url(#mask1_18_1592)">
<path d="M34.5475 237.007C43.4236 284.383 21.7774 292.102 87.6801 310.051C153.583 327.999 118.642 246.199 118.642 246.199L-10.4609 211.625" fill="#0FA379"/>
</g>
<path fill-rule="evenodd" clip-rule="evenodd" d="M3.12793 242.044C3.12793 242.044 8.46743 241.717 16.506 242.261C17.7786 249.355 17.2783 255.198 17.2783 255.198C19.9283 251.473 21.8567 247.284 22.9637 242.849C31.2565 243.795 41.1985 245.688 50.8782 249.4C52.5404 258.168 51.9941 265.555 51.9941 265.555C54.6489 261.531 56.6251 257.099 57.8438 252.435C70.2554 258.545 81.4001 268.162 86.9022 283.285C92.1461 297.697 91.2874 305.756 87.6803 310.051C37.4011 291.966 3.12793 242.044 3.12793 242.044Z" stroke="black" stroke-width="0.6"/>
<path d="M3.12771 242.044C3.12771 242.044 37.4008 291.966 87.6801 310.051C79.9336 319.276 59.4962 311.122 59.4962 311.122C47.1591 311.991 32.7205 308.007 21.1914 299.673C23.4961 298.351 25.6838 296.835 27.7305 295.141C27.7305 295.141 23.0277 295.997 16.569 295.944C13.6292 293.319 11.0018 290.364 8.73881 287.137C9.75227 286.786 10.7865 286.397 11.8414 285.958C11.8414 285.958 10.1691 285.814 7.55016 285.342C4.42317 280.421 2.25647 274.953 1.1646 269.226C5.95923 269.244 10.7379 268.672 15.3929 267.523C15.3929 267.523 8.45466 266.561 0.451725 263.892C-0.0645625 257.244 0.712641 249.95 3.12771 242.044Z" fill="#0FA379" stroke="black" stroke-width="0.6"/>
<rect x="51.0352" y="181.563" width="186.319" height="33.9734" fill="white"/>
<mask id="mask2_18_1592" style="mask-type:luminance" maskUnits="userSpaceOnUse" x="51" y="181" width="187" height="35">
<rect x="51.0352" y="181.563" width="186.319" height="33.9734" fill="white"/>
</mask>
<g mask="url(#mask2_18_1592)">
<path d="M48.0783 192.976L212.084 193.501L45.1035 195.077L48.0783 192.976Z" fill="#D6DCF2"/>
<path d="M35.9132 207.141L199.919 207.666L32.9385 209.241L35.9132 207.141Z" fill="#D6DCF2"/>
</g>
<rect x="51.0352" y="181.563" width="186.319" height="33.9734" stroke="black" stroke-width="0.6"/>
<path d="M242.989 181.563C242.991 179.323 241.177 177.505 238.937 177.502H48.5413C46.3227 177.502 44.3879 179.216 44.3214 181.438C44.2865 182.535 44.6975 183.6 45.4606 184.389C46.2238 185.177 47.274 185.623 48.3715 185.625L231.595 185.625C234.163 185.628 236.243 187.712 236.24 190.281V206.819C236.243 209.388 234.163 211.472 231.595 211.475L48.5415 211.475C46.3229 211.475 44.3881 213.189 44.3214 215.411C44.2864 216.509 44.6974 217.573 45.4605 218.362C46.2237 219.151 47.2739 219.597 48.3715 219.598H238.937C241.177 219.595 242.991 217.777 242.989 215.537V182.055C242.989 181.972 242.98 181.891 242.976 181.809C242.981 181.727 242.989 181.646 242.989 181.563Z" fill="#FCB006"/>
<mask id="mask3_18_1592" style="mask-type:luminance" maskUnits="userSpaceOnUse" x="44" y="177" width="199" height="43">
<path fill-rule="evenodd" clip-rule="evenodd" d="M242.989 181.563C242.991 179.323 241.177 177.505 238.937 177.502H48.5413C46.3227 177.502 44.3879 179.216 44.3214 181.438C44.2865 182.535 44.6975 183.6 45.4606 184.389C46.2238 185.177 47.274 185.623 48.3715 185.625L231.595 185.625C234.163 185.628 236.243 187.712 236.24 190.281V206.819C236.243 209.388 234.163 211.472 231.595 211.475L48.5415 211.475C46.3229 211.475 44.3881 213.189 44.3214 215.411C44.2864 216.509 44.6974 217.573 45.4605 218.362C46.2237 219.151 47.2739 219.597 48.3715 219.598H238.937C241.177 219.595 242.991 217.777 242.989 215.537V182.055C242.989 181.972 242.98 181.891 242.976 181.809C242.981 181.727 242.989 181.646 242.989 181.563Z" fill="white"/>
</mask>
<g mask="url(#mask3_18_1592)">
<path d="M15.8926 219.598C238.009 223.66 240.366 224.265 242.988 191.326C244.98 166.308 264.648 263.305 264.648 263.305L144.195 258.638L27.7369 229.613" fill="#FDD504"/>
</g>
<path fill-rule="evenodd" clip-rule="evenodd" d="M242.989 181.563C242.991 179.323 241.177 177.505 238.937 177.502H48.5413C46.3227 177.502 44.3879 179.216 44.3214 181.438C44.2865 182.535 44.6975 183.6 45.4606 184.389C46.2238 185.177 47.274 185.623 48.3715 185.625L231.595 185.625C234.163 185.628 236.243 187.712 236.24 190.281V206.819C236.243 209.388 234.163 211.472 231.595 211.475L48.5415 211.475C46.3229 211.475 44.3881 213.189 44.3214 215.411C44.2864 216.509 44.6974 217.573 45.4605 218.362C46.2237 219.151 47.2739 219.597 48.3715 219.598H238.937C241.177 219.595 242.991 217.777 242.989 215.537V182.055C242.989 181.972 242.98 181.891 242.976 181.809C242.981 181.727 242.989 181.646 242.989 181.563Z" stroke="black" stroke-width="0.6"/>
<rect x="72.6943" y="224.265" width="186.319" height="39.04" fill="white"/>
<mask id="mask4_18_1592" style="mask-type:luminance" maskUnits="userSpaceOnUse" x="72" y="224" width="188" height="40">
<rect x="72.6943" y="224.265" width="186.319" height="39.04" fill="white"/>
</mask>
<g mask="url(#mask4_18_1592)">
<path d="M69.7374 237.38L233.743 237.983L66.7627 239.794L69.7374 237.38Z" fill="#D6DCF2"/>
<path d="M57.5725 253.657L221.578 254.26L54.5977 256.07L57.5725 253.657Z" fill="#D6DCF2"/>
</g>
<rect x="72.6943" y="224.265" width="186.319" height="39.04" stroke="black" stroke-width="0.6"/>
<path d="M264.648 224.265C264.648 221.687 262.833 219.598 260.596 219.598H70.2003C67.9817 219.598 66.0469 221.567 65.9804 224.121C65.9116 226.764 67.7512 228.932 70.0305 228.932L253.254 228.932C255.819 228.932 257.899 231.327 257.899 234.283V253.287C257.899 256.242 255.819 258.638 253.254 258.638L70.2005 258.638C67.9819 258.638 66.0471 260.607 65.9804 263.161C65.9114 265.804 67.7511 267.972 70.0305 267.972H260.596C262.833 267.972 264.648 265.882 264.648 263.305V224.829C264.648 224.734 264.639 224.641 264.635 224.547C264.64 224.453 264.648 224.36 264.648 224.265Z" fill="#1B80FD"/>
<mask id="mask5_18_1592" style="mask-type:luminance" maskUnits="userSpaceOnUse" x="65" y="219" width="200" height="49">
<path fill-rule="evenodd" clip-rule="evenodd" d="M264.648 224.265C264.648 221.687 262.833 219.598 260.596 219.598H70.2003C67.9817 219.598 66.0469 221.567 65.9804 224.121C65.9116 226.764 67.7512 228.932 70.0305 228.932L253.254 228.932C255.819 228.932 257.899 231.327 257.899 234.283V253.287C257.899 256.242 255.819 258.638 253.254 258.638L70.2005 258.638C67.9819 258.638 66.0471 260.607 65.9804 263.161C65.9114 265.804 67.7511 267.972 70.0305 267.972H260.596C262.833 267.972 264.648 265.882 264.648 263.305V224.829C264.648 224.734 264.639 224.641 264.635 224.547C264.64 224.453 264.648 224.36 264.648 224.265Z" fill="white"/>
</mask>
<g mask="url(#mask5_18_1592)">
<path d="M48.541 267.187C270.249 266.86 264.648 268.234 264.648 246.532C264.648 224.829 283.278 293.875 283.278 293.875L94.9533 283.916L62.3814 276.74" fill="#1D62FC"/>
</g>
<path fill-rule="evenodd" clip-rule="evenodd" d="M264.648 224.265C264.648 221.687 262.833 219.598 260.596 219.598H70.2003C67.9817 219.598 66.0469 221.567 65.9804 224.121C65.9116 226.764 67.7512 228.932 70.0305 228.932L253.254 228.932C255.819 228.932 257.899 231.327 257.899 234.283V253.287C257.899 256.242 255.819 258.638 253.254 258.638L70.2005 258.638C67.9819 258.638 66.0471 260.607 65.9804 263.161C65.9114 265.804 67.7511 267.972 70.0305 267.972H260.596C262.833 267.972 264.648 265.882 264.648 263.305V224.829C264.648 224.734 264.639 224.641 264.635 224.547C264.64 224.453 264.648 224.36 264.648 224.265Z" stroke="black" stroke-width="0.6"/>
<rect x="51.0352" y="271.854" width="186.319" height="39.04" fill="white"/>
<mask id="mask6_18_1592" style="mask-type:luminance" maskUnits="userSpaceOnUse" x="51" y="271" width="187" height="40">
<rect x="51.0352" y="271.854" width="186.319" height="39.04" fill="white"/>
</mask>
<g mask="url(#mask6_18_1592)">
<path d="M48.0783 284.97L212.084 285.573L45.1035 287.383L48.0783 284.97Z" fill="#D6DCF2"/>
<path d="M35.9132 301.247L199.919 301.85L32.9385 303.66L35.9132 301.247Z" fill="#D6DCF2"/>
</g>
<rect x="51.0352" y="271.854" width="186.319" height="39.04" stroke="black" stroke-width="0.6"/>
<path d="M242.988 271.855C242.988 269.277 241.174 267.188 238.936 267.188H48.5411C46.3225 267.188 44.3877 269.157 44.3212 271.711C44.2524 274.354 46.092 276.522 48.3713 276.522L231.594 276.522C234.16 276.522 236.24 278.917 236.24 281.872V300.877C236.24 303.832 234.16 306.228 231.594 306.228L48.5413 306.227C46.3227 306.227 44.3879 308.197 44.3212 310.751C44.2522 313.394 46.0919 315.562 48.3714 315.562H238.936C241.174 315.562 242.988 313.472 242.988 310.895V272.419C242.988 272.324 242.98 272.231 242.976 272.137C242.981 272.043 242.988 271.95 242.988 271.855Z" fill="#1A80FD"/>
<mask id="mask7_18_1592" style="mask-type:luminance" maskUnits="userSpaceOnUse" x="44" y="267" width="199" height="49">
<path fill-rule="evenodd" clip-rule="evenodd" d="M242.988 271.855C242.988 269.277 241.174 267.188 238.936 267.188H48.5411C46.3225 267.188 44.3877 269.157 44.3212 271.711C44.2524 274.354 46.092 276.522 48.3713 276.522L231.594 276.522C234.16 276.522 236.24 278.917 236.24 281.872V300.877C236.24 303.832 234.16 306.228 231.594 306.228L48.5413 306.227C46.3227 306.227 44.3879 308.197 44.3212 310.751C44.2522 313.394 46.0919 315.562 48.3714 315.562H238.936C241.174 315.562 242.988 313.472 242.988 310.895V272.419C242.988 272.324 242.98 272.231 242.976 272.137C242.981 272.043 242.988 271.95 242.988 271.855Z" fill="white"/>
</mask>
<g mask="url(#mask7_18_1592)">
<path d="M35.7314 320.414C37.5081 319.689 156.417 315.562 184.907 315.562C213.396 315.562 243.544 309.598 244.016 296.836C244.488 284.074 257.22 319.095 257.22 319.095L251.002 325.031L163.058 324.141" fill="#1D62FC"/>
</g>
<path fill-rule="evenodd" clip-rule="evenodd" d="M242.988 271.855C242.988 269.277 241.174 267.188 238.936 267.188H48.5411C46.3225 267.188 44.3877 269.157 44.3212 271.711C44.2524 274.354 46.092 276.522 48.3713 276.522L231.594 276.522C234.16 276.522 236.24 278.917 236.24 281.872V300.877C236.24 303.832 234.16 306.228 231.594 306.228L48.5413 306.227C46.3227 306.227 44.3879 308.197 44.3212 310.751C44.2522 313.394 46.0919 315.562 48.3714 315.562H238.936C241.174 315.562 242.988 313.472 242.988 310.895V272.419C242.988 272.324 242.98 272.231 242.976 272.137C242.981 272.043 242.988 271.95 242.988 271.855Z" stroke="black" stroke-width="0.6"/>
<path d="M139.161 193.493L132.049 200.611" stroke="black" stroke-width="0.6"/>
<path d="M92.91 289.592L88.4717 296.717" stroke="black" stroke-width="0.6"/>
<path d="M219.451 32.6896C219.451 50.5779 204.983 65.0794 187.136 65.0794C183.709 65.0764 180.304 64.5259 177.051 63.4485L156.699 69.7437C154.43 70.4455 152.4 68.1286 153.388 65.9641L160.322 50.7678C156.727 45.425 154.811 39.1293 154.822 32.6896C154.822 14.8012 169.289 0.299805 187.136 0.299805C204.983 0.299805 219.451 14.8011 219.451 32.6896Z" fill="#E43334"/>
<mask id="mask8_18_1592" style="mask-type:luminance" maskUnits="userSpaceOnUse" x="153" y="0" width="67" height="70">
<path fill-rule="evenodd" clip-rule="evenodd" d="M219.451 32.6896C219.451 50.5779 204.983 65.0794 187.136 65.0794C183.709 65.0764 180.304 64.5259 177.051 63.4485L156.699 69.7437C154.43 70.4455 152.4 68.1286 153.388 65.9641L160.322 50.7678C156.727 45.425 154.811 39.1293 154.822 32.6896C154.822 14.8012 169.289 0.299805 187.136 0.299805C204.983 0.299805 219.451 14.8011 219.451 32.6896Z" fill="white"/>
</mask>
<g mask="url(#mask8_18_1592)">
<path d="M211.81 5.36572C220.686 81.7343 177.051 63.4484 177.051 63.4484L195.887 78.0713L254.359 50.5992L229.3 8.4809" fill="#C11F27"/>
</g>
<path fill-rule="evenodd" clip-rule="evenodd" d="M219.451 32.6896C219.451 50.5779 204.983 65.0794 187.136 65.0794C183.709 65.0764 180.304 64.5259 177.051 63.4485L156.699 69.7437C154.43 70.4455 152.4 68.1286 153.388 65.9641L160.322 50.7678C156.727 45.425 154.811 39.1293 154.822 32.6896C154.822 14.8012 169.289 0.299805 187.136 0.299805C204.983 0.299805 219.451 14.8011 219.451 32.6896Z" stroke="black" stroke-width="0.6"/>
<path fill-rule="evenodd" clip-rule="evenodd" d="M190.252 26.2429C189.783 26.8964 189.067 27.6316 188.104 28.4485L187.041 29.4284C185.945 30.4044 185.124 31.6502 184.66 33.042C184.206 34.4171 183.979 36.2615 183.979 38.5753H189.253C189.253 37.1599 189.422 36.0097 189.762 35.1247C190.117 34.2194 190.686 33.4138 191.421 32.7768C192.952 31.4434 194.093 30.3815 194.844 29.5914C195.606 28.7865 196.231 27.8623 196.694 26.8554C197.176 25.8212 197.417 24.6098 197.417 23.2211C197.44 21.6348 196.972 20.0804 196.078 18.7698C195.184 17.4636 193.937 16.4427 192.335 15.7073C190.734 14.9721 188.912 14.6045 186.871 14.6045C184.007 14.6049 181.668 15.1903 179.854 16.3605C178.039 17.5315 176.806 19.2194 176.154 21.4243L181.172 23.6706C181.938 20.8937 183.681 19.5053 186.403 19.5053C187.877 19.505 189.004 19.9134 189.784 20.7303C190.563 21.547 190.953 22.5678 190.953 23.7928C190.953 24.773 190.719 25.5896 190.252 26.2429ZM189.359 43.1695C188.692 42.5296 187.806 42.2097 186.701 42.2097C185.594 42.2104 184.708 42.5303 184.043 43.1695C183.377 43.809 183.044 44.6597 183.044 45.7218C183.043 46.7834 183.376 47.6341 184.043 48.274C184.709 48.9139 185.595 49.2339 186.701 49.2339C187.806 49.2332 188.692 48.9132 189.359 48.274C190.025 47.6346 190.358 46.7838 190.358 45.7218C190.357 44.6602 190.024 43.8094 189.359 43.1695Z" fill="white"/>
<path d="M188.104 28.4485L187.91 28.2195L187.901 28.2279L188.104 28.4485ZM190.252 26.2429L190.495 26.4177L190.495 26.4176L190.252 26.2429ZM187.041 29.4284L187.24 29.6524L187.244 29.649L187.041 29.4284ZM184.66 33.042L184.375 32.947L184.375 32.948L184.66 33.042ZM183.979 38.5753H183.679V38.8753H183.979V38.5753ZM189.253 38.5753V38.8753H189.553L189.553 38.5753L189.253 38.5753ZM189.762 35.1247L189.483 35.0152L189.482 35.0171L189.762 35.1247ZM191.421 32.7768L191.618 33.0035L191.618 33.003L191.421 32.7768ZM194.844 29.5914L195.062 29.7981L195.062 29.7976L194.844 29.5914ZM196.694 26.8554L196.422 26.7287L196.422 26.73L196.694 26.8554ZM197.417 23.2211L197.117 23.2169V23.2211H197.417ZM196.078 18.7698L196.326 18.6008L196.326 18.6005L196.078 18.7698ZM192.335 15.7073L192.461 15.4347L192.461 15.4346L192.335 15.7073ZM186.871 14.6045V14.3045H186.871L186.871 14.6045ZM179.854 16.3605L179.692 16.1084L179.692 16.1085L179.854 16.3605ZM176.154 21.4243L175.867 21.3392L175.792 21.5909L176.032 21.6981L176.154 21.4243ZM181.172 23.6706L181.05 23.9444L181.369 24.0872L181.462 23.7503L181.172 23.6706ZM186.403 19.5053V19.8053H186.403L186.403 19.5053ZM189.784 20.7303L189.567 20.9374L189.567 20.9374L189.784 20.7303ZM190.953 23.7928H190.653V23.7928L190.953 23.7928ZM186.701 42.2097V41.9097H186.701L186.701 42.2097ZM189.359 43.1695L189.566 42.9532L189.566 42.9532L189.359 43.1695ZM184.043 43.1695L183.835 42.9531L183.835 42.9531L184.043 43.1695ZM183.044 45.7218L183.344 45.7219V45.7218H183.044ZM184.043 48.274L183.835 48.4904L183.835 48.4904L184.043 48.274ZM186.701 49.2339V49.5339H186.701L186.701 49.2339ZM189.359 48.274L189.566 48.4905L189.566 48.4905L189.359 48.274ZM190.358 45.7218H190.658V45.7216L190.358 45.7218ZM188.298 28.6773C189.271 27.8524 190.007 27.0991 190.495 26.4177L190.008 26.0681C189.559 26.6937 188.864 27.4108 187.91 28.2197L188.298 28.6773ZM187.244 29.649L188.308 28.6691L187.901 28.2279L186.837 29.2077L187.244 29.649ZM184.944 33.137C185.392 31.7949 186.184 30.5935 187.24 29.6524L186.841 29.2044C185.707 30.2152 184.856 31.5056 184.375 32.947L184.944 33.137ZM184.279 38.5753C184.279 36.2768 184.505 34.4682 184.945 33.136L184.375 32.948C183.907 34.366 183.679 36.2463 183.679 38.5753H184.279ZM189.253 38.2753H183.979V38.8753H189.253V38.2753ZM189.482 35.0171C189.124 35.949 188.953 37.1395 188.953 38.5753L189.553 38.5753C189.553 37.1803 189.721 36.0704 190.042 35.2322L189.482 35.0171ZM191.225 32.5502C190.453 33.2189 189.856 34.0648 189.483 35.0152L190.042 35.2342C190.379 34.3741 190.92 33.6087 191.618 33.0035L191.225 32.5502ZM194.627 29.3846C193.885 30.1645 192.752 31.2191 191.224 32.5506L191.618 33.003C193.151 31.6677 194.3 30.5986 195.062 29.7981L194.627 29.3846ZM196.422 26.73C195.972 27.7071 195.366 28.604 194.627 29.3851L195.062 29.7976C195.847 28.9689 196.49 28.0174 196.967 26.9808L196.422 26.73ZM197.117 23.2211C197.117 24.5753 196.882 25.7418 196.422 26.7287L196.966 26.9822C197.47 25.9006 197.717 24.6442 197.717 23.2211H197.117ZM195.83 18.9389C196.689 20.1984 197.139 21.6924 197.117 23.2169L197.717 23.2253C197.741 21.5773 197.255 19.9623 196.326 18.6008L195.83 18.9389ZM192.21 15.9799C193.768 16.6953 194.971 17.6828 195.83 18.9392L196.326 18.6005C195.398 17.2443 194.106 16.1901 192.461 15.4347L192.21 15.9799ZM186.871 14.9045C188.876 14.9045 190.653 15.2654 192.21 15.9799L192.461 15.4346C190.814 14.6788 188.948 14.3045 186.871 14.3045V14.9045ZM180.017 16.6126C181.769 15.4823 184.046 14.9049 186.871 14.9045L186.871 14.3045C183.968 14.3049 181.567 14.8982 179.692 16.1084L180.017 16.6126ZM176.442 21.5093C177.075 19.3684 178.266 17.742 180.017 16.6126L179.692 16.1085C177.812 17.3209 176.537 19.0703 175.867 21.3392L176.442 21.5093ZM181.295 23.3968L176.277 21.1505L176.032 21.6981L181.05 23.9444L181.295 23.3968ZM186.403 19.2053C184.99 19.2053 183.803 19.5667 182.867 20.3119C181.933 21.0558 181.278 22.1592 180.883 23.5909L181.462 23.7503C181.832 22.4052 182.432 21.4258 183.241 20.7813C184.049 20.1381 185.095 19.8053 186.403 19.8053V19.2053ZM190.001 20.5231C189.149 19.6303 187.933 19.205 186.403 19.2053L186.403 19.8053C187.821 19.805 188.859 20.1965 189.567 20.9374L190.001 20.5231ZM191.253 23.7928C191.253 22.4978 190.838 21.4006 190.001 20.5231L189.567 20.9374C190.288 21.6933 190.653 22.6378 190.653 23.7928H191.253ZM190.495 26.4176C191.007 25.7031 191.253 24.8216 191.253 23.7928L190.653 23.7928C190.653 24.7243 190.432 25.4762 190.008 26.0682L190.495 26.4176ZM186.701 42.5097C187.745 42.5097 188.551 42.8099 189.151 43.3859L189.566 42.9532C188.834 42.2493 187.868 41.9097 186.701 41.9097V42.5097ZM184.25 43.3859C184.849 42.8107 185.656 42.5103 186.701 42.5097L186.701 41.9097C185.533 41.9104 184.567 42.25 183.835 42.9531L184.25 43.3859ZM183.344 45.7218C183.344 44.728 183.652 43.9602 184.25 43.3859L183.835 42.9531C183.101 43.6578 182.744 44.5915 182.744 45.7218H183.344ZM184.25 48.0576C183.652 47.4829 183.343 46.7151 183.344 45.7219L182.744 45.7217C182.743 46.8517 183.1 47.7853 183.835 48.4904L184.25 48.0576ZM186.701 48.9339C185.657 48.9339 184.85 48.6336 184.25 48.0576L183.835 48.4904C184.568 49.1942 185.534 49.5339 186.701 49.5339V48.9339ZM189.151 48.0575C188.551 48.6329 187.745 48.9332 186.701 48.9339L186.701 49.5339C187.868 49.5331 188.833 49.1935 189.566 48.4905L189.151 48.0575ZM190.058 45.7218C190.058 46.7155 189.749 47.4833 189.151 48.0576L189.566 48.4905C190.301 47.7858 190.658 46.8522 190.658 45.7218H190.058ZM189.151 43.3858C189.749 43.9606 190.057 44.7286 190.058 45.722L190.658 45.7216C190.657 44.5918 190.3 43.6583 189.566 42.9532L189.151 43.3858Z" fill="black"/>
<path d="M160.191 41.9336L165.369 45.3325" stroke="black" stroke-width="0.6"/>
<path d="M202.911 17.5371L204.079 18.3315" stroke="black" stroke-width="0.6"/>
<path d="M312.109 32.0757H256.299C252.096 32.0929 248.696 35.5009 248.688 39.7038V75.3012C248.696 79.5041 252.096 82.9122 256.299 82.9294H272.432L282.72 92.6515C283.552 93.4388 284.855 93.4386 285.687 92.651L295.968 82.9294H312.109C316.312 82.9122 319.712 79.5041 319.719 75.3012V39.7038C319.717 35.4986 316.314 32.0873 312.109 32.0757H312.109Z" fill="#E43334"/>
<mask id="mask9_18_1592" style="mask-type:luminance" maskUnits="userSpaceOnUse" x="248" y="32" width="72" height="62">
<path fill-rule="evenodd" clip-rule="evenodd" d="M312.109 32.0757H256.299C252.096 32.0929 248.696 35.5009 248.688 39.7038V75.3012C248.696 79.5041 252.096 82.9122 256.299 82.9294H272.432L282.72 92.6515C283.552 93.4388 284.855 93.4386 285.687 92.651L295.968 82.9294H312.109C316.312 82.9122 319.712 79.5041 319.719 75.3012V39.7038C319.717 35.4986 316.314 32.0873 312.109 32.0757H312.109Z" fill="white"/>
</mask>
<g mask="url(#mask9_18_1592)">
<path d="M310.618 27.8184L242.704 100.81L308.247 98.2048L327.68 76.7996L330.351 45.8512" fill="#C11F27"/>
</g>
<path fill-rule="evenodd" clip-rule="evenodd" d="M312.109 32.0757H256.299C252.096 32.0929 248.696 35.5009 248.688 39.7038V75.3012C248.696 79.5041 252.096 82.9122 256.299 82.9294H272.432L282.72 92.6515C283.552 93.4388 284.855 93.4386 285.687 92.651L295.968 82.9294H312.109C316.312 82.9122 319.712 79.5041 319.719 75.3012V39.7038C319.717 35.4986 316.314 32.0873 312.109 32.0757H312.109Z" stroke="black" stroke-width="0.6"/>
<path d="M298.709 48.1068C294.769 44.1569 288.548 43.82 284.203 47.0724C279.907 43.856 273.775 44.1499 269.829 47.977C265.363 52.3084 265.503 59.6582 269.898 64.0629L281.483 75.6751C282.987 77.1747 285.42 77.1747 286.924 75.6751L298.709 63.862C303.032 59.5293 303.032 52.4395 298.709 48.1068Z" fill="white" stroke="black" stroke-width="0.6"/>
<path d="M305.851 68.5122L303.772 72.6797" stroke="black" stroke-width="0.6"/>
<path d="M259.08 41.4287C258.063 42.1685 257.403 43.3004 257.26 44.5494" stroke="black" stroke-width="0.6"/>
<path d="M126.171 43.0478C126.591 42.0939 126.869 41.0833 126.995 40.0484C127.881 32.5329 122.538 26.4404 115.059 26.4404C112.425 26.4404 109.883 27.2088 107.648 28.5174C106.442 27.5997 104.965 27.1098 103.45 27.1251C99.2407 27.1251 95.4239 30.5545 94.9249 34.7846C94.503 38.3611 96.6015 41.3401 99.7997 42.1831C99.822 46.8002 101.923 49.8612 105.808 51.1069C105.676 51.3607 105.555 51.6147 105.437 51.8693C104.673 51.6463 103.884 51.5196 103.088 51.4921C102.883 51.4763 102.69 51.4296 102.479 51.4296C101.766 51.4403 101.058 51.5404 100.37 51.7277C96.0473 52.5939 91.5765 55.7765 88.7443 60.4858C84.4735 67.5875 85.5478 75.4385 91.1438 78.0216C96.7398 80.6047 104.738 76.9419 109.009 69.8404C109.366 69.2398 109.691 68.6208 109.983 67.9861C115.476 69.6151 122.694 65.989 126.675 59.3694C130.408 53.1617 130.056 46.3816 126.171 43.0478Z" fill="#1A80FD" stroke="black" stroke-width="0.6"/>
<path d="M68.4649 113.198C75.2659 101.143 91.6447 72.1525 98.4266 70.459L97.8095 101.704L81.6855 122.107C80.2166 123.969 77.9959 125.08 75.6255 125.14C73.2551 125.201 70.9807 124.203 69.4191 122.419C67.1763 119.859 66.7938 116.163 68.4649 113.198Z" fill="#FDD504"/>
<mask id="mask10_18_1592" style="mask-type:luminance" maskUnits="userSpaceOnUse" x="67" y="70" width="32" height="56">
<path fill-rule="evenodd" clip-rule="evenodd" d="M68.4649 113.198C75.2659 101.143 91.6447 72.1525 98.4266 70.459L97.8095 101.704L81.6855 122.107C80.2166 123.969 77.9959 125.08 75.6255 125.14C73.2551 125.201 70.9807 124.203 69.4191 122.419C67.1763 119.859 66.7938 116.163 68.4649 113.198Z" fill="white"/>
</mask>
<g mask="url(#mask10_18_1592)">
<path d="M97.341 79.2417C85.2717 85.0091 94.0028 106.521 82.621 120.924C72.0289 134.327 84.9289 127.489 84.9289 127.489C84.9289 127.489 103.26 107.792 103.847 107.498C104.433 107.204 99.9735 88.3899 99.9735 88.3899L100.694 81.4814" fill="url(#paint0_linear_18_1592)"/>
</g>
<path fill-rule="evenodd" clip-rule="evenodd" d="M68.4649 113.198C75.2659 101.143 91.6447 72.1525 98.4266 70.459L97.8095 101.704L81.6855 122.107C80.2166 123.969 77.9959 125.08 75.6255 125.14C73.2551 125.201 70.9807 124.203 69.4191 122.419V122.419C67.1763 119.859 66.7938 116.163 68.4649 113.198V113.198Z" stroke="black" stroke-width="0.6"/>
<path d="M67.3369 313.27C67.3369 313.27 69.1676 306.902 78.7786 306.902C88.3896 306.902 94.1105 298.752 94.1105 298.752V207.569L97.7718 117.915L118.367 128.612C118.367 144.913 103.894 299.428 103.894 299.428C103.894 299.428 105.781 313.27 105.552 313.27L67.3369 313.27Z" fill="#F9C1BB"/>
<mask id="mask11_18_1592" style="mask-type:luminance" maskUnits="userSpaceOnUse" x="67" y="117" width="52" height="197">
<path fill-rule="evenodd" clip-rule="evenodd" d="M67.3369 313.27C67.3369 313.27 69.1676 306.902 78.7786 306.902C88.3896 306.902 94.1105 298.752 94.1105 298.752V207.569L97.7718 117.915L118.367 128.612C118.367 144.913 103.894 299.428 103.894 299.428C103.894 299.428 105.781 313.27 105.552 313.27L67.3369 313.27Z" fill="white"/>
</mask>
<g mask="url(#mask11_18_1592)">
<path d="M87.4756 197.175C118.09 197.997 110.474 237.309 109.764 240.29C109.054 243.271 121.694 192.701 121.694 192.701L113.513 186.731" fill="#ED707B"/>
</g>
<path fill-rule="evenodd" clip-rule="evenodd" d="M67.3369 313.27C67.3369 313.27 69.1676 306.902 78.7786 306.902C88.3896 306.902 94.1105 298.752 94.1105 298.752V207.569L97.7718 117.915L118.367 128.612V128.612C118.367 144.913 103.894 299.428 103.894 299.428C103.894 299.428 105.781 313.27 105.552 313.27L67.3369 313.27Z" stroke="black" stroke-width="0.6"/>
<path d="M104.516 303.598L105.742 311.724C105.981 313.306 104.677 314.72 102.981 314.72H64.2568C64.2568 314.72 67.0028 306.399 78.2157 307.079C83.784 313.446 104.516 303.598 104.516 303.598Z" fill="#485065" stroke="black" stroke-width="0.6"/>
<path d="M110.586 143.724L126.604 202.135L148.42 301.638C148.42 301.638 150.087 313.524 150.697 314.543H186.292C178.54 301.638 165.811 311.147 160.929 300.789L134.062 138.857L110.586 143.724Z" fill="#F9C1BB"/>
<mask id="mask12_18_1592" style="mask-type:luminance" maskUnits="userSpaceOnUse" x="110" y="138" width="77" height="177">
<path fill-rule="evenodd" clip-rule="evenodd" d="M110.586 143.724L126.604 202.135L148.42 301.638C148.42 301.638 150.087 313.524 150.697 314.543H186.292C178.54 301.638 165.811 311.147 160.929 300.789L134.062 138.857L110.586 143.724Z" fill="white"/>
</mask>
<g mask="url(#mask12_18_1592)">
<path d="M121.225 202.59C142.372 201.683 146.143 214.914 148.439 223.818C150.734 232.722 153.843 196.357 153.843 196.357" fill="#ED707B"/>
</g>
<path fill-rule="evenodd" clip-rule="evenodd" d="M110.586 143.724L126.604 202.135L148.42 301.638C148.42 301.638 150.087 313.524 150.697 314.543H186.292C178.54 301.638 165.811 311.147 160.929 300.789L134.062 138.857L110.586 143.724Z" stroke="black" stroke-width="0.6"/>
<path d="M148.316 301.638V311.057C148.316 313.093 150.043 314.756 152.204 314.802L188.008 315.562C188.008 315.562 190.726 309.159 176.008 306.929C163.645 314.528 148.316 301.638 148.316 301.638Z" fill="#485065" stroke="black" stroke-width="0.6"/>
<path d="M87.4746 197.175C113.714 203.288 140.792 204.173 146.894 200.098L131.544 119.729L96.2692 125.194L87.4746 197.175Z" fill="#2F387E"/>
<mask id="mask13_18_1592" style="mask-type:luminance" maskUnits="userSpaceOnUse" x="87" y="119" width="60" height="84">
<path fill-rule="evenodd" clip-rule="evenodd" d="M87.4746 197.175C113.714 203.288 140.792 204.173 146.894 200.098L131.544 119.729L96.2692 125.194L87.4746 197.175Z" fill="white"/>
</mask>
<g mask="url(#mask13_18_1592)">
<path d="M90.7901 159.822C92.8521 128.833 146.209 125.015 130.683 122.491L106.046 118.486L92.2611 124.706L85.8086 128.409" fill="#111944"/>
<g opacity="0.16">
<path d="M60.9539 206.465H51.8477L83.9905 118.816H88.617L60.9539 206.465Z" fill="#485065" stroke="black" stroke-width="0.6"/>
<path d="M78.3212 206.465H69.2148L92.814 118.816H97.4405L78.3212 206.465Z" fill="#485065" stroke="black" stroke-width="0.6"/>
<path d="M95.6874 206.465H86.5811L101.637 118.816H106.263L95.6874 206.465Z" fill="#485065" stroke="black" stroke-width="0.6"/>
<path d="M113.055 206.465H103.948L110.46 118.816H115.086L113.055 206.465Z" fill="#485065" stroke="black" stroke-width="0.6"/>
<path d="M130.421 206.465H121.315L119.283 118.816H123.91L130.421 206.465Z" fill="#485065" stroke="black" stroke-width="0.6"/>
<path d="M147.788 206.465H138.682L128.106 118.816H132.733L147.788 206.465Z" fill="#485065" stroke="black" stroke-width="0.6"/>
<path d="M165.155 206.465H156.049L136.93 118.816H141.556L165.155 206.465Z" fill="#485065" stroke="black" stroke-width="0.6"/>
<path d="M182.522 206.465H173.416L145.753 118.816H150.379L182.522 206.465Z" fill="#485065" stroke="black" stroke-width="0.6"/>
</g>
</g>
<path fill-rule="evenodd" clip-rule="evenodd" d="M87.4746 197.175C113.714 203.288 140.792 204.173 146.894 200.098L131.544 119.729L96.2692 125.194L87.4746 197.175Z" stroke="black" stroke-width="0.6"/>
<path d="M97.8086 70.7632C97.8086 70.7632 116.286 60.8414 138.504 70.7632C143.343 83.3307 129.125 113.033 133.664 123.459C133.664 123.459 107.622 134.839 94.8631 126.24C90.9036 122.271 99.8845 111.118 93.1892 100.308C89.4984 94.3491 90.6532 86.9629 92.7308 81.0664" fill="#FDD504"/>
<mask id="mask14_18_1592" style="mask-type:luminance" maskUnits="userSpaceOnUse" x="90" y="66" width="50" height="64">
<path fill-rule="evenodd" clip-rule="evenodd" d="M97.8086 70.7632C97.8086 70.7632 116.286 60.8414 138.504 70.7632C143.343 83.3307 129.125 113.033 133.664 123.459C133.664 123.459 107.622 134.839 94.8631 126.24C90.9036 122.271 99.8845 111.118 93.1892 100.308C89.4984 94.3491 90.6532 86.9629 92.7308 81.0664" fill="white"/>
</mask>
<g mask="url(#mask14_18_1592)">
<path d="M102.394 67.9675C97.809 86.0386 118.492 76.6544 126.787 66.3536C135.082 56.0528 126.102 58.1711 126.102 58.1711L101.64 65.1551" fill="#F9C1BB"/>
<path d="M102.394 67.9675C97.809 86.0386 118.492 76.6544 126.787 66.3536C135.082 56.0528 126.102 58.1711 126.102 58.1711L101.64 65.1551" stroke="black" stroke-width="0.6"/>
<path d="M133.359 95.3725C133.469 110.806 132.149 128.702 104.286 128.316C76.4223 127.931 91.3942 135.628 91.3942 135.628L133.322 134.398L135.229 133.369L146.894 107.94L144.44 93.1333L135.347 90.7832" fill="#FCB006"/>
</g>
<path d="M97.8086 70.7632C97.8086 70.7632 116.286 60.8414 138.504 70.7632C143.343 83.3307 129.125 113.033 133.664 123.459C133.664 123.459 107.622 134.839 94.8631 126.24C90.9036 122.271 99.8845 111.117 93.1892 100.308C89.4984 94.3491 90.6532 86.9629 92.7308 81.0664" stroke="black" stroke-width="0.6"/>
<path d="M120.233 66.8877L119.586 46.9907L107.942 53.6564C108.229 54.3912 104.718 64.793 103.062 69.6128" fill="#F9C1BB"/>
<mask id="mask15_18_1592" style="mask-type:luminance" maskUnits="userSpaceOnUse" x="103" y="46" width="18" height="24">
<path fill-rule="evenodd" clip-rule="evenodd" d="M120.233 66.8877L119.586 46.9907L107.942 53.6564C108.229 54.3912 104.718 64.793 103.062 69.6128" fill="white"/>
</mask>
<g mask="url(#mask15_18_1592)">
<path d="M98.6458 67.8537C111.632 69.0368 108.885 57.3114 112.742 53.9745C116.6 50.6376 102.141 54.4524 102.141 54.4524L98.5459 58.7692L98.9979 64.8692" fill="#ED707B"/>
</g>
<path d="M120.233 66.8877L119.586 46.9907L107.942 53.6564C108.229 54.3912 104.718 64.793 103.062 69.6128" stroke="black" stroke-width="0.6"/>
<path d="M80.5355 112.76L60.5155 78.4067C60.7665 77.5731 61.0656 76.8155 61.4115 76.2752C63.1995 73.4823 62.6862 70.7632 59.8266 72.8211C62.5396 69.6607 61.5864 66.7945 58.3601 69.8811C60.1199 68.0438 61.3664 64.369 59.8999 63.9282C58.4334 63.4872 54.1664 69.8077 52.37 72.8577C52.0158 73.4547 51.902 74.1641 52.0515 74.8419H52.0399L52.069 74.9276C52.1318 75.2114 52.2253 75.4875 52.3479 75.751L66.9853 118.956C67.9027 121.663 70.2814 123.612 73.1163 123.979C75.9513 124.346 78.748 123.068 80.3247 120.683C81.9015 118.299 81.9833 115.225 80.5355 112.76V112.76Z" fill="#F9C1BB"/>
<mask id="mask16_18_1592" style="mask-type:luminance" maskUnits="userSpaceOnUse" x="51" y="63" width="31" height="62">
<path fill-rule="evenodd" clip-rule="evenodd" d="M80.5355 112.76L60.5155 78.4067C60.7665 77.5731 61.0656 76.8155 61.4115 76.2752C63.1995 73.4823 62.6862 70.7632 59.8266 72.8211C62.5396 69.6607 61.5864 66.7945 58.3601 69.8811C60.1199 68.0438 61.3664 64.369 59.8999 63.9282C58.4334 63.4872 54.1664 69.8077 52.37 72.8577C52.0158 73.4547 51.902 74.1641 52.0515 74.8419H52.0399L52.069 74.9276C52.1318 75.2114 52.2253 75.4875 52.3479 75.751L66.9853 118.956C67.9027 121.663 70.2814 123.612 73.1163 123.979C75.9513 124.346 78.748 123.068 80.3247 120.683C81.9015 118.299 81.9833 115.225 80.5355 112.76V112.76Z" fill="white"/>
</mask>
<g mask="url(#mask16_18_1592)">
<path d="M60.251 118.648C77.676 124.133 80.4667 121.933 81.0986 113.493C81.7306 105.053 85.3105 123.619 85.3105 123.619L77.6837 131.107L65.2317 124.782" fill="#ED707B"/>
</g>
<path fill-rule="evenodd" clip-rule="evenodd" d="M80.5355 112.76L60.5155 78.4067C60.7665 77.5731 61.0656 76.8155 61.4115 76.2752C63.1995 73.4823 62.6862 70.7632 59.8266 72.8211C62.5396 69.6607 61.5864 66.7945 58.3601 69.8811C60.1199 68.0438 61.3664 64.369 59.8999 63.9282C58.4334 63.4872 54.1664 69.8077 52.37 72.8577C52.0158 73.4547 51.902 74.1641 52.0515 74.8419H52.0399L52.069 74.9276C52.1318 75.2114 52.2253 75.4875 52.3479 75.751L66.9853 118.956C67.9027 121.663 70.2814 123.612 73.1163 123.979C75.9513 124.346 78.748 123.068 80.3247 120.683C81.9015 118.299 81.9833 115.225 80.5355 112.76V112.76Z" stroke="black" stroke-width="0.6"/>
<path d="M108.536 103.474C108.536 103.474 103.818 99.1561 99.5105 97.717C95.203 96.2778 96.844 97.3743 96.844 97.3743L98.3482 102.034L108.536 103.474Z" fill="#F9C1BB" stroke="black" stroke-width="0.6"/>
<path d="M108.701 117.596H85.0758C82.8128 117.596 80.0918 116.034 78.9984 114.107L62.3595 84.7831C61.2661 82.8561 62.2143 81.2939 64.4773 81.2939H88.1028C90.3658 81.2939 93.0868 82.8561 94.1802 84.7831L110.819 114.107C111.912 116.034 110.964 117.596 108.701 117.596Z" fill="#485065"/>
<mask id="mask17_18_1592" style="mask-type:luminance" maskUnits="userSpaceOnUse" x="61" y="81" width="51" height="37">
<path fill-rule="evenodd" clip-rule="evenodd" d="M108.701 117.596H85.0758C82.8128 117.596 80.0918 116.034 78.9984 114.107L62.3595 84.7831C61.2661 82.8561 62.2143 81.2939 64.4773 81.2939H88.1028C90.3658 81.2939 93.0868 82.8561 94.1802 84.7831L110.819 114.107C111.912 116.034 110.964 117.596 108.701 117.596Z" fill="white"/>
</mask>
<g mask="url(#mask17_18_1592)">
<path d="M98.4257 91.2995C107.873 111.778 80.3164 117.915 80.3164 117.915C80.3164 117.915 89.6667 122.409 89.9263 122.132C90.1859 121.854 115.851 120.08 115.851 120.08L106.047 90.0381" fill="#232C3F"/>
</g>
<path fill-rule="evenodd" clip-rule="evenodd" d="M108.701 117.596H85.0758C82.8128 117.596 80.0918 116.034 78.9984 114.107L62.3595 84.7831C61.2661 82.8561 62.2143 81.2939 64.4773 81.2939H88.1028C90.3658 81.2939 93.0868 82.8561 94.1802 84.7831L110.819 114.107C111.912 116.034 110.964 117.596 108.701 117.596Z" stroke="black" stroke-width="0.6"/>
<ellipse cx="85.4164" cy="98.3821" rx="3.8382" ry="6.59388" transform="rotate(-60.8546 85.4164 98.3821)" fill="#485065" stroke="black" stroke-width="0.6"/>
<path d="M137.979 70.5322C146.894 74.1103 159.114 113.719 159.114 113.719L142.601 117.298L130.952 93.0026" fill="#FDD504"/>
<path d="M137.979 70.5322C146.894 74.1103 159.114 113.719 159.114 113.719L142.601 117.298L130.952 93.0026" stroke="black" stroke-width="0.6"/>
<path d="M152.41 108.866L113.459 103.754L102.519 101.624C102.519 101.624 96.32 101.715 95.8642 101.624C95.4084 101.532 90.3031 98.8824 89.7562 101.167C89.7562 101.167 87.6594 101.624 88.8901 103.497L91.1237 105.324C91.1237 105.324 89.5739 105.005 89.7106 106.192C89.8473 107.38 95.7986 109.927 96.3001 110.109C96.8014 110.292 103.34 110.03 107.077 110.944C108.253 111.231 109.898 111.736 111.6 112.292L117.461 114.304C118.566 114.698 119.293 114.964 119.293 114.964L119.3 114.936L149.397 125.269C154.603 126.403 159.602 122.703 159.856 117.529C160.068 113.202 156.833 109.438 152.41 108.866Z" fill="#F9C1BB"/>
<mask id="mask18_18_1592" style="mask-type:luminance" maskUnits="userSpaceOnUse" x="88" y="100" width="72" height="26">
<path fill-rule="evenodd" clip-rule="evenodd" d="M152.41 108.866L113.459 103.754L102.519 101.624C102.519 101.624 96.32 101.715 95.8642 101.624C95.4084 101.532 90.3031 98.8824 89.7562 101.167C89.7562 101.167 87.6594 101.624 88.8901 103.497L91.1237 105.324C91.1237 105.324 89.5739 105.005 89.7106 106.192C89.8473 107.38 95.7986 109.927 96.3001 110.109C96.8014 110.292 103.34 110.03 107.077 110.944C108.253 111.231 109.898 111.736 111.6 112.292L117.461 114.304C118.566 114.698 119.293 114.964 119.293 114.964L119.3 114.936L149.397 125.269C154.603 126.403 159.602 122.703 159.856 117.529C160.068 113.202 156.833 109.438 152.41 108.866Z" fill="white"/>
</mask>
<g mask="url(#mask18_18_1592)">
<path d="M138.922 105.256C156.867 108.731 159.826 117.893 159.264 123.041C158.702 128.19 165.707 109.468 165.707 109.468L159.264 103.474H146.293" fill="#ED707B"/>
</g>
<path fill-rule="evenodd" clip-rule="evenodd" d="M152.41 108.866L113.459 103.754L102.519 101.624C102.519 101.624 96.32 101.715 95.8642 101.624C95.4084 101.532 90.3031 98.8824 89.7562 101.167C89.7562 101.167 87.6594 101.624 88.8901 103.497L91.1237 105.324C91.1237 105.324 89.5739 105.005 89.7106 106.192C89.8473 107.38 95.7986 109.927 96.3001 110.109C96.8014 110.292 103.34 110.03 107.077 110.944C108.253 111.231 109.898 111.736 111.6 112.292V112.292L117.461 114.304C118.566 114.698 119.293 114.964 119.293 114.964L119.3 114.936L149.397 125.269C154.603 126.403 159.602 122.703 159.856 117.529C160.068 113.202 156.833 109.438 152.41 108.866Z" stroke="black" stroke-width="0.6"/>
<path d="M121.158 45.2262C109.821 46.3088 108.512 32.9834 108.512 32.9834C108.512 32.9834 106.059 39.4277 99.1192 39.6972C95.6315 58.313 105.013 59.297 112.718 54.6942" fill="#F9C1BB"/>
<mask id="mask19_18_1592" style="mask-type:luminance" maskUnits="userSpaceOnUse" x="98" y="32" width="24" height="26">
<path fill-rule="evenodd" clip-rule="evenodd" d="M121.158 45.2262C109.821 46.3088 108.512 32.9834 108.512 32.9834C108.512 32.9834 106.059 39.4277 99.1192 39.6972C95.6315 58.313 105.013 59.297 112.718 54.6942" fill="white"/>
</mask>
<g mask="url(#mask19_18_1592)">
<ellipse opacity="0.27" cx="94.4116" cy="49.6617" rx="4.26019" ry="4.27006" fill="#ED707B"/>
<ellipse opacity="0.27" cx="97.2302" cy="48.902" rx="3.26892" ry="2.42742" transform="rotate(-21.3046 97.2302 48.902)" fill="#ED707B"/>
<ellipse opacity="0.27" cx="111.964" cy="47.5489" rx="3.26796" ry="2.42813" transform="rotate(-4.1523 111.964 47.5489)" fill="#ED707B"/>
<rect x="100.418" y="42.271" width="1.71422" height="3.1691" rx="0.857112" transform="rotate(2.2065 100.418 42.271)" fill="black"/>
<path d="M108.157 42.2132C108.63 42.2314 108.999 42.6297 108.981 43.1027L108.925 44.5565C108.906 45.0295 108.508 45.3982 108.035 45.3799C107.562 45.3617 107.194 44.9635 107.212 44.4905L107.268 43.0367C107.277 42.8095 107.375 42.5951 107.542 42.4407C107.709 42.2863 107.93 42.2044 108.157 42.2132V42.2132Z" fill="black"/>
<path d="M101.138 40.2725C99.3704 40.7161 99.8152 41.6896 100.938 41.4845C102.061 41.2794 102.293 39.9827 101.138 40.2725Z" fill="black"/>
<path d="M108.185 40.1207C109.914 40.699 109.531 41.5672 108.427 41.2763C107.323 40.9853 107.056 39.7428 108.185 40.1207Z" fill="black"/>
<path d="M105.68 45.8887C105.654 46.5631 105.039 46.2716 104.269 46.242C103.498 46.2123 102.863 46.4555 102.888 45.7812C102.914 45.1068 103.56 44.5843 104.331 44.614C105.102 44.6437 105.706 45.2145 105.68 45.8887Z" fill="#ED707B"/>
<path d="M102.106 49.6382C102.932 53.0562 106.103 51.4393 106.047 49.2908C106.043 49.1798 105.969 49.0834 105.863 49.0496C105.417 48.902 104.127 48.6101 102.272 49.3245C102.146 49.3733 102.075 49.5069 102.106 49.6382Z" fill="#C1525F"/>
<mask id="mask20_18_1592" style="mask-type:luminance" maskUnits="userSpaceOnUse" x="102" y="48" width="5" height="4">
<path fill-rule="evenodd" clip-rule="evenodd" d="M102.106 49.6382C102.932 53.0562 106.103 51.4393 106.047 49.2908C106.043 49.1798 105.969 49.0834 105.863 49.0496C105.417 48.902 104.127 48.6101 102.272 49.3245C102.146 49.3733 102.075 49.5069 102.106 49.6382Z" fill="white"/>
</mask>
<g mask="url(#mask20_18_1592)">
<ellipse cx="104.671" cy="51.4102" rx="1.75966" ry="1.57314" transform="rotate(-22.642 104.671 51.4102)" fill="#993443"/>
<path d="M102.68 49.0494C102.698 49.2774 102.743 49.5857 102.807 49.6375C103.199 49.957 104.961 49.6684 105.188 49.4516C105.251 49.3913 105.205 48.6553 105.205 48.6553L102.94 48.9051" fill="white"/>
</g>
</g>
<path d="M121.158 45.2262C109.821 46.3088 108.512 32.9834 108.512 32.9834C108.512 32.9834 106.059 39.4277 99.1192 39.6972C95.6315 58.313 105.013 59.297 112.718 54.6942" stroke="black" stroke-width="0.6"/>
<path d="M118.695 45.2169C130.786 40.6702 124.11 54.335 116.543 51.1174L118.695 45.2169Z" fill="#F9C1BB"/>
<path d="M118.695 45.2169C130.786 40.6702 124.11 54.335 116.543 51.1174" stroke="black" stroke-width="0.6"/>
<path d="M123.866 49.3255C126.624 50.4439 128.081 53.4739 127.234 56.3265C126.386 59.179 123.51 60.9212 120.589 60.3518C117.668 59.7824 115.657 57.0876 115.943 54.1255C116.229 51.1633 118.717 48.9025 121.693 48.9019" stroke="white" stroke-width="0.6"/>
<ellipse cx="106.047" cy="81.5236" rx="1.17522" ry="1.17794" fill="black"/>
<ellipse cx="106.047" cy="87.0886" rx="1.17522" ry="1.17794" fill="black"/>
<path d="M106.048 76.2458C106.911 84.3989 120.443 83.9201 129.289 67.6489C129.289 67.6489 120.441 62.6924 120.233 65.5525C119.57 74.6789 106.048 76.2458 106.048 76.2458Z" fill="white" stroke="black" stroke-width="0.6"/>
<path d="M106.047 76.2457C103.729 82.7682 94.4739 82.7016 96.5369 70.5319C96.5369 70.5319 105.32 63.1058 104.078 65.6895C100.544 73.046 106.047 76.2457 106.047 76.2457Z" fill="white" stroke="black" stroke-width="0.6"/>
<path d="M114.776 32.8247C115.067 33.7008 115.589 34.482 116.288 35.0855" stroke="black" stroke-width="0.6"/>
<path d="M98.6564 62.6587L97.2129 63.9943" stroke="black" stroke-width="0.6"/>
<path d="M131.411 158.373C128.808 160.311 125.91 161.817 122.828 162.833" stroke="black" stroke-width="0.6"/>
<path d="M97.9531 225.459L103.576 225.808" stroke="black" stroke-width="0.6"/>
<path d="M139.094 223.578C140.463 223.301 141.867 223.241 143.255 223.401" stroke="black" stroke-width="0.6"/>
<path d="M226.6 102.014C225.359 100.781 223.726 100.021 221.999 99.7434L207.101 97.3496C200.787 96.3352 195.436 102.011 196.804 108.272L200.185 123.744L200.136 124.684L200.354 124.517L201.312 128.904C201.312 128.904 210.554 134.163 224.02 120.997C233.558 111.672 229.676 105.071 226.6 102.014Z" fill="#485065" stroke="black" stroke-width="0.6"/>
<path d="M204.421 118.783L193.362 135.238L206.374 147.684L219.208 123.127L204.421 118.783Z" fill="#F9C1BB"/>
<mask id="mask21_18_1592" style="mask-type:luminance" maskUnits="userSpaceOnUse" x="193" y="118" width="27" height="30">
<path fill-rule="evenodd" clip-rule="evenodd" d="M204.421 118.783L193.362 135.238L206.374 147.684L219.208 123.127L204.421 118.783Z" fill="white"/>
</mask>
<g mask="url(#mask21_18_1592)">
<path d="M209.258 124.494C213.299 130.005 209.443 135.462 212.51 137.193C215.99 139.157 218.717 134.407 218.717 134.407L220.11 126.83L209.111 122.183" fill="#ED707B"/>
</g>
<path fill-rule="evenodd" clip-rule="evenodd" d="M204.421 118.783L193.362 135.238L206.374 147.684L219.208 123.127L204.421 118.783V118.783Z" stroke="black" stroke-width="0.6"/>
<path d="M210.654 128.645C214.89 130.158 222.091 131.505 223.867 129.349C228.095 124.217 226.982 108.603 222.397 104.547C225.625 123.991 207.991 118.654 207.991 118.654L207.461 119.061L207.358 121.155" fill="#F9C1BB"/>
<path d="M210.654 128.645C214.89 130.158 222.091 131.505 223.867 129.349C228.095 124.217 226.982 108.603 222.397 104.547C225.625 123.991 207.991 118.654 207.991 118.654L207.461 119.061L207.358 121.155" stroke="black" stroke-width="0.6"/>
<path d="M212.849 120.08C205.52 108.876 199.968 119.322 204.78 123.122L212.849 120.08Z" fill="#F9C1BB"/>
<path d="M212.849 120.08C205.52 108.876 199.968 119.322 204.78 123.122" stroke="black" stroke-width="0.6"/>
<path d="M294.255 234.693H215.936L207.149 205.085L305.49 207.29L294.255 234.693Z" fill="#1AB995" stroke="black" stroke-width="0.6"/>
<path d="M266.49 123.899L252.97 145.209L263.082 155.053L276.953 134.346L266.49 123.899Z" fill="#485065" stroke="black" stroke-width="0.6"/>
<path d="M266.576 125.139L253.562 145.195L262.309 153.021L275.791 134.889L266.576 125.139Z" fill="white" stroke="black" stroke-width="0.6"/>
<path d="M276.953 134.346L271.098 130.698L255.111 152.364L263.082 154.796L276.953 134.346Z" fill="#485065" stroke="black" stroke-width="0.6"/>
<path d="M276.953 134.346L271.098 130.955L255.111 152.621L263.082 155.053L276.953 134.346Z" fill="#485065" stroke="black" stroke-width="0.6"/>
<path d="M311.14 304.583L304.693 302.247C303.681 301.88 303.037 300.946 303.101 299.935L303.728 290.003L287.983 290.389L286.596 308.778C286.466 310.496 287.939 311.95 289.787 311.928L309.092 311.697L311.14 304.583Z" fill="#F9C1BB"/>
<mask id="mask22_18_1592" style="mask-type:luminance" maskUnits="userSpaceOnUse" x="286" y="290" width="26" height="22">
<path fill-rule="evenodd" clip-rule="evenodd" d="M311.14 304.583L304.693 302.247C303.681 301.88 303.037 300.946 303.101 299.935L303.728 290.003L287.983 290.389L286.596 308.778C286.466 310.496 287.939 311.95 289.787 311.928L309.092 311.697L311.14 304.583Z" fill="white"/>
</mask>
<g mask="url(#mask22_18_1592)">
<path d="M283.201 295.868C294.552 297.388 303.187 293.693 303.524 293.23C303.861 292.767 293.351 290.943 293.351 290.943L283.201 295.868Z" fill="#ED707B"/>
</g>
<path fill-rule="evenodd" clip-rule="evenodd" d="M311.14 304.583L304.693 302.247C303.681 301.88 303.037 300.946 303.101 299.935L303.728 290.003L287.983 290.389L286.596 308.778C286.466 310.496 287.939 311.95 289.787 311.928L309.092 311.697L311.14 304.583Z" stroke="black" stroke-width="0.6"/>
<path d="M284.247 313.631C284.436 314.254 285.032 314.664 285.681 314.617L323.415 312.774C324.165 312.738 324.753 312.159 324.751 311.459C324.747 309.709 323.63 308.126 321.907 307.43L309.224 302.701L305.103 311.128L285.54 312.005C284.655 312.045 284.031 312.83 284.247 313.631Z" fill="#485065" stroke="black" stroke-width="0.6"/>
<path d="M356.612 268.253L349.809 269.414C348.74 269.597 347.666 269.115 347.152 268.223L342.099 259.459L328.908 267.481L338.071 283.818C338.927 285.344 340.999 285.863 342.56 284.941L358.869 275.312L356.612 268.253Z" fill="#F9C1BB"/>
<mask id="mask23_18_1592" style="mask-type:luminance" maskUnits="userSpaceOnUse" x="328" y="259" width="31" height="27">
<path fill-rule="evenodd" clip-rule="evenodd" d="M356.612 268.253L349.809 269.414C348.74 269.597 347.666 269.115 347.152 268.223L342.099 259.459L328.908 267.481L338.071 283.818C338.927 285.344 340.999 285.863 342.56 284.941L358.869 275.312L356.612 268.253Z" fill="white"/>
</mask>
<g mask="url(#mask23_18_1592)">
<path d="M325.422 278.824C334.951 275.987 345.354 263.592 345.354 263.592L330.467 265.372L325.662 273.149" fill="#ED707B"/>
</g>
<path fill-rule="evenodd" clip-rule="evenodd" d="M356.612 268.253L349.809 269.414C348.74 269.597 347.666 269.115 347.152 268.223L342.099 259.459L328.908 267.481L338.071 283.818C338.927 285.344 340.999 285.863 342.56 284.941L358.869 275.312L356.612 268.253Z" stroke="black" stroke-width="0.6"/>
<path d="M338.801 289.099C339.296 289.536 340.02 289.593 340.577 289.238L371.673 269.231C371.966 269.053 372.174 268.764 372.249 268.429C372.324 268.095 372.26 267.744 372.071 267.458C371.082 265.969 369.241 265.168 367.382 265.416L353.922 267.587L355.153 276.777L338.987 287.083C338.644 287.288 338.419 287.645 338.382 288.044C338.345 288.442 338.501 288.834 338.801 289.099Z" fill="#485065" stroke="black" stroke-width="0.6"/>
<path d="M235.024 159.669L237.037 156.481C237.037 156.481 242.805 151.554 243.747 149.963C244.69 148.372 244.431 140.937 249.228 139.529C254.025 138.12 260.936 135.462 260.936 135.462C260.936 135.462 262.892 138.556 253.048 141.512C253.048 141.512 254.549 148.179 251.356 153.323L238.76 169.88L235.024 159.669Z" fill="#F9C1BB"/>
<mask id="mask24_18_1592" style="mask-type:luminance" maskUnits="userSpaceOnUse" x="235" y="135" width="27" height="35">
<path fill-rule="evenodd" clip-rule="evenodd" d="M235.024 159.669L237.037 156.481C237.037 156.481 242.805 151.554 243.747 149.963C244.69 148.372 244.431 140.937 249.228 139.529C254.025 138.12 260.936 135.462 260.936 135.462C260.936 135.462 262.892 138.556 253.048 141.512C253.048 141.512 254.549 148.179 251.356 153.323L238.76 169.88L235.024 159.669Z" fill="white"/>
</mask>
<g mask="url(#mask24_18_1592)">
<path d="M246.583 161.546C241.031 164.662 239.707 157.203 237.038 156.481C234.368 155.758 238.514 166.294 238.514 166.294L240.809 169.88L245.028 168.743L246.583 161.546Z" fill="#ED707B"/>
</g>
<path fill-rule="evenodd" clip-rule="evenodd" d="M235.024 159.669L237.037 156.481C237.037 156.481 242.805 151.554 243.747 149.963C244.69 148.372 244.431 140.937 249.228 139.529C254.025 138.12 260.936 135.462 260.936 135.462C260.936 135.462 262.892 138.556 253.048 141.512C253.048 141.512 254.549 148.179 251.356 153.323L238.76 169.88L235.024 159.669Z" stroke="black" stroke-width="0.6"/>
<path d="M236.859 155.887C236.859 155.887 243.6 163.413 243.344 167.604L217.667 201.451L213.052 172.693L236.859 155.887Z" fill="white"/>
<mask id="mask25_18_1592" style="mask-type:luminance" maskUnits="userSpaceOnUse" x="213" y="155" width="31" height="47">
<path fill-rule="evenodd" clip-rule="evenodd" d="M236.859 155.887C236.859 155.887 243.6 163.413 243.344 167.604L217.667 201.451L213.052 172.693L236.859 155.887Z" fill="white"/>
</mask>
<g mask="url(#mask25_18_1592)">
<path d="M230.054 157.527C238.371 161.016 239.408 179.565 239.408 179.565" stroke="#D6DCF2" stroke-width="0.6"/>
</g>
<path fill-rule="evenodd" clip-rule="evenodd" d="M236.859 155.887C236.859 155.887 243.6 163.413 243.344 167.604L217.667 201.451L213.052 172.693L236.859 155.887Z" stroke="black" stroke-width="0.6"/>
<path d="M195.561 135.377L195.047 132.11C195.047 132.11 192.317 118.434 211.708 135.193L195.561 135.377Z" fill="white" stroke="black" stroke-width="0.6"/>
<path d="M322.036 277.057C322.036 277.057 343.833 267.372 345.354 263.592L304.839 187.87C300.376 179.529 289.8 175.767 280.509 179.215L268.304 183.746L322.036 277.057Z" fill="#1AB995"/>
<mask id="mask26_18_1592" style="mask-type:luminance" maskUnits="userSpaceOnUse" x="268" y="177" width="78" height="101">
<path fill-rule="evenodd" clip-rule="evenodd" d="M322.036 277.057C322.036 277.057 343.833 267.372 345.354 263.592L304.839 187.87C300.376 179.529 289.8 175.767 280.509 179.215L268.304 183.746L322.036 277.057Z" fill="white"/>
</mask>
<g mask="url(#mask26_18_1592)">
<path d="M312.09 270.838C320.751 270.17 343.889 255.479 343.889 255.479L348.596 266.039L324.75 282.858L312.09 270.838Z" fill="#1A80FD" stroke="black" stroke-width="0.6"/>
</g>
<path fill-rule="evenodd" clip-rule="evenodd" d="M322.036 277.057C322.036 277.057 343.833 267.372 345.354 263.592L304.839 187.87C300.376 179.529 289.8 175.767 280.509 179.215L268.304 183.746L322.036 277.057Z" stroke="black" stroke-width="0.6"/>
<path d="M281.408 226.042L275.413 292.963C275.413 292.963 298.055 295.168 304.476 292.963L312.046 211.71C312.619 205.563 307.582 200.209 300.968 199.935L283.811 199.225" fill="#1AB995"/>
<mask id="mask27_18_1592" style="mask-type:luminance" maskUnits="userSpaceOnUse" x="275" y="199" width="38" height="95">
<path fill-rule="evenodd" clip-rule="evenodd" d="M281.408 226.042L275.413 292.963C275.413 292.963 298.055 295.168 304.476 292.963L312.046 211.71C312.619 205.563 307.582 200.209 300.968 199.935L283.811 199.225" fill="white"/>
</mask>
<g mask="url(#mask27_18_1592)">
<path d="M270.646 282.858C281.528 286.643 309.062 284.417 309.062 284.417V296.214L271.313 296.437" fill="#1A80FD"/>
<path d="M270.646 282.858C281.528 286.643 309.062 284.417 309.062 284.417V296.214L271.313 296.437" stroke="black" stroke-width="0.6"/>
</g>
<path d="M281.408 226.042L275.413 292.963C275.413 292.963 298.055 295.168 304.476 292.963L312.046 211.71C312.619 205.563 307.582 200.209 300.968 199.935L283.811 199.225" stroke="black" stroke-width="0.6"/>
<path d="M245.773 219.889C246.44 219.196 286.408 217.494 288.62 219.027C290.833 220.56 282.954 284.817 282.954 284.817" stroke="white" stroke-width="0.6"/>
<path d="M302.965 198.497L237.224 233.351C232.247 235.973 226.706 237.339 221.081 237.33C203.695 237.33 189.358 224.631 188.475 208.447L188.227 203.904L281.424 177.878C291.099 175.176 301.394 179.76 305.218 188.473L309.062 195.763" fill="#1AB995"/>
<mask id="mask28_18_1592" style="mask-type:luminance" maskUnits="userSpaceOnUse" x="188" y="177" width="122" height="61">
<path fill-rule="evenodd" clip-rule="evenodd" d="M302.965 198.497L237.224 233.351C232.247 235.973 226.706 237.339 221.081 237.33C203.695 237.33 189.358 224.631 188.475 208.447L188.227 203.904L281.424 177.878C291.099 175.176 301.394 179.76 305.218 188.473L309.062 195.763" fill="white"/>
</mask>
<g mask="url(#mask28_18_1592)">
<path d="M234.964 194.852C183.847 220.365 213.983 239.5 226.345 240.917C238.707 242.335 156.841 237.331 156.841 237.331L174.329 201.467L216.875 199.225" fill="#0FA379"/>
<path d="M200.749 205.086C209.575 238.562 287.303 189.146 287.303 189.146" stroke="white" stroke-width="0.6"/>
<path d="M216.385 214.225C228.673 208.289 218.161 203.689 218.161 203.689" stroke="white" stroke-width="0.6"/>
</g>
<path d="M302.965 198.497L237.224 233.351C232.247 235.973 226.706 237.339 221.081 237.33V237.33C203.695 237.33 189.358 224.631 188.475 208.447L188.227 203.904L281.424 177.878C291.099 175.176 301.394 179.76 305.218 188.473L309.062 195.763" stroke="black" stroke-width="0.6"/>
<path d="M211.708 135.192L195.047 132.109C166.333 155.886 191.079 202.242 179.474 206.604C179.474 206.604 179.474 223.792 237.883 192.065C237.883 192.065 228.923 147.419 211.708 135.192Z" fill="white"/>
<mask id="mask29_18_1592" style="mask-type:luminance" maskUnits="userSpaceOnUse" x="179" y="132" width="59" height="80">
<path fill-rule="evenodd" clip-rule="evenodd" d="M211.708 135.192L195.047 132.109C166.333 155.886 191.079 202.242 179.474 206.604C179.474 206.604 179.474 223.792 237.883 192.065C237.883 192.065 228.923 147.419 211.708 135.192Z" fill="white"/>
</mask>
<g mask="url(#mask29_18_1592)">
<path d="M202.83 158.9C217.704 189.971 205.756 215.157 179.474 206.604C153.192 198.051 170.6 230.21 170.6 230.21L208.679 235.342L240.315 195.827L213.052 161.211L202.83 158.9Z" fill="#D6DCF2"/>
<path d="M180.63 201.451C187.08 211.241 226.507 193.214 226.507 193.214L231.708 201.451L181.074 219.889L177.521 205.085L181.074 199.225" fill="white"/>
<path d="M180.63 201.451C187.08 211.241 226.507 193.214 226.507 193.214L231.708 201.451L181.074 219.889L177.521 205.085L181.074 199.225" stroke="black" stroke-width="0.6"/>
<path d="M173.598 148.884C186.37 142.385 199.344 150.006 199.344 150.006" stroke="white" stroke-width="0.6"/>
</g>
<path fill-rule="evenodd" clip-rule="evenodd" d="M211.708 135.192L195.047 132.109C166.333 155.886 191.079 202.242 179.474 206.604C179.474 206.604 179.474 223.792 237.883 192.065C237.883 192.065 228.923 147.419 211.708 135.192Z" stroke="black" stroke-width="0.6"/>
<path d="M247.301 170.592L257.441 156.347L264.874 142.386C267.436 141.354 265.672 146.909 265.042 148.725C265.042 148.725 270.897 140.216 271.275 139.575C271.275 139.575 275.037 137.757 270.669 149.723C268.727 155.046 263.614 158.377 263.614 158.377L257.441 175.578L247.301 170.592Z" fill="#F9C1BB"/>
<mask id="mask30_18_1592" style="mask-type:luminance" maskUnits="userSpaceOnUse" x="247" y="139" width="26" height="37">
<path fill-rule="evenodd" clip-rule="evenodd" d="M247.301 170.592L257.441 156.347L264.874 142.386C267.436 141.354 265.672 146.909 265.042 148.725C265.042 148.725 270.897 140.216 271.275 139.575C271.275 139.575 275.037 137.757 270.669 149.723C268.727 155.046 263.614 158.377 263.614 158.377L257.441 175.578L247.301 170.592Z" fill="white"/>
</mask>
<g mask="url(#mask30_18_1592)">
<path d="M262.997 166.22C258.722 168.446 256.191 162.261 250.558 166.015C248.099 167.655 254.577 171.681 254.577 171.681H261.758L263.534 167.11" fill="#ED707B"/>
</g>
<path fill-rule="evenodd" clip-rule="evenodd" d="M247.301 170.592L257.441 156.347L264.874 142.386C267.436 141.354 265.672 146.909 265.042 148.725C265.042 148.725 270.897 140.216 271.275 139.575C271.275 139.575 275.037 137.757 270.669 149.723C268.727 155.046 263.614 158.377 263.614 158.377L257.441 175.578L247.301 170.592Z" stroke="black" stroke-width="0.6"/>
<path d="M220.381 144.778L238.779 178.353L249.63 165.963C249.63 165.963 260.131 166.295 262.985 170.237C263.451 170.881 250.981 193.529 250.981 193.529C249.164 197.055 245.624 199.734 241.288 200.865C233.918 202.788 225.998 199.849 222.662 193.954L202.829 158.9" fill="white"/>
<mask id="mask31_18_1592" style="mask-type:luminance" maskUnits="userSpaceOnUse" x="202" y="144" width="61" height="58">
<path fill-rule="evenodd" clip-rule="evenodd" d="M220.381 144.778L238.779 178.353L249.63 165.963C249.63 165.963 260.131 166.295 262.985 170.237C263.451 170.881 250.981 193.529 250.981 193.529C249.164 197.055 245.624 199.734 241.288 200.865C233.918 202.788 225.998 199.849 222.662 193.954L202.829 158.9" fill="white"/>
</mask>
<g mask="url(#mask31_18_1592)">
<path d="M244.828 171.447C252.379 169.261 263.836 177.94 263.836 177.94" stroke="#D6DCF2" stroke-width="0.6"/>
<ellipse cx="236.845" cy="201.229" rx="11.7993" ry="3.85637" fill="#FDD504" stroke="black" stroke-width="0.6"/>
</g>
<path d="M220.381 144.778L238.779 178.353L249.63 165.963C249.63 165.963 260.131 166.295 262.985 170.237C263.451 170.881 250.981 193.529 250.981 193.529C249.164 197.055 245.624 199.734 241.288 200.865V200.865C233.918 202.788 225.998 199.849 222.662 193.954L202.829 158.9" stroke="black" stroke-width="0.6"/>
<rect x="191.571" y="232.876" width="69.6914" height="82.6854" rx="7.39765" fill="#FDD504"/>
<mask id="mask32_18_1592" style="mask-type:luminance" maskUnits="userSpaceOnUse" x="191" y="232" width="71" height="84">
<rect x="191.571" y="232.876" width="69.6914" height="82.6854" rx="7.39765" fill="white"/>
</mask>
<g mask="url(#mask32_18_1592)">
<path d="M173.584 264.435C182.717 261.762 192.378 261.131 201.745 262.758C206.019 263.5 210.704 264.471 214.389 266.983C217.987 269.435 219.732 273.504 219.882 277.911C220.187 286.838 214.677 294.581 213.692 303.3C213.258 307.145 213.641 311.183 215.476 314.607C217.283 317.977 220.364 320.314 223.674 321.876C232.595 326.087 243.365 326.95 253.014 326.332C254.532 326.234 254.543 323.747 253.014 323.845C243.875 324.431 233.835 323.689 225.308 319.921C221.275 318.14 217.732 315.248 216.472 310.685C215.284 306.386 216.075 301.833 217.339 297.661C219.716 289.819 223.873 281.854 221.624 273.407C219.326 264.775 211.02 262.01 203.448 260.557C193.31 258.623 182.857 259.13 172.953 262.037C171.484 262.467 172.108 264.867 173.584 264.435V264.435Z" fill="#FCB006"/>
<path d="M230.328 219.178C226.218 223.883 223.062 229.447 221.393 235.6C220.575 238.616 220.006 241.916 220.767 245.012C221.443 247.761 223.204 249.979 225.293 251.711C230.187 255.769 236.615 258.027 242.631 259.444C249.42 261.044 256.399 261.553 263.341 261.662C271.887 261.795 280.434 261.373 288.977 261.747C290.505 261.814 290.502 259.328 288.977 259.261C275.894 258.687 262.713 260.054 249.688 258.24C243.65 257.399 237.596 255.876 232.087 253.101C229.566 251.831 226.976 250.345 225.079 248.147C222.905 245.628 222.495 242.505 223.016 239.244C224.109 232.399 227.578 226.008 232.008 220.936C233.037 219.757 231.362 217.994 230.328 219.178L230.328 219.178Z" fill="#FCB006"/>
<path d="M262.651 264.161C256.76 312.965 257.987 317.361 226.416 315.562C204.047 314.288 245.773 334.083 245.773 334.083L268.304 312.406L262.651 264.161Z" fill="#FCB006"/>
</g>
<rect x="191.571" y="232.876" width="69.6914" height="82.6854" rx="7.39765" stroke="black" stroke-width="0.6"/>
<path d="M214.126 139.08C197.248 136.502 201.134 157.527 201.134 157.527" stroke="white" stroke-width="0.6"/>
<path d="M179.984 201.372L191.772 198.349L190.438 193.122L178.649 196.144L179.984 201.372Z" fill="white" stroke="black" stroke-width="0.6"/>
<ellipse cx="182.283" cy="197.997" rx="0.674568" ry="0.67614" fill="#2F387E" stroke="black" stroke-width="0.6"/>
<path d="M222.03 115.038C222.586 114.943 223.113 115.317 223.209 115.872L223.501 117.58C223.596 118.136 223.223 118.664 222.667 118.759C222.111 118.854 221.583 118.48 221.488 117.925L221.196 116.217C221.101 115.661 221.474 115.133 222.03 115.038L222.03 115.038Z" fill="black"/>
<path d="M222.352 111.51C219.289 111.895 218.827 113.274 220.758 113.159C222.688 113.043 224.353 111.258 222.352 111.51Z" fill="black"/>
<path d="M225.079 116.531C229.188 118.277 228.485 122.421 225.757 121.932L225.079 116.531Z" fill="#F9C1BB"/>
<path d="M225.079 116.531C229.188 118.277 228.485 122.421 225.757 121.932" stroke="black" stroke-width="0.6"/>
<ellipse opacity="0.27" cx="219.104" cy="119.952" rx="2.32492" ry="1.7184" fill="#ED707B"/>
<path d="M220.499 122.229C222.089 124.005 224.093 123.453 224.093 123.453L220.499 122.229Z" fill="#F9C1BB"/>
<path d="M220.499 122.229C222.089 124.005 224.093 123.453 224.093 123.453" stroke="#BA424D" stroke-width="0.6"/>
<path d="M207.913 118.672C207.62 118.17 206.843 118.048 206.411 118.436C205.979 118.824 206.015 119.612 206.481 119.959" stroke="black" stroke-width="0.6"/>
<path d="M212.474 103.403C211.759 105.438 210.611 107.294 209.108 108.842" stroke="black" stroke-width="0.6"/>
<path d="M239.376 178.696L238.472 181.808" stroke="black" stroke-width="0.6"/>
<path d="M195.22 177.417C196.322 178.664 198.069 179.121 199.641 178.572" stroke="black" stroke-width="0.6"/>
<path d="M322.818 243.005C321.917 244.779 320.721 246.388 319.28 247.761" stroke="black" stroke-width="0.6"/>
<defs>
<linearGradient id="paint0_linear_18_1592" x1="77.8429" y1="92.8675" x2="79.6096" y2="93.4171" gradientUnits="userSpaceOnUse">
<stop offset="0.0048" stop-color="#9461E2"/>
<stop offset="0.9986" stop-color="#6D26E2"/>
</linearGradient>
</defs>
</svg>
