<svg width="164" height="94" viewBox="0 0 164 94" fill="none" xmlns="http://www.w3.org/2000/svg">
<path fill-rule="evenodd" clip-rule="evenodd" d="M11 93.5228C4.92487 93.5228 0 88.5979 0 82.5228V12.293C0 6.21785 4.92487 1.29297 11 1.29297H152.18C158.255 1.29297 163.18 6.21784 163.18 12.293V82.5228C163.18 88.5979 158.255 93.5228 152.18 93.5228H11Z" fill="#1677FF"/>
<path opacity="0.31" fill-rule="evenodd" clip-rule="evenodd" d="M32.0725 1.29301H24.3095C24.3259 1.61446 24.333 1.93803 24.333 2.26385C24.333 14.1593 13.7863 23.8372 0.822847 23.8372C0.547791 23.8372 0.272726 23.8329 0 23.8221V30.9477C0.272726 30.952 0.547791 30.9564 0.822847 30.9564C18.0652 30.9564 32.0913 18.0857 32.0913 2.26385C32.0913 1.93802 32.0842 1.61445 32.0725 1.29301Z" fill="url(#paint0_linear_187_22)"/>
<path fill-rule="evenodd" clip-rule="evenodd" d="M163.18 66.353V84.1137C163.18 89.3105 157.95 93.5228 151.497 93.5228H123.561C123.134 91.9147 122.91 90.2451 122.91 88.5333C122.91 75.3917 136.14 64.7372 152.457 64.7372C156.239 64.7372 159.856 65.3091 163.18 66.353Z" fill="#52BCFF"/>
<path opacity="0.25" fill-rule="evenodd" clip-rule="evenodd" d="M24.0171 74.4654C24.0171 69.0926 28.8177 64.7372 34.7396 64.7372C40.6615 64.7372 45.4622 69.0926 45.4622 74.4654C45.4622 79.8381 40.6615 84.1936 34.7396 84.1936C28.8177 84.1936 24.0171 79.8381 24.0171 74.4654Z" fill="#52BCFF"/>
<path opacity="0.08" fill-rule="evenodd" clip-rule="evenodd" d="M88.8552 27.414C88.8552 21.1103 94.4861 16.0001 101.432 16.0001C108.378 16.0001 114.009 21.1103 114.009 27.414C114.009 33.7177 108.378 38.8279 101.432 38.8279C94.4861 38.8279 88.8552 33.7177 88.8552 27.414Z" stroke="#52BCFF" stroke-width="32"/>
<defs>
<linearGradient id="paint0_linear_187_22" x1="-22.9954" y1="23.2589" x2="19.2855" y2="98.3982" gradientUnits="userSpaceOnUse">
<stop stop-color="#335EFF"/>
<stop offset="1" stop-color="#AEC4FF"/>
</linearGradient>
</defs>
</svg>
