<svg width="165" height="93" viewBox="0 0 165 93" fill="none" xmlns="http://www.w3.org/2000/svg">
<path fill-rule="evenodd" clip-rule="evenodd" d="M11.2051 92.4459C5.12995 92.4459 0.205078 87.5211 0.205078 81.4459V11.2161C0.205078 5.14099 5.12995 0.216103 11.2051 0.216103H152.385C158.46 0.216103 163.385 5.14097 163.385 11.2161V81.4459C163.385 87.5211 158.46 92.4459 152.385 92.4459H11.2051Z" fill="#1677FF"/>
<path fill-rule="evenodd" clip-rule="evenodd" d="M56.9479 0.216223C50.6662 8.17058 49.6035 20.396 40.901 25.6247C35.5819 28.8151 28.8972 28.353 22.7721 27.3983C16.6419 26.446 10.2857 25.1138 4.34289 26.872C2.8129 27.3238 1.35478 27.9886 0.00449974 28.8253V12.8011C0.00449974 9.65925 1.15712 6.78455 3.06191 4.57971C4.72539 2.65204 6.96391 1.2352 9.51305 0.5961C10.4988 0.347128 11.5282 0.216233 12.591 0.216233L56.9479 0.216223Z" fill="#EA4E0D"/>
<path fill-rule="evenodd" clip-rule="evenodd" d="M164.386 41.9208V80.3498C164.386 87.3011 158.751 92.9354 151.8 92.9354H105.165C103.815 86.3411 105.214 79.0434 110.066 74.5693C119.019 66.3166 127.747 73.6029 137.417 71.8804C149.875 69.6627 142.566 55.5125 148.573 48.007C152.133 43.5585 158.191 41.8592 164.386 41.9208V41.9208Z" fill="#07E6B9"/>
<path fill-rule="evenodd" clip-rule="evenodd" d="M14.6589 79.3126C16.9456 83.9443 17.5949 88.7481 20.1819 92.9356H12.5878C5.63785 92.9356 0.0044986 87.3001 0.0044986 80.3473V73.4691C6.05104 72.2804 11.5766 73.066 14.6589 79.3127L14.6589 79.3126Z" fill="#52BCFF"/>
<path opacity="0.05" d="M45.2749 64.4227C45.0952 61.8395 45.067 59.2499 45.2826 56.6646C45.6677 52.0465 46.8742 47.4218 49.277 43.2282C51.5668 39.2286 54.9835 35.7837 59.2961 33.1833C63.4521 30.6792 68.2525 28.9769 73.212 27.9252C75.7175 27.3921 78.2742 27.023 80.8464 26.799C83.4751 26.5708 86.1012 26.56 88.7401 26.526C91.3508 26.4919 94.0744 26.383 96.5002 25.502C98.7618 24.683 100.428 23.1812 101.393 21.3126C102.327 19.5037 102.671 17.5263 103.005 15.5938C103.352 13.5802 103.685 11.5644 104.509 9.64028C106.137 5.84771 109.251 2.51786 113.219 0.216223" stroke="white" stroke-width="0.5"/>
</svg>
