<svg width="118" height="118" viewBox="0 0 118 118" fill="none" xmlns="http://www.w3.org/2000/svg">
<path fill-rule="evenodd" clip-rule="evenodd" d="M0 59C0 26.4152 26.4152 0 59 0C91.5848 0 118 26.4152 118 59C118 91.5848 91.5848 118 59 118C26.4152 118 0 91.5848 0 59Z" fill="#E7F0FF"/>
<path fill-rule="evenodd" clip-rule="evenodd" d="M48.8657 81.14L28.0657 60.2204C26.816 58.9636 26.816 56.9258 28.0657 55.6688L32.591 51.1173C33.8407 49.8604 35.8669 49.8604 37.1165 51.1173L51.1284 65.2096L81.1403 35.0253C82.3899 33.7685 84.4162 33.7685 85.6658 35.0253L90.1912 39.5768C91.4408 40.8336 91.4408 42.8714 90.1912 44.1284L53.3912 81.1401C52.1414 82.3969 50.1153 82.3969 48.8657 81.14L48.8657 81.14Z" fill="#1890FF"/>
</svg>
