<svg width="54" height="54" viewBox="0 0 54 54" fill="none" xmlns="http://www.w3.org/2000/svg">
<path fill-rule="evenodd" clip-rule="evenodd" d="M21.1201 53.5283C17.0872 53.5169 13.8247 50.2424 13.8275 46.2088C13.8275 45.2884 14.5736 44.5422 15.494 44.5422C16.4144 44.5422 17.1605 45.2884 17.1605 46.2088C17.1603 48.3955 18.9327 50.1681 21.119 50.1681C23.3053 50.1681 25.0778 48.3955 25.0778 46.2088L25.0776 24.7316C25.0776 23.8111 25.8237 23.0649 26.744 23.0649C27.6644 23.0649 28.4105 23.8111 28.4105 24.7316V46.2088C28.4134 50.2415 25.1522 53.5156 21.1201 53.5283H21.1201Z" fill="#EA4E0D"/>
<path fill-rule="evenodd" clip-rule="evenodd" d="M43.7185 22.7062C40.3512 22.6966 37.2006 24.3658 35.3172 27.1571C33.4271 24.3732 30.2807 22.7063 26.9158 22.7063C23.5509 22.7063 20.4045 24.3732 18.5144 27.1571C15.501 22.728 9.56932 21.3945 4.95032 24.1078C8.51221 15.0919 17.2218 9.16812 26.9158 9.16812C36.6098 9.16812 45.3194 15.0919 48.8813 24.1078C47.3167 23.1873 45.5338 22.7033 43.7185 22.7062ZM28.4261 5.88074V1.6793C28.4263 0.75186 27.6744 0 26.747 0C25.8195 0 25.0677 0.75185 25.0677 1.6793L25.0678 5.90654C11.0849 6.85257 0 18.4321 0 32.5393C0.00369 33.4631 0.75554 34.2089 1.6793 34.2052C1.69077 34.2052 1.70159 34.202 1.71306 34.202C1.72453 34.202 1.73535 34.2052 1.74683 34.2052C2.67058 34.2089 3.42244 33.4631 3.42613 32.5393C3.42613 28.9546 6.42638 26.0381 10.1153 26.0381C13.8042 26.0381 16.8045 28.9546 16.8045 32.5393C16.8081 33.4631 17.56 34.2089 18.4838 34.2052C18.4956 34.2052 18.5064 34.202 18.5182 34.2017C18.53 34.2014 18.5408 34.2052 18.5526 34.2052C19.4763 34.2089 20.2282 33.4631 20.2319 32.5393C20.2319 28.9546 23.2321 26.0381 26.921 26.0381C30.61 26.0381 33.6102 28.9546 33.6102 32.5393C33.6139 33.4631 34.3658 34.2089 35.2895 34.2052C35.3013 34.2052 35.3121 34.202 35.3239 34.2017C35.3357 34.2014 35.3465 34.2052 35.3583 34.2052C36.2821 34.2089 37.0339 33.4631 37.0376 32.5393C37.0376 28.9546 40.0376 26.0381 43.7268 26.0381C47.416 26.0381 50.416 28.9546 50.416 32.5393C50.4196 33.4631 51.1715 34.2089 52.0953 34.2052C52.1067 34.2052 52.1176 34.202 52.129 34.202C52.1405 34.202 52.1513 34.2052 52.1628 34.2052C53.0866 34.2089 53.8384 33.4631 53.8421 32.5393C53.8319 18.3185 42.568 6.66114 28.4261 5.88073L28.4261 5.88074Z" fill="#2966C1"/>
</svg>
