<svg width="29" height="29" viewBox="0 0 29 29" fill="none" xmlns="http://www.w3.org/2000/svg">
<mask id="mask0_0_5092" style="mask-type:alpha" maskUnits="userSpaceOnUse" x="-1" y="0" width="30" height="29">
<path fill-rule="evenodd" clip-rule="evenodd" d="M-0.0022704 28.2935V0.00345939H28.2978V28.2935H-0.0022704Z" fill="#E9E9E9"/>
</mask>
<g mask="url(#mask0_0_5092)">
<path fill-rule="evenodd" clip-rule="evenodd" d="M25.2541 23.7306H3.0409C2.31779 23.7317 1.73024 23.1473 1.72746 22.4242V11.7597H26.5671V22.4248C26.564 23.1475 25.9768 23.7315 25.2541 23.7306L25.2541 23.7306ZM3.0409 4.56447H25.2541C25.9773 4.5633 26.5649 5.14777 26.5676 5.87091V10.0405H1.7281V5.87059C1.73097 5.14783 2.31813 4.56366 3.0409 4.56447ZM25.2541 2.84595H3.0409C1.36698 2.84397 0.00699 4.19669 0 5.87059V22.4248C0.0069 24.0987 1.36694 25.4515 3.0409 25.4494H25.2541C26.9281 25.4515 28.2881 24.0987 28.295 22.4248V5.87059C28.2881 4.19664 26.9281 2.84387 25.2541 2.84595Z" fill="#2966C1"/>
<path fill-rule="evenodd" clip-rule="evenodd" d="M21.5113 22.0008C21.3563 22.0009 21.2039 21.9602 21.0698 21.8826C20.8716 21.7707 20.727 21.5835 20.6689 21.3635C20.6107 21.1436 20.6439 20.9094 20.7608 20.7142L22.891 17.1745C23.141 16.7671 23.6703 16.6331 24.084 16.8726C24.2822 16.9845 24.4267 17.1716 24.4849 17.3916C24.5431 17.6116 24.5099 17.8458 24.393 18.041L22.2627 21.5806C22.1032 21.8429 21.818 22.0023 21.5111 22.0008H21.5113ZM17.2519 22.0008C17.0969 22.0009 16.9446 21.9602 16.8104 21.8826C16.6122 21.7707 16.4677 21.5835 16.4095 21.3635C16.3513 21.1436 16.3845 20.9094 16.5014 20.7142L18.6317 17.1745C18.8816 16.7671 19.4108 16.6331 19.8246 16.8726C20.0228 16.9845 20.1674 17.1716 20.2255 17.3916C20.2837 17.6116 20.2506 17.8458 20.1336 18.041L18.0033 21.5806C17.8439 21.8429 17.5586 22.0023 17.2517 22.0008H17.2519ZM13.1215 22.0008C12.9665 22.0009 12.8141 21.9602 12.68 21.8826C12.4818 21.7707 12.3372 21.5836 12.279 21.3635C12.2208 21.1436 12.254 20.9094 12.371 20.7142L14.5012 17.1745C14.7512 16.7671 15.2803 16.6331 15.694 16.8726C15.8922 16.9844 16.0369 17.1715 16.095 17.3916C16.1532 17.6116 16.12 17.8458 16.003 18.041L13.8727 21.5806C13.7133 21.8427 13.4282 22.0022 13.1215 22.0008Z" fill="#EA4E0D"/>
</g>
</svg>
