<svg width="29" height="29" viewBox="0 0 29 29" fill="none" xmlns="http://www.w3.org/2000/svg">
<mask id="mask0_0_4957" style="mask-type:alpha" maskUnits="userSpaceOnUse" x="0" y="-1" width="29" height="30">
<path fill-rule="evenodd" clip-rule="evenodd" d="M-2.99947e-05 28.2984V-0.00173031H28.2901V28.2984H-2.99947e-05Z" fill="#E9E9E9"/>
</mask>
<g mask="url(#mask0_0_4957)">
<path fill-rule="evenodd" clip-rule="evenodd" d="M25.9845 25.4146C25.984 26.0054 25.5053 26.4843 24.9145 26.4851H19.3376V9.46774L25.9845 14.2272V25.4146V25.4146ZM17.5294 26.4826H3.11582C2.67149 26.482 2.31154 26.1218 2.31116 25.6775V2.61559C2.31153 2.17119 2.6716 1.81098 3.11598 1.81043H16.7237C17.168 1.81107 17.528 2.17126 17.5284 2.61559V26.4826H17.5294ZM27.1398 12.829L19.5218 7.37322C19.4648 7.33304 19.4032 7.29967 19.3385 7.27377V2.61558C19.3375 1.17172 18.1674 0.00138 16.7236 0H3.11582C1.67236 0.00195 0.502963 1.17212 0.501953 2.61558V25.6775C0.503243 27.1207 1.67247 28.2905 3.11567 28.2925H18.4268C18.4355 28.2925 18.4436 28.295 18.4521 28.295H24.913C26.503 28.2933 27.7913 27.0046 27.7927 25.4146V14.1003C27.7923 13.5962 27.5493 13.123 27.1398 12.829L27.1398 12.829Z" fill="#2966C1"/>
<path fill-rule="evenodd" clip-rule="evenodd" d="M13.0535 20.6708H7.01104C6.51467 20.6709 6.1123 20.2685 6.1123 19.7721C6.1123 19.2758 6.51467 18.8734 7.01104 18.8734L13.0535 18.8735C13.5499 18.8734 13.9523 19.2758 13.9523 19.7721C13.9523 20.2685 13.5499 20.6709 13.0535 20.6709V20.6708ZM13.0535 14.8651H7.01104C6.51467 14.8652 6.1123 14.4628 6.1123 13.9664C6.1123 13.47 6.51467 13.0677 7.01104 13.0677L13.0535 13.0677C13.5499 13.0677 13.9523 13.47 13.9523 13.9664C13.9523 14.4628 13.5499 14.8652 13.0535 14.8652V14.8651ZM13.0535 9.02081H7.01104C6.51467 9.0209 6.1123 8.61853 6.1123 8.12216C6.1123 7.62579 6.51467 7.22339 7.01104 7.22339L13.0535 7.22348C13.5499 7.22339 13.9523 7.62579 13.9523 8.12216C13.9523 8.61853 13.5499 9.0209 13.0535 9.0209V9.02081Z" fill="#EA4E0D"/>
</g>
</svg>
