<svg width="29" height="29" viewBox="0 0 29 29" fill="none" xmlns="http://www.w3.org/2000/svg">
<mask id="mask0_0_5134" style="mask-type:alpha" maskUnits="userSpaceOnUse" x="0" y="0" width="29" height="29">
<path fill-rule="evenodd" clip-rule="evenodd" d="M0.000979828 28.2935V0.00345939H28.2911V28.2935H0.000979828Z" fill="#E9E9E9"/>
</mask>
<g mask="url(#mask0_0_5134)">
<path fill-rule="evenodd" clip-rule="evenodd" d="M2.8767 16.6911L14.3948 26.37L25.4646 16.6901L24.4038 16.6755C23.3676 16.6589 22.5347 15.8174 22.5287 14.7811V2.40591C22.5275 2.03916 22.2298 1.74253 21.863 1.74271H6.76918C6.4023 1.74234 6.10436 2.03903 6.10317 2.40591V14.7794C6.09734 15.8166 5.26298 16.6585 4.22593 16.6737L2.8767 16.6911ZM14.4024 28.295C14.1229 28.2948 13.8526 28.1955 13.6394 28.0149L0.586802 17.0467C0.209472 16.7294 0.0696922 16.2107 0.236552 15.7468C0.403412 15.2829 0.841572 14.972 1.33455 14.9678L4.20361 14.9312C4.2867 14.93 4.35357 14.8626 4.35402 14.7795V2.40591C4.35812 1.07525 5.43852 -0.001 6.76919 0H21.8627C23.1937 -0.00137 24.2745 1.07509 24.2785 2.40607V14.7806C24.2789 14.8636 24.3457 14.9311 24.4288 14.9323L26.9622 14.9674C27.4507 14.9722 27.8855 15.278 28.0551 15.7361C28.2247 16.1941 28.0939 16.7094 27.7264 17.0311L15.1839 28.0003C14.9678 28.1902 14.69 28.295 14.4024 28.295V28.295Z" fill="#2966C1"/>
<path fill-rule="evenodd" clip-rule="evenodd" d="M17.6279 14.0218H14.9759V13.0147H17.6279C17.944 13.0234 18.2398 12.8596 18.4005 12.5871C18.561 12.3145 18.561 11.9762 18.4005 11.7036C18.2398 11.431 17.944 11.2673 17.6279 11.276H15.9907L18.1705 9.12336C18.3356 8.96144 18.4286 8.73981 18.4286 8.50848C18.4286 8.27711 18.3356 8.05551 18.1705 7.89356C17.8249 7.55403 17.2713 7.55403 16.9257 7.89356L14.0489 10.7342L11.1719 7.89273C10.8264 7.55329 10.2728 7.55329 9.92718 7.89273C9.76207 8.05465 9.66904 8.27628 9.66904 8.50762C9.66904 8.73898 9.76207 8.96058 9.92718 9.12253L12.1071 11.2752H10.5633C10.2472 11.2665 9.95132 11.4302 9.7907 11.7028C9.6301 11.9753 9.6301 12.3137 9.7907 12.5862C9.95132 12.8588 10.2472 13.0225 10.5633 13.0138H13.2153V14.0209H10.5633C10.2472 14.0122 9.95132 14.176 9.79073 14.4485C9.6301 14.7211 9.6301 15.0594 9.79073 15.332C9.95132 15.6046 10.2472 15.7683 10.5633 15.7596H13.2154V18.5141C13.2153 19.0007 13.6094 19.3951 14.0957 19.3951C14.5819 19.3951 14.9761 19.0007 14.9761 18.5141L14.976 15.7609H17.6279C18.1079 15.761 18.497 15.3717 18.497 14.8914C18.497 14.411 18.1079 14.0217 17.6279 14.0217L17.6279 14.0218Z" fill="#EA4E0D"/>
</g>
</svg>
