<svg width="29" height="29" viewBox="0 0 29 29" fill="none" xmlns="http://www.w3.org/2000/svg">
<mask id="mask0_0_4907" style="mask-type:alpha" maskUnits="userSpaceOnUse" x="0" y="-1" width="29" height="30">
<path fill-rule="evenodd" clip-rule="evenodd" d="M0.00330942 28.297V-0.00304054H28.2934V28.297H0.00330942Z" fill="#E9E9E9"/>
</mask>
<g mask="url(#mask0_0_4907)">
<path fill-rule="evenodd" clip-rule="evenodd" d="M15.988 26.6277H16.0072C19.0697 26.6277 24.2404 25.145 24.8116 19.4051C22.543 19.3794 16.9561 20.0126 15.9881 26.6279L15.988 26.6277ZM16.071 28.295C15.8742 28.295 15.6776 28.2902 15.4812 28.2804C15.1291 28.2622 14.8003 28.0994 14.5722 27.8306C14.3442 27.5618 14.2373 27.2107 14.2768 26.8604C15.0728 19.7924 20.4873 17.5191 25.2912 17.7539C25.6331 17.7703 25.9541 17.9229 26.1827 18.1776C26.4113 18.4323 26.5283 18.768 26.5077 19.1096C26.315 22.2899 24.9011 24.8349 22.4186 26.4695C20.6366 27.6425 18.352 28.2951 16.071 28.2951L16.071 28.295ZM3.48245 19.4051C4.05356 25.1455 9.22429 26.6277 12.2869 26.6277H12.3061C11.338 20.0131 5.75227 19.3791 3.48247 19.4053L3.48245 19.4051ZM12.2231 28.295C9.94193 28.295 7.65749 27.6423 5.87552 26.4688C3.39301 24.8342 1.97907 22.2896 1.78653 19.1091C1.76582 18.7675 1.8828 18.4318 2.11133 18.177C2.33985 17.9223 2.66089 17.7696 3.00274 17.7532C7.80579 17.5205 13.2213 19.7921 14.0173 26.8598C14.0567 27.21 13.9498 27.5611 13.7218 27.8299C13.4938 28.0987 13.1649 28.2615 12.8129 28.2797C12.6165 28.2901 12.4198 28.2952 12.2231 28.295L12.2231 28.295ZM10.387 15.3182C10.7096 15.3185 11.0179 15.4516 11.2392 15.6863C11.4605 15.9211 11.5754 16.2366 11.5567 16.5587C11.5493 16.6939 11.5537 16.8295 11.5699 16.9641C11.6769 17.861 12.2833 18.6195 13.1346 18.9214C13.9859 19.2233 14.9348 19.0162 15.5829 18.3871C16.0449 17.9419 16.3049 17.3274 16.3028 16.6858C16.3028 16.6434 16.3016 16.6011 16.2993 16.559C16.2738 16.116 16.5004 15.6966 16.8848 15.4751C17.2692 15.2535 17.7457 15.2677 18.1162 15.5117C18.1515 15.5348 18.1873 15.5567 18.2238 15.5779C18.7798 15.8986 19.4419 15.9808 20.0595 15.8057C20.677 15.6306 21.1974 15.2132 21.5024 14.6484C22.0532 13.6124 21.7688 12.3297 20.8317 11.6237C20.7232 11.5425 20.6077 11.4708 20.4868 11.4095C20.0902 11.2112 19.8397 10.8058 19.8397 10.3624C19.8397 9.91893 20.0902 9.51355 20.4868 9.31519C20.6079 9.25391 20.7234 9.18219 20.832 9.10087C21.7691 8.39479 22.0535 7.11218 21.5028 6.07619C21.198 5.51135 20.6775 5.09385 20.06 4.91871C19.4425 4.74357 18.7804 4.82568 18.2243 5.14634C18.1876 5.16802 18.1517 5.19003 18.1168 5.21236C17.7464 5.45678 17.2698 5.47123 16.8852 5.24972C16.5007 5.02821 16.274 4.60865 16.2996 4.1656C16.3071 4.03028 16.3026 3.89457 16.2863 3.76003C16.1791 2.86326 15.5727 2.10484 14.7214 1.80304C13.8702 1.50124 12.9215 1.70829 12.2734 2.3373C11.8116 2.78216 11.5514 3.39626 11.5531 4.03746C11.5531 4.08006 11.5543 4.1224 11.5567 4.16446C11.5823 4.60741 11.3559 5.02692 10.9715 5.24854C10.5871 5.47017 10.1106 5.45597 9.74014 5.21187C9.62747 5.13848 9.50869 5.07494 9.38514 5.02193C8.25474 4.5448 6.94654 4.9986 6.35444 6.07325C5.73715 7.20217 6.13884 8.61752 7.25713 9.25388C7.29366 9.27491 7.33068 9.29486 7.3682 9.31372C7.7654 9.51173 8.01652 9.9173 8.01668 10.3611C8.01685 10.805 7.76605 11.2107 7.36901 11.409C7.24815 11.4702 7.13283 11.5418 7.02442 11.623C6.08736 12.3291 5.8029 13.6117 6.35363 14.6477C6.65852 15.2125 7.17892 15.63 7.79641 15.8051C8.41392 15.9802 9.07598 15.8981 9.63198 15.5774C9.66874 15.5561 9.70451 15.5341 9.73946 15.5114C9.93198 15.3855 10.157 15.3184 10.387 15.3182V15.3182ZM13.9295 20.7234C13.8898 20.7234 13.85 20.7228 13.8101 20.7217C11.8581 20.6549 10.2292 19.21 9.93022 17.2799C8.02537 18.0307 5.85983 17.2405 4.88617 15.4394C3.96869 13.7162 4.40725 11.5841 5.93034 10.3629C4.38636 9.15235 3.94512 7.00233 4.88748 5.28147C5.87141 3.49393 8.02515 2.70885 9.92861 3.4439C10.2318 1.41971 12 -0.05851 14.0459 0.00178C15.9979 0.06862 17.6268 1.51361 17.9259 3.44374C19.8309 2.69298 21.9964 3.48338 22.9699 5.28473C23.8876 7.00849 23.4484 9.14137 21.9242 10.3623C23.4485 11.5832 23.8877 13.7164 22.9697 15.4402C21.9963 17.2407 19.8317 18.031 17.9273 17.281C17.6301 19.2596 15.9303 20.7233 13.9295 20.7234L13.9295 20.7234Z" fill="#2966C1"/>
<path fill-rule="evenodd" clip-rule="evenodd" d="M14.0512 8.14565C13.6376 8.14611 13.2315 8.25683 12.8749 8.46636C12.3299 8.78362 11.9341 9.30523 11.7751 9.91543C11.6113 10.5265 11.696 11.1776 12.0109 11.7263C12.3205 12.2739 12.8368 12.6745 13.4442 12.8381C14.049 13.0036 14.695 12.9177 15.2354 12.5998C15.7804 12.2825 16.1763 11.7609 16.3352 11.1507C16.4988 10.5395 16.4138 9.88839 16.0987 9.33972C15.6803 8.60284 14.8987 8.14703 14.0512 8.14563V8.14565ZM14.0618 14.5941C12.6192 14.5933 11.2881 13.8182 10.5755 12.5639C10.0396 11.63 9.89528 10.5218 10.1741 9.48171C10.5816 7.90166 11.9068 6.72674 13.5243 6.51146C15.1419 6.29619 16.7283 7.08363 17.5348 8.50209C18.0707 9.43602 18.215 10.5441 17.9363 11.5842C17.6657 12.6228 16.9919 13.5106 16.0643 14.0506C15.457 14.4065 14.7657 14.5942 14.0618 14.5941Z" fill="#EA4E0D"/>
</g>
</svg>
