<svg width="41" height="37" viewBox="0 0 41 37" fill="none" xmlns="http://www.w3.org/2000/svg">
<mask id="mask0_0_5209" style="mask-type:alpha" maskUnits="userSpaceOnUse" x="0" y="0" width="41" height="36">
<path fill-rule="evenodd" clip-rule="evenodd" d="M0 36V0H41V36H0Z" fill="white"/>
</mask>
<g mask="url(#mask0_0_5209)">
<path fill-rule="evenodd" clip-rule="evenodd" d="M11.5864 20.4431H10.2249C6.39979 20.449 3.29177 17.3575 3.27734 13.5324V7.13739C3.28461 5.30733 4.77177 3.82838 6.60187 3.8313H10.0525C10.6844 3.8313 11.1966 4.34352 11.1966 4.97537C11.1966 5.60721 10.6844 6.11943 10.0525 6.11943H6.60189C6.03838 6.11851 5.58047 6.5739 5.57827 7.13739V13.5324C5.5883 16.0906 7.66727 18.158 10.2255 18.1537H11.587C12.2192 18.1539 12.7316 18.6665 12.7314 19.2987C12.7312 19.9309 12.2186 20.4433 11.5864 20.4431L11.5864 20.4431ZM31.0993 20.4431H29.7378C29.1059 20.4432 28.5936 19.9309 28.5936 19.2989C28.5936 18.6669 29.1059 18.1546 29.7378 18.1546L31.0993 18.1547C33.6576 18.159 35.7365 16.0917 35.7466 13.5334V7.1374C35.7444 6.57391 35.2865 6.11849 34.723 6.11944H31.2723C30.6405 6.11944 30.1283 5.60722 30.1283 4.97538C30.1283 4.34353 30.6405 3.83131 31.2723 3.83131H34.723C36.5531 3.82838 38.0402 5.30731 38.0475 7.1374V13.5324C38.0331 17.3577 34.9247 20.4494 31.0993 20.4431V20.4431Z" fill="white"/>
<path fill-rule="evenodd" clip-rule="evenodd" d="M22.8439 27.8409H18.2245V24.7092C19.7428 25.0554 21.3174 25.075 22.8439 24.7668V27.8409H22.8439ZM28.5967 33.3427V33.7245H12.9635V33.3427C12.9685 31.5736 14.4044 30.1424 16.1735 30.1432H25.3867C27.1558 30.1424 28.5917 31.5737 28.5967 33.3427H28.5967ZM11.9797 14.0272V2.30278H29.3453V14.0272C29.3454 18.8227 25.458 22.7101 20.6625 22.7101C15.8671 22.7101 11.9797 18.8227 11.9797 14.0272H11.9797ZM31.655 14.0272V1.87654C31.6524 0.83896 30.8102 -0.0006 29.7726 0H11.5514C10.514 -0.00058 9.67185 0.83871 9.66895 1.87612V14.0268C9.67588 18.2478 12.1044 22.0903 15.914 23.9078L15.914 27.8538C12.9772 27.9878 10.6624 30.4029 10.653 33.3427V34.1504C10.6557 35.1881 11.4981 36.0277 12.5358 36.0269H29.024C30.0614 36.0274 30.9034 35.188 30.9062 34.1506V33.3429C30.8977 30.3009 28.4286 27.8397 25.3865 27.8411H25.1536V24.0249C29.1014 22.2645 31.6471 18.3497 31.655 14.0272L31.655 14.0272Z" fill="white"/>
</g>
</svg>
