<svg width="29" height="29" viewBox="0 0 29 29" fill="none" xmlns="http://www.w3.org/2000/svg">
<mask id="mask0_0_5036" style="mask-type:alpha" maskUnits="userSpaceOnUse" x="-1" y="0" width="30" height="29">
<path fill-rule="evenodd" clip-rule="evenodd" d="M-0.00229041 28.2935V0.00345939H28.2978V28.2935H-0.00229041Z" fill="#E9E9E9"/>
</mask>
<g mask="url(#mask0_0_5036)">
<path fill-rule="evenodd" clip-rule="evenodd" d="M18.6362 5.00814H22.2607V7.67021L21.4235 6.92584C21.0594 6.60262 20.5023 6.63576 20.1791 6.99984C19.8558 7.36393 19.889 7.9211 20.2531 8.24432L22.1538 9.93532C22.6746 10.3984 23.4514 10.4249 24.0024 9.99827L26.2831 8.23193C26.6684 7.93432 26.7395 7.38071 26.4419 6.9954C26.1443 6.61009 25.5907 6.53899 25.2053 6.83659L24.022 7.75291V4.69489C24.0214 3.89485 23.3734 3.2462 22.5734 3.24481H18.6362C18.1491 3.24481 17.7542 3.6397 17.7542 4.12681C17.7542 4.61392 18.1491 5.00881 18.6362 5.00881L18.6362 5.00814ZM9.1917 23.0383H5.56725V20.3762L6.40438 21.1207C6.76847 21.444 7.32564 21.4108 7.64886 21.0467C7.97208 20.6826 7.93895 20.1255 7.57486 19.8023L5.67407 18.1112C5.15316 17.6485 4.37662 17.6219 3.82535 18.0481L1.544 19.8151C1.15869 20.1129 1.0877 20.6666 1.38545 21.0519C1.68319 21.4372 2.23692 21.5082 2.62223 21.2105L3.80527 20.2941V23.3525C3.80573 24.1526 4.45374 24.8014 5.25384 24.8028L9.19171 24.8028C9.67896 24.8028 10.074 24.4078 10.074 23.9205C10.074 23.4332 9.67896 23.0382 9.19171 23.0382L9.1917 23.0383ZM20.205 26.4469C16.7053 26.4511 13.8652 23.6166 13.8624 20.1169C13.8596 16.6171 16.6952 13.7781 20.1949 13.7767C23.6947 13.7753 26.5325 16.6121 26.5325 20.1118C26.5306 23.6068 23.7 26.4408 20.205 26.4469ZM20.205 12.0128C15.7308 12.0078 12.1002 15.6316 12.0969 20.1058C12.0935 24.58 15.7188 28.2093 20.1929 28.2109C24.6671 28.2126 28.295 24.586 28.295 20.1118C28.2926 15.6434 24.6735 12.0202 20.205 12.0128V12.0128ZM8.09039 1.84866C11.5901 1.84458 14.4302 4.67912 14.4329 8.17888C14.4356 11.6786 11.5999 14.5175 8.10012 14.5188C4.60036 14.5201 1.76259 11.6833 1.76269 8.18355C1.76463 4.68849 4.59534 1.85457 8.09039 1.84866ZM8.09039 16.2826C12.5645 16.2874 16.195 12.6635 16.1982 8.18934C16.2014 3.71522 12.5761 0.0860727 8.10198 0.0844727C3.62785 0.0828727 0 3.70942 0 8.18355C0.0024 12.6522 3.62178 16.2754 8.09039 16.2826V16.2826Z" fill="#2966C1"/>
<path fill-rule="evenodd" clip-rule="evenodd" d="M20.2853 19.1459C19.8043 19.098 19.448 18.6773 19.4799 18.195C19.5119 17.7128 19.9206 17.3427 20.4036 17.3587C20.8867 17.3746 21.2701 17.7708 21.2701 18.2542C21.2701 18.7391 21.6632 19.1322 22.1481 19.1322C22.633 19.1322 23.0261 18.7391 23.0261 18.2542C23.0121 17.0759 22.2266 16.0464 21.0938 15.7219V15.2418C21.0938 14.7569 20.7007 14.3639 20.2159 14.3639C19.731 14.3639 19.3379 14.7569 19.3379 15.2418V15.7706C18.2753 16.1363 17.5575 17.1307 17.5449 18.2543C17.5449 19.7161 18.7741 20.9052 20.2853 20.9052C20.7664 20.9529 21.1229 21.3735 21.0911 21.8559C21.0592 22.3382 20.6506 22.7084 20.1674 22.6925C19.6843 22.6766 19.3009 22.2803 19.3009 21.7969C19.3009 21.312 18.9078 20.9189 18.4229 20.9189C17.938 20.9189 17.5449 21.312 17.5449 21.7969C17.5574 22.9205 18.2751 23.9148 19.3375 24.2807V24.793C19.3375 25.2779 19.7306 25.671 20.2155 25.671C20.7004 25.671 21.0935 25.2779 21.0935 24.793V24.3296C22.2263 24.0048 23.0118 22.9753 23.0258 21.7969C23.0261 20.3353 21.7965 19.146 20.2853 19.146L20.2853 19.1459ZM10.9898 8.48905C11.4756 8.48905 11.8693 8.09528 11.8693 7.60956C11.8693 7.12383 11.4756 6.73006 10.9898 6.73006H10.1324L11.4773 5.38279C11.8208 5.03999 11.8213 4.48365 11.4785 4.14022C11.1356 3.79678 10.5793 3.79629 10.2359 4.13912L8.15344 6.22461L6.07252 4.1393C5.72909 3.79644 5.17274 3.79688 4.82987 4.14031C4.48701 4.48372 4.48746 5.04008 4.83088 5.38294L6.17582 6.73105H5.40197C4.91625 6.73105 4.52248 7.12482 4.52248 7.61055C4.52248 8.09627 4.91625 8.49004 5.40197 8.49004H7.31783V9.09662H5.40195C4.91622 9.09662 4.52246 9.49039 4.52246 9.97611C4.52246 10.4618 4.91621 10.8556 5.40195 10.8556H7.31781V12.1085C7.31781 12.5934 7.71089 12.9864 8.1958 12.9864C8.68069 12.9864 9.07378 12.5934 9.07378 12.1085V10.8549H10.9898C11.4755 10.8549 11.8693 10.4612 11.8693 9.97545C11.8693 9.48972 11.4755 9.09595 10.9898 9.09595H9.07428V8.48905H10.9898H10.9898Z" fill="#EA4E0D"/>
</g>
</svg>
