<svg width="29" height="29" viewBox="0 0 29 29" fill="none" xmlns="http://www.w3.org/2000/svg">
<mask id="mask0_0_4930" style="mask-type:alpha" maskUnits="userSpaceOnUse" x="0" y="-1" width="29" height="30">
<path fill-rule="evenodd" clip-rule="evenodd" d="M-0.000430911 28.297V-0.00304054H28.2997V28.297H-0.000430911Z" fill="#E9E9E9"/>
</mask>
<g mask="url(#mask0_0_4930)">
<path fill-rule="evenodd" clip-rule="evenodd" d="M14.1102 26.3346C13.8086 26.3351 13.5192 26.2153 13.3062 26.0017L3.98806 16.5767L2.19342 14.7806C-0.729856 11.86 -0.732086 7.12271 2.18844 4.19942C5.10896 1.27616 9.84629 1.27393 12.7696 4.19445L14.4064 5.83273C14.7483 6.1744 14.7485 6.72851 14.4068 7.07041C14.0651 7.41229 13.511 7.41247 13.1691 7.07082L11.5337 5.43283C9.2942 3.19512 5.66473 3.19654 3.42704 5.436C1.18933 7.67546 1.19075 11.3049 3.43021 13.5426L5.22795 15.3417L14.1127 24.3283L22.9751 15.4617C23.3171 15.1202 23.8711 15.1205 24.2127 15.4625C24.5542 15.8044 24.5538 16.3585 24.2119 16.7L14.9142 26.0021C14.7012 26.2155 14.4118 26.3352 14.1102 26.3346H14.1102Z" fill="#1677FF"/>
<path fill-rule="evenodd" clip-rule="evenodd" d="M23.8003 16.7969C23.4456 16.7972 23.1257 16.5839 22.9898 16.2564C22.8539 15.9289 22.9289 15.5518 23.1797 15.301L24.8431 13.6407C27.114 11.3673 27.1113 7.68406 24.8372 5.41393C22.5631 3.14381 18.8787 3.14648 16.6078 5.41991L9.4799 12.5349C9.46836 12.5442 9.46418 12.5599 9.46962 12.5737C9.47081 12.5864 9.48055 12.5966 9.49315 12.5985C10.3805 12.8522 11.7573 12.949 13.2767 11.9668C14.3847 11.2479 15.5013 10.5423 16.6264 9.85034C17.3614 9.39986 18.3129 9.53514 18.8931 10.1726C19.203 10.5331 19.1691 11.0748 18.8167 11.3939C18.4643 11.7131 17.9217 11.6934 17.5933 11.3497C17.5816 11.3359 17.5617 11.3327 17.5463 11.3421C16.4336 12.027 15.3292 12.7252 14.2332 13.4365C12.1589 14.7771 10.2485 14.6367 9.01106 14.2827C8.40114 14.108 7.92931 13.6236 7.77081 13.0094C7.61229 12.3953 7.7908 11.7431 8.24 11.2952L15.3672 4.18092C18.3225 1.22222 23.1175 1.21877 26.0772 4.17323C29.0368 7.12767 29.0403 11.9212 26.0849 14.8799L24.4209 16.5406C24.2563 16.705 24.033 16.7973 23.8003 16.7969L23.8003 16.7969Z" fill="#EA4E0D"/>
</g>
</svg>
