<svg width="14" height="14" viewBox="0 0 14 14" fill="none" xmlns="http://www.w3.org/2000/svg">
<path fill-rule="evenodd" clip-rule="evenodd" d="M8.65881 7.0001L13.6591 1.99853C14.1136 1.54384 14.1136 0.795811 13.6591 0.34112C13.2045 -0.11357 12.4567 -0.11357 12.0021 0.34112L7.00183 5.34269L2.00157 0.34112C1.547 -0.11357 0.79916 -0.11357 0.34459 0.34112C0.11731 0.56846 0 0.869151 0 1.16983C0 1.47051 0.11731 1.77119 0.34459 1.99854L5.34485 7.00011L0.34459 12.0017C0.11731 12.229 0 12.5297 0 12.8304C0 13.1311 0.11731 13.4318 0.34459 13.6591C0.79916 14.1138 1.547 14.1138 2.00157 13.6591L7.00183 8.65753L12.0021 13.6591C12.4567 14.1138 13.2045 14.1138 13.6591 13.6591C14.1136 13.2044 14.1136 12.4564 13.6591 12.0017L8.65881 7.0001Z" fill="black"/>
</svg>
