<svg width="16" height="16" viewBox="0 0 16 16" fill="none" xmlns="http://www.w3.org/2000/svg">
<path fill-rule="evenodd" clip-rule="evenodd" d="M9.19709 14.5546L8.40432 15.3476C8.06864 15.6834 7.52585 15.6834 7.19374 15.3476L0.25166 8.407C-0.08402 8.07122 -0.08402 7.52826 0.25166 7.19605L7.19374 0.251886C7.52942 -0.0838952 8.07221 -0.0838952 8.40432 0.251886L9.19709 1.04489C9.53634 1.38425 9.5292 1.93792 9.1828 2.27012L4.87971 6.3709H15.1428C15.6178 6.3709 15.9999 6.75311 15.9999 7.2282V8.37128C15.9999 8.84637 15.6178 9.22859 15.1428 9.22859H4.87971L9.1828 13.3294C9.53276 13.6616 9.5399 14.2152 9.19709 14.5546Z" fill="#1677FF"/>
</svg>
