<svg width="21" height="14" viewBox="0 0 21 14" fill="none" xmlns="http://www.w3.org/2000/svg">
<path fill-rule="evenodd" clip-rule="evenodd" d="M10.5 3.5C10.1876 3.50436 9.87719 3.55084 9.57721 3.63818C10.0882 4.33257 10.0153 5.29609 9.40567 5.90571C8.79605 6.51533 7.83254 6.58822 7.13814 6.07725C6.74579 7.52274 7.31896 9.05745 8.56279 9.89187C9.80662 10.7263 11.444 10.6746 12.6327 9.7633C13.8214 8.85204 14.2966 7.2842 13.8138 5.86636C13.331 4.44852 11.9978 3.49648 10.5 3.5H10.5ZM10.5 12.25C7.60048 12.25 5.24997 9.8995 5.24997 7C5.24997 4.1005 7.60048 1.75 10.5 1.75C13.3995 1.75 15.75 4.10051 15.75 7C15.7514 9.90007 13.4001 12.2514 10.5 12.25ZM20.8731 6.46771C18.896 2.61005 14.9818 0 10.5 0C6.01815 0 2.10289 2.61188 0.12685 6.46807C-0.04229 6.80265 -0.04229 7.19771 0.12685 7.53229C2.10399 11.3899 6.01815 14 10.5 14C14.9818 14 18.897 11.3881 20.8731 7.53193C21.0422 7.19735 21.0422 6.80229 20.8731 6.46771Z" fill="#CDD4D9"/>
</svg>
