<svg width="29" height="29" viewBox="0 0 29 29" fill="none" xmlns="http://www.w3.org/2000/svg">
<mask id="mask0_0_5056" style="mask-type:alpha" maskUnits="userSpaceOnUse" x="0" y="0" width="29" height="29">
<path fill-rule="evenodd" clip-rule="evenodd" d="M0.00106981 28.2935V0.00345939H28.2912V28.2935H0.00106981Z" fill="#E9E9E9"/>
</mask>
<g mask="url(#mask0_0_5056)">
<path fill-rule="evenodd" clip-rule="evenodd" d="M14.0998 0.418555C13.5974 0.418285 13.1898 0.825405 13.1897 1.32784V4.53271C13.1897 5.03531 13.5971 5.44275 14.0997 5.44275C14.6023 5.44275 15.0097 5.03531 15.0097 4.53271V1.32785C15.0097 0.825585 14.6024 0.418305 14.1 0.418395L14.0998 0.418555ZM14.0998 17.015C13.5974 17.0148 13.1899 17.4219 13.1897 17.9243V26.9668C13.1897 27.4694 13.5971 27.8769 14.0997 27.8769C14.6023 27.8769 15.0097 27.4694 15.0097 26.9668V17.9243C15.0096 17.4219 14.6022 17.0148 14.0998 17.015H14.0998ZM26.4748 21.2424C26.4741 21.6891 26.1119 22.0511 25.6651 22.0514H21.898C21.4512 22.0511 21.089 21.6891 21.0884 21.2424V12.9477C21.0888 12.5011 21.4506 12.1391 21.8972 12.1382H25.6642C26.111 12.1385 26.4733 12.5004 26.4739 12.9472V21.242L26.4748 21.2424ZM25.6651 10.32H24.6912V1.32785C24.6913 0.825205 24.2838 0.417725 23.7812 0.417725C23.2785 0.417725 22.871 0.825205 22.871 1.32785L22.8711 10.32H21.8972C20.4461 10.3211 19.2696 11.4966 19.2674 12.9477V21.2425C19.2697 22.6936 20.4461 23.8691 21.8972 23.8703H22.8704V26.9677C22.8703 27.4703 23.2778 27.8778 23.7805 27.8778C24.2831 27.8778 24.6906 27.4703 24.6906 26.9677L24.6905 23.8703H25.6644C27.1159 23.8695 28.2928 22.6938 28.295 21.2423V12.9477C28.2928 11.4965 27.1163 10.321 25.6651 10.32V10.32ZM7.20756 21.2424C7.20691 21.6891 6.84468 22.0511 6.39788 22.0514H2.63079C2.184 22.0511 1.82176 21.6891 1.82112 21.2424V12.9477C1.82159 12.5011 2.18333 12.1391 2.62994 12.1382H6.39703C6.84378 12.1386 7.20597 12.5005 7.2067 12.9472V21.242L7.20756 21.2424ZM6.39788 10.32H5.42462V1.32785C5.42462 0.825255 5.01718 0.417815 4.51457 0.417815C4.01197 0.417815 3.60453 0.825255 3.60453 1.32785V10.32H2.62994C1.17875 10.321 0.00223 11.4965 0 12.9477V21.2425C0.00231 22.6936 1.17867 23.8691 2.62976 23.8703H3.60368V26.9676C3.60368 27.4702 4.01112 27.8777 4.51372 27.8777C5.01632 27.8777 5.42376 27.4702 5.42376 26.9676V23.8703H6.39768C7.84891 23.8692 9.0254 22.6936 9.02761 21.2423V12.9477C9.02539 11.4966 7.84899 10.3211 6.39786 10.32H6.39788Z" fill="#2966C1"/>
<path fill-rule="evenodd" clip-rule="evenodd" d="M12.3507 6.06999C11.9027 6.06851 11.5381 6.42987 11.5355 6.87782V15.1587C11.5382 15.6067 11.903 15.9681 12.351 15.9664H16.1457C16.5937 15.968 16.9584 15.6067 16.9611 15.1587V6.87782C16.9584 6.42985 16.5937 6.06857 16.1457 6.07016H12.3507V6.06999ZM16.1454 17.7818H12.3506C10.8956 17.7871 9.71082 16.6136 9.70215 15.1585V6.87781C9.71073 5.4227 10.8955 4.24912 12.3506 4.25441H16.1454C17.6004 4.24921 18.7852 5.42276 18.7937 6.87781V15.1587C18.785 16.6136 17.6003 17.787 16.1454 17.7818V17.7818Z" fill="#EA4E0D"/>
</g>
</svg>
