<svg width="40" height="37" viewBox="0 0 40 37" fill="none" xmlns="http://www.w3.org/2000/svg">
<mask id="mask0_0_5229" style="mask-type:alpha" maskUnits="userSpaceOnUse" x="0" y="0" width="40" height="37">
<path fill-rule="evenodd" clip-rule="evenodd" d="M0 37V0H40V37H0Z" fill="white"/>
</mask>
<g mask="url(#mask0_0_5229)">
<path fill-rule="evenodd" clip-rule="evenodd" d="M37.6064 31.6025H2.39231C1.74304 31.6025 1.2167 32.1289 1.2167 32.7781C1.2167 33.4274 1.74304 33.9537 2.39231 33.9537H37.6064C38.2557 33.9537 38.7821 33.4273 38.7821 32.778C38.7821 32.1287 38.2557 31.6023 37.6064 31.6023V31.6025ZM26.6892 26.4177C20.274 26.4986 12.3075 26.5995 2.37615 26.6065C2.98819 17.3469 10.8229 9.87018 19.9992 9.87018C29.2912 9.84192 37.0059 17.0388 37.6223 26.3104C34.4278 26.3199 30.831 26.3654 26.6893 26.4174L26.6892 26.4177ZM21.178 7.55653V5.39759H24.7459C25.3952 5.39759 25.9215 4.87125 25.9215 4.22199C25.9215 3.57271 25.3952 3.04639 24.7459 3.04639H15.2518C14.6026 3.04639 14.0762 3.57271 14.0762 4.22199C14.0762 4.87125 14.6026 5.39759 15.2518 5.39759H18.8198V7.55924C14.0523 7.85111 9.55167 9.85863 6.14932 13.2109C2.44233 16.8074 0.24424 21.6807 0.00203 26.8399C-0.02274 27.3933 0.17991 27.9327 0.5629 28.3329C0.94589 28.7332 1.4759 28.9593 2.02984 28.9589H2.03098C12.1378 28.9532 20.2227 28.8514 26.719 28.7696C31.0051 28.7157 34.7066 28.6691 37.9755 28.6619C38.5288 28.6613 39.0579 28.4345 39.4398 28.0341C39.8217 27.6337 40.0233 27.0945 39.9978 26.5418C39.5187 16.3247 31.3905 8.12505 21.178 7.55654L21.178 7.55653Z" fill="white"/>
<path fill-rule="evenodd" clip-rule="evenodd" d="M19.1198 24.7887C18.6505 24.79 18.2247 24.514 18.0343 24.0851C17.8439 23.6561 17.9248 23.1552 18.2405 22.808L20.7912 20.0169L17.2582 19.304C16.7359 19.2002 16.3057 18.8313 16.1237 18.3308C15.9417 17.8304 16.0343 17.2712 16.368 16.8562L19.6235 12.8108C20.0355 12.3004 20.7822 12.2183 21.2953 12.6269C21.5414 12.8226 21.6992 13.1082 21.7339 13.4207C21.7685 13.7331 21.6771 14.0464 21.4799 14.2912L19.0928 17.258L22.7271 17.9914C23.266 18.0984 23.7055 18.4874 23.8771 19.0092C24.0487 19.5311 23.9259 20.105 23.5558 20.5109L19.9998 24.4014C19.7741 24.6486 19.4546 24.7892 19.1198 24.7887L19.1198 24.7887Z" fill="white"/>
</g>
</svg>
