<svg width="29" height="29" viewBox="0 0 29 29" fill="none" xmlns="http://www.w3.org/2000/svg">
<mask id="mask0_0_4887" style="mask-type:alpha" maskUnits="userSpaceOnUse" x="0" y="-1" width="29" height="30">
<path fill-rule="evenodd" clip-rule="evenodd" d="M-2.99947e-05 28.297V-0.00304054H28.2901V28.297H-2.99947e-05Z" fill="#E9E9E9"/>
</mask>
<g mask="url(#mask0_0_4887)">
<path fill-rule="evenodd" clip-rule="evenodd" d="M17.8945 17.7936C17.101 17.7948 16.4582 18.438 16.4576 19.2315V24.9642C16.4582 25.7577 17.101 26.4009 17.8945 26.4021H23.6233C24.4167 26.4009 25.0595 25.7577 25.0602 24.9642V19.232C25.0595 18.4385 24.4167 17.7953 23.6233 17.7941H17.8945V17.7936ZM23.6233 28.295H17.8945C16.0565 28.2926 14.5674 26.8026 14.566 24.9645V19.232C14.5675 17.394 16.0565 15.9041 17.8945 15.9015H23.6233C25.4613 15.9041 26.9503 17.394 26.9518 19.232V24.9647C26.9503 26.8027 25.4612 28.2926 23.6233 28.2951V28.295ZM3.41348 17.7936C2.61993 17.7947 1.97703 18.4379 1.97639 19.2315V24.9642C1.97677 25.7579 2.61975 26.4015 3.41348 26.4026H9.14185C9.93534 26.4014 10.5781 25.7582 10.5788 24.9647V19.232C10.5781 18.4385 9.93534 17.7952 9.14185 17.794H3.41348V17.7936ZM9.14185 28.295H3.41348C1.57547 28.2925 0.0864209 26.8025 0.0849609 24.9645V19.232C0.0864309 17.394 1.57548 15.9041 3.41348 15.9015H9.14185C10.9799 15.9041 12.4689 17.394 12.4704 19.232L12.4704 24.9647C12.4689 26.8027 10.9798 28.2926 9.14185 28.2951V28.295ZM3.41348 3.24976C2.61993 3.25086 1.97703 3.89413 1.97639 4.68768V10.4209C1.9773 11.2143 2.62009 11.8573 3.41348 11.8585H9.14185C9.93521 11.8573 10.578 11.2143 10.5788 10.4209V4.68769C10.5781 3.8942 9.93534 3.25096 9.14185 3.24977H3.41348V3.24976ZM9.14185 13.7511H3.41348C1.5756 13.7485 0.0866109 12.2588 0.0849609 10.4209V4.68768C0.0864309 2.84967 1.57548 1.35975 3.41348 1.35718H9.14185C10.9799 1.35966 12.469 2.84963 12.4704 4.68768V10.4209C12.4688 12.2588 10.9798 13.7486 9.14185 13.7511Z" fill="#2966C1"/>
<path fill-rule="evenodd" clip-rule="evenodd" d="M20.8161 1.89902C20.434 1.89841 20.0674 2.0504 19.7979 2.32124L15.7389 6.39099C15.1774 6.95575 15.1774 7.86795 15.7389 8.43271L19.7979 12.5023C20.0676 12.773 20.434 12.9252 20.8161 12.9252C21.1982 12.9252 21.5646 12.773 21.8343 12.5023L25.8931 8.43271C26.4554 7.86829 26.4554 6.95541 25.8931 6.39099L21.8343 2.32123C21.5647 2.05047 21.1982 1.89849 20.8161 1.89901V1.89902ZM20.8161 14.8251C19.9306 14.8274 19.0812 14.4746 18.4578 13.8457L14.399 9.77612C13.0988 8.46798 13.0988 6.35543 14.399 5.04728L18.4583 0.97766C19.0835 0.35171 19.9318 0 20.8165 0C21.7011 0 22.5495 0.35172 23.1747 0.97766L27.2336 5.04742C28.536 6.35471 28.536 8.46897 27.2336 9.77626L23.1742 13.8457C22.5509 14.4745 21.7015 14.8273 20.8161 14.8251L20.8161 14.8251Z" fill="#EA4E0D"/>
</g>
</svg>
