<svg width="29" height="29" viewBox="0 0 29 29" fill="none" xmlns="http://www.w3.org/2000/svg">
<mask id="mask0_0_5149" style="mask-type:alpha" maskUnits="userSpaceOnUse" x="0" y="0" width="29" height="29">
<path fill-rule="evenodd" clip-rule="evenodd" d="M-0.000270048 28.2935V0.00345939H28.2998V28.2935H-0.000270048Z" fill="#E9E9E9"/>
</mask>
<g mask="url(#mask0_0_5149)">
<path fill-rule="evenodd" clip-rule="evenodd" d="M2.24961 14.1475H4.02304C4.7338 14.1475 5.31041 14.7229 5.31191 15.4336V25.5639C5.31048 25.8206 5.51681 26.0302 5.77348 26.0327H22.5222C22.7788 26.0301 22.985 25.8205 22.9835 25.5639V15.4368C22.985 14.7241 23.5634 14.1471 24.2761 14.1475H26.0468L15.0845 2.66236C14.8401 2.40641 14.5016 2.26161 14.1477 2.26161C13.7938 2.26161 13.4553 2.40641 13.2109 2.66236L2.24961 14.1475ZM22.5222 27.7324H5.77347C4.57775 27.73 3.60964 26.7601 3.60937 25.5644V15.847H1.29206C0.77564 15.8481 0.30838 15.541 0.10462 15.0664C-0.09913 14.5919 -5.99792e-05 14.0416 0.35639 13.6679L11.9774 1.4907C12.5435 0.898034 13.3275 0.562744 14.1471 0.562744C14.9667 0.562744 15.7507 0.898024 16.3168 1.4907L27.9386 13.6681C28.2947 14.0413 28.394 14.5908 28.191 15.0651C27.9881 15.5393 27.522 15.8469 27.0061 15.847H24.6862V25.5644C24.6862 26.7597 23.7183 27.7297 22.5226 27.7324L22.5222 27.7324Z" fill="#2966C1"/>
<path fill-rule="evenodd" clip-rule="evenodd" d="M17.9293 20.0746H15.0004V18.5354H17.9293C18.4019 18.5354 18.785 18.1521 18.785 17.6794C18.785 17.2067 18.4019 16.8235 17.9293 16.8235L15.9399 16.8235L18.3491 14.3678C18.6782 14.0308 18.6765 13.4922 18.3453 13.1573C18.1873 12.9974 17.9717 12.9078 17.7469 12.9085C17.5222 12.9092 17.3072 13.0003 17.1502 13.1611L14.0997 16.2705L11.0492 13.1611C10.8922 13.0002 10.6772 12.9092 10.4524 12.9085C10.2277 12.9077 10.0121 12.9974 9.85412 13.1573C9.52301 13.4922 9.52136 14.0308 9.85043 14.3678L12.2597 16.8235H10.3824C9.90978 16.8235 9.52667 17.2067 9.52667 17.6794C9.52667 18.1521 9.90977 18.5354 10.3824 18.5354H13.3116V20.0746H10.3824C9.90978 20.0746 9.52667 20.4578 9.52667 20.9305C9.52667 21.4033 9.90977 21.7865 10.3824 21.7865H13.3116V23.861C13.3116 24.3278 13.6899 24.7063 14.1567 24.7063C14.6234 24.7063 15.0017 24.3279 15.0017 23.861V21.7866H17.9294C18.402 21.7866 18.7851 21.4034 18.7851 20.9306C18.7851 20.4579 18.402 20.0746 17.9294 20.0746L17.9293 20.0746Z" fill="#EA4E0D"/>
</g>
</svg>
