<svg width="29" height="29" viewBox="0 0 29 29" fill="none" xmlns="http://www.w3.org/2000/svg">
<mask id="mask0_0_5115" style="mask-type:alpha" maskUnits="userSpaceOnUse" x="0" y="0" width="29" height="29">
<path fill-rule="evenodd" clip-rule="evenodd" d="M0.00214962 28.2935V0.00345939H28.2922V28.2935H0.00214962Z" fill="#E9E9E9"/>
</mask>
<g mask="url(#mask0_0_5115)">
<path fill-rule="evenodd" clip-rule="evenodd" d="M16.8726 14.5479C17.3313 14.5479 17.7032 14.176 17.7032 13.7173C17.7032 13.2585 17.3313 12.8866 16.8726 12.8866H16.0632L17.4125 11.5399C17.7369 11.2149 17.7364 10.6884 17.4114 10.364C17.0864 10.0396 16.5599 10.0401 16.2355 10.3651L14.1918 12.4048L12.148 10.3649C11.8236 10.0399 11.2971 10.0394 10.9721 10.3639C10.6471 10.6883 10.6466 11.2147 10.971 11.5398L12.3202 12.8865H11.4298C10.9711 12.8865 10.5992 13.2584 10.5992 13.7171C10.5992 14.1759 10.9711 14.5478 11.4298 14.5478H13.3191V15.1825H11.4298C10.9711 15.1824 10.5992 15.5543 10.5992 16.0131C10.5992 16.4718 10.9711 16.8437 11.4298 16.8437L13.3191 16.8436V18.0825C13.3191 18.5421 13.6917 18.9147 14.1514 18.9147C14.611 18.9147 14.9836 18.5421 14.9836 18.0825V16.8436H16.8727C17.3315 16.8437 17.7034 16.4718 17.7034 16.0131C17.7034 15.5543 17.3315 15.1824 16.8727 15.1824L14.9834 15.1825V14.5478H16.8725L16.8726 14.5479ZM8.47788 3.30939H2.48531C1.11493 3.30939 0 4.47328 0 5.90441V18.5986C0 19.0582 0.3726 19.4308 0.83222 19.4308C1.29185 19.4308 1.66444 19.0582 1.66444 18.5986V9.74409C1.66444 9.229 2.03276 8.8097 2.48532 8.8097H8.02518C8.48394 8.80978 8.85582 8.43789 8.85582 7.97913C8.85582 7.52037 8.48393 7.14849 8.02518 7.14849L2.48532 7.14857C2.20505 7.14938 1.92713 7.19979 1.66444 7.2975V5.90442C1.66444 5.38933 2.03277 4.97003 2.48532 4.97003H8.47789C8.78013 4.97857 9.06314 4.8222 9.21677 4.5618C9.37041 4.30138 9.37041 3.97804 9.21677 3.71764C9.06314 3.45722 8.78012 3.30086 8.47789 3.30941L8.47788 3.30939ZM25.8098 3.30939H19.4929C19.0342 3.30939 18.6623 3.68128 18.6623 4.14003C18.6623 4.59879 19.0342 4.97067 19.4929 4.97067H25.8098C26.2624 4.97067 26.6305 5.38997 26.6305 5.90507V7.29714C26.3679 7.19944 26.09 7.14902 25.8098 7.14821H20.1409C19.6821 7.14813 19.3102 7.52002 19.3102 7.97878C19.3102 8.43754 19.6821 8.80942 20.1409 8.80942L25.8098 8.80934C26.2624 8.80934 26.6305 9.22864 26.6305 9.74373V18.5986C26.6304 19.0582 27.0031 19.4309 27.4627 19.4309C27.9224 19.4309 28.295 19.0582 28.295 18.5986L28.295 5.90439C28.295 4.47327 27.18 3.30937 25.8098 3.30937L25.8098 3.30939Z" fill="#EA4E0D"/>
<path fill-rule="evenodd" clip-rule="evenodd" d="M26.6305 22.4991C26.6301 22.9523 26.263 23.3197 25.8098 23.3205H20.7134V12.571H25.8098C26.263 12.5718 26.6301 12.9392 26.6305 13.3924L26.6305 22.4991L26.6305 22.4991ZM1.66444 22.4991V13.3924C1.66481 12.9391 2.03203 12.5717 2.48532 12.571H7.51553V23.3205H2.48532C2.03203 23.3198 1.6648 22.9524 1.66444 22.4991V22.4991ZM9.18063 4.97459H19.0496V23.3124H9.18063V4.97459ZM25.8098 10.9056H20.7134V4.6933C20.7127 3.92977 20.0943 3.31078 19.3307 3.30933H8.89934C8.13558 3.31041 7.51683 3.92954 7.51619 4.6933V10.9056H2.48531C1.11293 10.9075 0.0011 12.02 0 13.3924V22.4991C0.00127 23.8713 1.11304 24.9836 2.48531 24.9856H25.8098C27.182 24.9836 28.2937 23.8713 28.295 22.4991V13.3924C28.2939 12.0201 27.1821 10.9076 25.8098 10.9056V10.9056Z" fill="#2966C1"/>
</g>
</svg>
