<svg width="29" height="29" viewBox="0 0 29 29" fill="none" xmlns="http://www.w3.org/2000/svg">
<mask id="mask0_0_4942" style="mask-type:alpha" maskUnits="userSpaceOnUse" x="0" y="0" width="29" height="29">
<path fill-rule="evenodd" clip-rule="evenodd" d="M-2.99947e-05 28.3V-0.000110854H28.2901V28.3H-2.99947e-05Z" fill="#E9E9E9"/>
</mask>
<g mask="url(#mask0_0_4942)">
<path fill-rule="evenodd" clip-rule="evenodd" d="M24.6055 26.4202H3.69006C3.55534 26.4201 3.44613 26.311 3.44594 26.1763V14.1108H24.8496V26.1763C24.8494 26.311 24.7402 26.4201 24.6055 26.4202H24.6055ZM1.87976 7.26137C1.87994 7.12665 1.98916 7.0175 2.12388 7.01741H26.1716C26.3063 7.01759 26.4154 7.12671 26.4156 7.26137V11.9891C26.4154 12.1238 26.3063 12.2329 26.1716 12.2331H2.12388C1.98916 12.233 1.87995 12.1238 1.87976 11.9891V7.26137ZM26.1716 5.13965H2.12387C0.95196 5.14021 0.00175 6.08946 0 7.26137V11.9891C0.00195 12.9457 0.64314 13.7829 1.56616 14.0341V26.1761C1.5679 27.348 2.5181 28.2974 3.69005 28.298H24.6055C25.7772 28.297 26.727 27.348 26.7289 26.1763V14.0343C27.6519 13.7831 28.293 12.9459 28.295 11.9893V7.26137C28.2933 6.08966 27.3434 5.14051 26.1717 5.13967L26.1716 5.13965Z" fill="#2966C1"/>
<path fill-rule="evenodd" clip-rule="evenodd" d="M24.2142 1.15728C23.4924 0.316955 22.4485 -0.0780847 21.1941 0.0131815C18.8795 0.182992 15.977 2.06476 14.1467 4.5097C12.3165 2.06475 9.41419 0.183152 7.09963 0.0131815C5.84314 -0.079595 4.80126 0.316965 4.07963 1.15728C3.17468 2.21078 3.12161 3.18542 3.23661 3.81759C3.33139 4.30356 3.53528 4.76165 3.83289 5.15728H6.61166C6.53285 5.05403 6.43329 4.96845 6.31939 4.90608C6.08772 4.77982 5.19783 4.16775 5.07261 3.48032C5.05002 3.35606 4.98138 2.97793 5.49211 2.38344C5.82239 1.99828 6.304 1.83551 6.9652 1.88407C8.90315 2.02625 11.6417 3.97735 13.07 6.23406C13.1161 6.30475 13.1717 6.36881 13.2352 6.42446V28.3H15.101V6.39117C15.1485 6.34357 15.1907 6.29095 15.2269 6.23426C16.6551 3.97772 19.3937 2.02646 21.3316 1.88427C21.9905 1.83571 22.4738 1.99914 22.8047 2.38364C23.3138 2.97613 23.247 3.35275 23.225 3.47651C23.107 4.142 22.2622 4.7477 21.9746 4.90797C21.8619 4.97023 21.7633 5.05526 21.6852 5.15766H24.4639C24.7614 4.76199 24.9653 4.3039 25.06 3.81797C25.1722 3.18547 25.1191 2.21084 24.2142 1.15733L24.2142 1.15728Z" fill="#EA4E0D"/>
</g>
</svg>
