<svg width="29" height="29" viewBox="0 0 29 29" fill="none" xmlns="http://www.w3.org/2000/svg">
<mask id="mask0_0_5076" style="mask-type:alpha" maskUnits="userSpaceOnUse" x="0" y="0" width="29" height="29">
<path fill-rule="evenodd" clip-rule="evenodd" d="M0.00426925 28.2935V0.00345939H28.2943V28.2935H0.00426925Z" fill="#E9E9E9"/>
</mask>
<g mask="url(#mask0_0_5076)">
<path fill-rule="evenodd" clip-rule="evenodd" d="M10.4373 13.7273C8.96996 13.7308 7.7824 14.9214 7.78267 16.3888C7.78267 16.8517 8.15799 17.227 8.62096 17.227C9.08393 17.227 9.45925 16.8517 9.45925 16.3888C9.45925 15.8486 9.89713 15.4107 10.4373 15.4107C10.9774 15.4107 11.4153 15.8486 11.4153 16.3888C11.4153 16.8517 11.7906 17.227 12.2536 17.227C12.7166 17.227 13.0919 16.8517 13.0919 16.3888C13.0919 14.9209 11.9041 13.7305 10.4368 13.7273H10.4373ZM22.4794 24.4937C22.0704 24.7342 21.8184 25.1724 21.8162 25.6468V26.6142H19.1646C19.0112 26.0298 18.4858 25.6203 17.8816 25.6145L17.8284 25.6145C16.4743 25.6065 12.9804 25.5862 11.6688 25.5826H11.6651C11.0448 25.5837 10.5064 26.0107 10.364 26.6145H7.72058V25.1615C7.71908 24.7313 7.5115 24.3279 7.16233 24.0766C5.95351 23.2039 5.00432 22.0194 4.41601 20.6495C4.11694 19.9596 3.43543 19.5144 2.6835 19.5177H1.97778C1.85733 19.5175 1.75981 19.4198 1.75991 19.2993V15.6266C1.75981 15.5061 1.85733 15.4084 1.97778 15.4082L2.62959 15.4082C3.39154 15.4119 4.08015 14.9547 4.37258 14.2511C4.90336 12.9754 5.74563 11.8532 6.82229 10.9871C7.27295 10.6272 7.5351 10.0816 7.5345 9.50479V7.74201L8.34441 8.08488C8.36955 9.61374 8.83726 11.1026 9.69094 12.3711C10.0412 12.8879 10.6261 13.196 11.2503 13.1927H11.2538C12.5248 13.1904 14.4797 13.1809 16.4121 13.1715C18.2721 13.1626 20.1113 13.1537 21.2992 13.1512C21.9271 13.1534 22.5143 12.8403 22.8624 12.3177C23.1268 11.9175 23.3544 11.4941 23.5423 11.0527C25.6141 12.7611 26.7219 15.3729 26.5102 18.0498C26.2985 20.7268 24.7939 23.132 22.4794 24.4935L22.4794 24.4937ZM11.8793 3.50254C13.0393 2.33713 14.6155 1.68166 16.2598 1.68099H16.3245C18.6123 1.71261 20.7006 2.98958 21.7712 5.01155C22.8419 7.03352 22.7244 9.47848 21.4648 11.3885C21.4252 11.4417 21.362 11.4721 21.2957 11.4699C20.1068 11.4722 18.2664 11.4812 16.4039 11.4902C14.4732 11.4995 12.5203 11.509 11.2507 11.5113C11.1845 11.5137 11.1212 11.4836 11.0813 11.4307C9.40565 8.94006 9.74095 5.60928 11.8794 3.50255L11.8793 3.50254ZM24.0528 9.33257C24.4612 7.03784 23.8408 4.67955 22.3562 2.8828C20.8715 1.08605 18.6724 0.0322641 16.3418 0.000764141C14.2267 -0.0235059 12.1916 0.808594 10.6994 2.30783C9.58802 3.40272 8.82513 4.80179 8.5067 6.32909L7.75604 6.01101C7.33355 5.83295 6.84991 5.87859 6.4682 6.13257C6.08649 6.38654 5.85755 6.815 5.85859 7.27348V9.50482C5.8578 9.57176 5.82664 9.63472 5.77387 9.67592C4.47749 10.7187 3.46336 12.0699 2.82432 13.606C2.78932 13.6817 2.71276 13.7293 2.62941 13.7274L1.97746 13.7273C0.930338 13.7298 0.0828378 14.5795 0.0830078 15.6266V19.2985C0.0830078 20.346 0.930668 21.1955 1.9778 21.1978H2.68318C2.76477 21.1954 2.84021 21.241 2.87609 21.3143C3.56151 22.91 4.65404 24.2978 6.04434 25.3386V26.9612C6.04413 27.6966 6.63929 28.2935 7.37472 28.2953H10.6688C11.2887 28.294 11.8268 27.8676 11.9697 27.2643C13.364 27.2693 16.1962 27.2858 17.5753 27.2938C17.7291 27.8825 18.26 28.2937 18.8684 28.2953H22.1622C22.8977 28.2936 23.4929 27.6967 23.4928 26.9613L23.4927 25.8447C26.3238 24.1042 28.0939 21.0605 28.2066 17.739C28.3192 14.4176 26.7595 11.2609 24.0528 9.33256L24.0528 9.33257Z" fill="#2966C1"/>
<path fill-rule="evenodd" clip-rule="evenodd" d="M18.7147 7.52601H17.1429V7.05735H18.7147C19.1259 7.05735 19.4594 6.72405 19.4594 6.31293C19.4594 5.90179 19.1259 5.56849 18.7147 5.56849H18.0435L19.1302 4.48186C19.4211 4.19126 19.4212 3.71991 19.1304 3.42915C18.8397 3.13837 18.3681 3.13831 18.0773 3.42898L16.3635 5.14325L14.6487 3.42904C14.3579 3.1384 13.8864 3.13847 13.5957 3.42921C13.305 3.71994 13.305 4.19122 13.5959 4.48186L14.6825 5.56849H14.081C13.6697 5.56849 13.3362 5.90182 13.3362 6.313C13.3362 6.72418 13.6697 7.05751 14.081 7.05751H15.6526V7.52617H14.081C13.6697 7.52617 13.3362 7.8595 13.3362 8.27068C13.3362 8.68187 13.6697 9.0152 14.081 9.0152H15.6526V10.0354C15.6525 10.4464 15.9859 10.7797 16.3971 10.7797C16.8083 10.7797 17.1416 10.4464 17.1416 10.0354L17.1415 9.0152H18.7133C19.1247 9.01557 19.4585 8.6825 19.4588 8.27126C19.4592 7.86003 19.126 7.52637 18.7146 7.526L18.7147 7.52601Z" fill="#EA4E0D"/>
</g>
</svg>
