<svg width="29" height="29" viewBox="0 0 29 29" fill="none" xmlns="http://www.w3.org/2000/svg">
<mask id="mask0_0_4995" style="mask-type:alpha" maskUnits="userSpaceOnUse" x="-1" y="-1" width="30" height="30">
<path fill-rule="evenodd" clip-rule="evenodd" d="M-0.0033606 28.2984V-0.00173031H28.2967V28.2984H-0.0033606Z" fill="#E9E9E9"/>
</mask>
<g mask="url(#mask0_0_4995)">
<path fill-rule="evenodd" clip-rule="evenodd" d="M14.4565 23.1747C13.7288 23.1727 13.1375 23.7613 13.1361 24.489C13.1347 25.2166 13.7239 25.8074 14.4515 25.8081C15.1792 25.8088 15.7695 25.2191 15.7695 24.4914C15.7705 23.7653 15.1827 23.1757 14.4565 23.1748V23.1747ZM22.0543 26.5246H6.23999C5.49864 26.5227 4.89877 25.921 4.89903 25.1797V21.7404H23.3953V25.1797C23.3956 25.921 22.7957 26.5227 22.0543 26.5246L22.0543 26.5246ZM6.23999 1.77035H22.0543C22.7957 1.7723 23.3956 2.37398 23.3953 3.11533V19.9702H4.89903V3.11533C4.89877 2.37398 5.49864 1.7723 6.23999 1.77036V1.77035ZM22.0543 0H6.23999C4.5231 0.00487 3.13406 1.39843 3.13477 3.11533V25.1797C3.13405 26.8966 4.52309 28.2902 6.23999 28.295H22.0543C23.7714 28.2903 25.1606 26.8967 25.1599 25.1797V3.11533C25.1606 1.39831 23.7714 0.0047 22.0543 0Z" fill="#2966C1"/>
<path fill-rule="evenodd" clip-rule="evenodd" d="M18.3816 12.498H15.0271V10.675H18.3816C18.8673 10.675 19.2611 10.2815 19.2611 9.7961C19.2611 9.31071 18.8673 8.91724 18.3816 8.91724H15.9916L18.8008 6.1053C19.1443 5.76275 19.1448 5.20675 18.8019 4.8635C18.4591 4.52027 17.9027 4.51976 17.5592 4.86237L14.0859 8.33879L10.6126 4.86243C10.2691 4.51976 9.7127 4.52026 9.36985 4.8635C9.02698 5.20675 9.02746 5.76275 9.37095 6.10536L12.1803 8.91724H9.91615C9.43041 8.91724 9.03666 9.31071 9.03666 9.7961C9.03666 10.2815 9.43042 10.675 9.91615 10.675H13.271V12.4981H9.91615C9.43041 12.4981 9.03666 12.8915 9.03666 13.3769C9.03666 13.8623 9.43042 14.2557 9.91615 14.2557H13.271V16.6046C13.2709 17.0892 13.6641 17.4821 14.149 17.4821C14.634 17.4821 15.0272 17.0892 15.0272 16.6046L15.0271 14.2557H18.3816C18.8674 14.2557 19.2611 13.8623 19.2611 13.3769C19.2611 12.8915 18.8674 12.4981 18.3816 12.4981L18.3816 12.498Z" fill="#EA4E0D"/>
</g>
</svg>
