<svg width="29" height="29" viewBox="0 0 29 29" fill="none" xmlns="http://www.w3.org/2000/svg">
<mask id="mask0_0_5010" style="mask-type:alpha" maskUnits="userSpaceOnUse" x="0" y="-1" width="29" height="30">
<path fill-rule="evenodd" clip-rule="evenodd" d="M-2.99947e-05 28.2984V-0.00173031H28.2901V28.2984H-2.99947e-05Z" fill="#E9E9E9"/>
</mask>
<g mask="url(#mask0_0_5010)">
<path fill-rule="evenodd" clip-rule="evenodd" d="M13.1994 4.87507V10.0775H6.56155C7.61583 7.23017 10.1826 5.21843 13.1994 4.87507ZM21.6185 10.0778H14.8673V4.86228C17.9336 5.15728 20.5587 7.18514 21.6185 10.0775V10.0778ZM23.3778 10.0809C22.156 5.97085 18.3778 3.15289 14.0901 3.15356C9.80382 3.15356 6.02607 5.9721 4.80491 10.0823C2.11537 10.2115 0.00086 12.4293 1e-05 15.1219L0 19.738C0.00027 20.4758 0.59764 21.0741 1.33537 21.0755H3.29178C3.75308 21.0755 4.12705 20.7015 4.12705 20.2402C4.12705 19.7789 3.75309 19.405 3.29178 19.405H1.6686V15.1219C1.66932 13.2609 3.17629 11.7516 5.03732 11.748H23.2579C25.119 11.7515 26.626 13.2608 26.6267 15.1219V19.405H25.0613C24.6 19.405 24.2261 19.7789 24.2261 20.2402C24.2261 20.7015 24.6 21.0755 25.0613 21.0755H26.9597C27.6974 21.0741 28.2948 20.4758 28.2951 19.738L28.2951 15.1219C28.2937 12.3863 26.1126 10.1501 23.3779 10.0804L23.3778 10.0809ZM17.6902 21.0755H10.7198C10.2585 21.0755 9.8845 20.7015 9.8845 20.2402C9.8845 19.7789 10.2585 19.4049 10.7198 19.4049H17.6907C18.152 19.4051 18.5259 19.7792 18.5257 20.2405C18.5256 20.7018 18.1515 21.0756 17.6902 21.0755L17.6902 21.0755Z" fill="#2966C1"/>
<path fill-rule="evenodd" clip-rule="evenodd" d="M21.0764 18.6678C19.7472 18.6708 18.6719 19.7503 18.6739 21.0795C18.676 22.4086 19.7546 23.4848 21.0837 23.4838C22.4129 23.4828 23.4899 22.405 23.4899 21.0758C23.4867 19.7451 22.407 18.668 21.0763 18.6682L21.0764 18.6678ZM21.0764 25.1415C18.8321 25.1368 17.0162 23.3143 17.0194 21.07C17.0226 18.8257 18.8437 17.0084 21.088 17.01C23.3324 17.0117 25.1509 18.8315 25.1509 21.0758C25.1461 23.3228 23.3232 25.1417 21.0763 25.1415H21.0764ZM6.84807 18.6678C5.51888 18.6708 4.44345 19.7501 4.44542 21.0793C4.44737 22.4086 5.52597 23.4847 6.85518 23.4838C8.18437 23.4828 9.26138 22.405 9.26138 21.0758C9.25827 19.7452 8.17869 18.6682 6.84807 18.6682V18.6678ZM6.84807 25.1415C4.60375 25.1368 2.78781 23.3143 2.79102 21.07C2.79422 18.8257 4.61536 17.0084 6.85968 17.01C9.104 17.0117 10.9225 18.8315 10.9225 21.0758C10.9177 23.3227 9.09494 25.1416 6.84807 25.1415Z" fill="#EA4E0D"/>
</g>
</svg>
