<svg width="29" height="29" viewBox="0 0 29 29" fill="none" xmlns="http://www.w3.org/2000/svg">
<mask id="mask0_0_4975" style="mask-type:alpha" maskUnits="userSpaceOnUse" x="0" y="-1" width="29" height="30">
<path fill-rule="evenodd" clip-rule="evenodd" d="M0.00329942 28.2984V-0.00173031H28.2934V28.2984H0.00329942Z" fill="#E9E9E9"/>
</mask>
<g mask="url(#mask0_0_4975)">
<path fill-rule="evenodd" clip-rule="evenodd" d="M14.1475 1.7563C7.30404 1.7563 1.75631 7.30404 1.75631 14.1475C1.75631 20.991 7.30404 26.5387 14.1475 26.5387C20.991 26.5387 26.5387 20.991 26.5387 14.1475C26.531 7.30724 20.9878 1.76404 14.1475 1.7563H14.1475ZM14.1475 28.295C6.33406 28.295 0 21.961 0 14.1475C0 6.33406 6.33406 0 14.1475 0C21.961 0 28.295 6.33406 28.295 14.1475C28.2858 21.9571 21.9571 28.2858 14.1475 28.295Z" fill="#2966C1"/>
<path fill-rule="evenodd" clip-rule="evenodd" d="M8.587 12.5942V12.5976V12.5942ZM14.2189 8.87183C14.024 9.58417 13.6394 10.2303 13.1062 10.7411C11.8622 11.9398 9.82829 13.8365 9.74223 13.9166C9.71559 13.9417 9.68763 13.9653 9.65849 13.9874C9.11732 14.4382 8.79728 15.1009 8.78068 15.8051C8.78068 16.9051 9.57444 18.1627 11.0865 19.4707C11.5416 17.8903 12.4549 16.3956 13.6739 16.2672C14.9199 16.1348 16.3192 17.495 16.8885 19.2911C17.6613 18.91 18.5206 18.3033 18.9458 17.2534C19.363 16.2234 19.3017 14.9067 18.7653 13.3289C18.5174 13.5355 18.2048 13.6485 17.8822 13.648H17.8788C17.2707 13.651 16.7341 13.251 16.5632 12.6674C16.2221 11.5254 15.5467 10.036 14.2189 8.87184V8.87183ZM11.4148 21.6602C11.1489 21.6598 10.8906 21.571 10.6808 21.4075C8.25547 19.5335 7.02555 17.6488 7.02539 15.8051C7.02539 13.9313 8.32361 12.8045 8.56454 12.6118C8.79138 12.4002 10.7047 10.6146 11.8896 9.47308C12.403 8.96631 12.6697 8.26065 12.6197 7.54098C12.5957 7.17456 12.7769 6.82507 13.0902 6.63354C13.4035 6.44201 13.7972 6.44009 14.1124 6.6285C16.1622 7.85607 17.2904 9.65456 17.9096 11.1992C18.1816 10.8866 18.5944 10.7344 19.0043 10.7959C19.4141 10.8573 19.7643 11.1238 19.9326 11.5024C21.0552 14.0341 21.2705 16.1912 20.5727 17.9137C19.6952 20.0805 17.6439 20.9053 16.9697 21.1762C16.6336 21.3109 16.2549 21.288 15.9375 21.1136C15.6202 20.9392 15.3977 20.6318 15.3312 20.2759C15.0634 18.8695 14.1417 18.0531 13.8614 18.0166C13.5689 18.1323 12.8813 19.1394 12.6104 20.6545C12.5082 21.2351 12.0044 21.6589 11.4148 21.6602L11.4148 21.6602Z" fill="#EA4E0D"/>
</g>
</svg>
